<mxfile host="app.diagrams.net" modified="2021-01-07T18:29:02.543Z" agent="5.0 (Windows NT 10.0; Win64; x64) AppleWebKit/537.36 (KHTML, like Gecko) Chrome/87.0.4280.88 Safari/537.36" etag="ee_myRTsiF9c88YDl55H" version="14.1.8" type="github" pages="3">
  <diagram id="FIlmItlmwFXdO_1dd_rg" name="Holds Workflow">
    <mxGraphModel dx="1085" dy="752" grid="1" gridSize="10" guides="1" tooltips="1" connect="1" arrows="1" fold="1" page="1" pageScale="1" pageWidth="850" pageHeight="1100" math="0" shadow="0">
      <root>
        <mxCell id="YvOaj-5_H1vuJNTqMkzz-0" />
        <mxCell id="YvOaj-5_H1vuJNTqMkzz-1" parent="YvOaj-5_H1vuJNTqMkzz-0" />
        <mxCell id="ppWnuGn-PQxRxfN3bJYF-0" value="1" style="rounded=0;whiteSpace=wrap;html=1;" parent="YvOaj-5_H1vuJNTqMkzz-1" vertex="1">
          <mxGeometry x="60" y="110" width="70" height="40" as="geometry" />
        </mxCell>
        <mxCell id="ppWnuGn-PQxRxfN3bJYF-1" value="" style="endArrow=classic;html=1;exitX=0.5;exitY=1;exitDx=0;exitDy=0;entryX=0.5;entryY=0;entryDx=0;entryDy=0;" parent="YvOaj-5_H1vuJNTqMkzz-1" source="ppWnuGn-PQxRxfN3bJYF-0" edge="1">
          <mxGeometry width="50" height="50" relative="1" as="geometry">
            <mxPoint x="380" y="490" as="sourcePoint" />
            <mxPoint x="95" y="170" as="targetPoint" />
          </mxGeometry>
        </mxCell>
        <mxCell id="ppWnuGn-PQxRxfN3bJYF-2" value="2" style="rounded=0;whiteSpace=wrap;html=1;" parent="YvOaj-5_H1vuJNTqMkzz-1" vertex="1">
          <mxGeometry x="60" y="170" width="70" height="40" as="geometry" />
        </mxCell>
        <mxCell id="ppWnuGn-PQxRxfN3bJYF-3" value="" style="endArrow=classic;html=1;exitX=0.5;exitY=1;exitDx=0;exitDy=0;entryX=0.5;entryY=0;entryDx=0;entryDy=0;" parent="YvOaj-5_H1vuJNTqMkzz-1" source="ppWnuGn-PQxRxfN3bJYF-2" edge="1">
          <mxGeometry width="50" height="50" relative="1" as="geometry">
            <mxPoint x="380" y="550" as="sourcePoint" />
            <mxPoint x="95" y="230" as="targetPoint" />
          </mxGeometry>
        </mxCell>
        <mxCell id="ppWnuGn-PQxRxfN3bJYF-4" value="3" style="rounded=0;whiteSpace=wrap;html=1;" parent="YvOaj-5_H1vuJNTqMkzz-1" vertex="1">
          <mxGeometry x="60" y="230" width="70" height="40" as="geometry" />
        </mxCell>
        <mxCell id="ppWnuGn-PQxRxfN3bJYF-5" value="" style="endArrow=classic;html=1;exitX=0.5;exitY=1;exitDx=0;exitDy=0;entryX=0.5;entryY=0;entryDx=0;entryDy=0;" parent="YvOaj-5_H1vuJNTqMkzz-1" source="ppWnuGn-PQxRxfN3bJYF-4" edge="1">
          <mxGeometry width="50" height="50" relative="1" as="geometry">
            <mxPoint x="380" y="610" as="sourcePoint" />
            <mxPoint x="95" y="290" as="targetPoint" />
          </mxGeometry>
        </mxCell>
        <mxCell id="ppWnuGn-PQxRxfN3bJYF-6" value="4" style="rounded=0;whiteSpace=wrap;html=1;" parent="YvOaj-5_H1vuJNTqMkzz-1" vertex="1">
          <mxGeometry x="60" y="290" width="70" height="40" as="geometry" />
        </mxCell>
        <mxCell id="ppWnuGn-PQxRxfN3bJYF-7" value="" style="endArrow=classic;html=1;exitX=0.5;exitY=1;exitDx=0;exitDy=0;entryX=0.5;entryY=0;entryDx=0;entryDy=0;" parent="YvOaj-5_H1vuJNTqMkzz-1" source="ppWnuGn-PQxRxfN3bJYF-6" edge="1">
          <mxGeometry width="50" height="50" relative="1" as="geometry">
            <mxPoint x="380" y="670" as="sourcePoint" />
            <mxPoint x="95" y="350" as="targetPoint" />
          </mxGeometry>
        </mxCell>
        <mxCell id="ppWnuGn-PQxRxfN3bJYF-10" value="5.a" style="rounded=0;whiteSpace=wrap;html=1;" parent="YvOaj-5_H1vuJNTqMkzz-1" vertex="1">
          <mxGeometry x="60" y="430" width="70" height="40" as="geometry" />
        </mxCell>
        <mxCell id="ppWnuGn-PQxRxfN3bJYF-11" value="" style="endArrow=classic;html=1;exitX=0.5;exitY=1;exitDx=0;exitDy=0;entryX=0.5;entryY=0;entryDx=0;entryDy=0;" parent="YvOaj-5_H1vuJNTqMkzz-1" source="ppWnuGn-PQxRxfN3bJYF-10" edge="1">
          <mxGeometry width="50" height="50" relative="1" as="geometry">
            <mxPoint x="380" y="810" as="sourcePoint" />
            <mxPoint x="95" y="490" as="targetPoint" />
          </mxGeometry>
        </mxCell>
        <mxCell id="bSdOODXDOFq7o-rd9tUC-12" style="edgeStyle=orthogonalEdgeStyle;rounded=0;orthogonalLoop=1;jettySize=auto;html=1;exitX=0.5;exitY=1;exitDx=0;exitDy=0;entryX=0.5;entryY=0;entryDx=0;entryDy=0;fontSize=12;" parent="YvOaj-5_H1vuJNTqMkzz-1" source="ppWnuGn-PQxRxfN3bJYF-12" target="bSdOODXDOFq7o-rd9tUC-1" edge="1">
          <mxGeometry relative="1" as="geometry" />
        </mxCell>
        <mxCell id="ppWnuGn-PQxRxfN3bJYF-12" value="5.a.ii" style="rounded=0;whiteSpace=wrap;html=1;" parent="YvOaj-5_H1vuJNTqMkzz-1" vertex="1">
          <mxGeometry x="60" y="550" width="70" height="40" as="geometry" />
        </mxCell>
        <mxCell id="ppWnuGn-PQxRxfN3bJYF-14" value="5.a.i" style="rounded=0;whiteSpace=wrap;html=1;" parent="YvOaj-5_H1vuJNTqMkzz-1" vertex="1">
          <mxGeometry x="60" y="490" width="70" height="40" as="geometry" />
        </mxCell>
        <mxCell id="ppWnuGn-PQxRxfN3bJYF-15" value="" style="endArrow=classic;html=1;exitX=0.5;exitY=1;exitDx=0;exitDy=0;entryX=0.5;entryY=0;entryDx=0;entryDy=0;" parent="YvOaj-5_H1vuJNTqMkzz-1" source="ppWnuGn-PQxRxfN3bJYF-14" edge="1">
          <mxGeometry width="50" height="50" relative="1" as="geometry">
            <mxPoint x="380" y="870" as="sourcePoint" />
            <mxPoint x="95" y="550" as="targetPoint" />
          </mxGeometry>
        </mxCell>
        <mxCell id="bSdOODXDOFq7o-rd9tUC-0" style="edgeStyle=orthogonalEdgeStyle;rounded=0;orthogonalLoop=1;jettySize=auto;html=1;exitX=0.5;exitY=1;exitDx=0;exitDy=0;entryX=0.5;entryY=0;entryDx=0;entryDy=0;fontSize=12;" parent="YvOaj-5_H1vuJNTqMkzz-1" source="ppWnuGn-PQxRxfN3bJYF-16" target="ppWnuGn-PQxRxfN3bJYF-10" edge="1">
          <mxGeometry relative="1" as="geometry" />
        </mxCell>
        <mxCell id="bSdOODXDOFq7o-rd9tUC-14" style="edgeStyle=orthogonalEdgeStyle;rounded=0;orthogonalLoop=1;jettySize=auto;html=1;exitX=1;exitY=0.5;exitDx=0;exitDy=0;entryX=0;entryY=0.5;entryDx=0;entryDy=0;fontSize=12;" parent="YvOaj-5_H1vuJNTqMkzz-1" source="ppWnuGn-PQxRxfN3bJYF-16" target="bSdOODXDOFq7o-rd9tUC-13" edge="1">
          <mxGeometry relative="1" as="geometry" />
        </mxCell>
        <mxCell id="ppWnuGn-PQxRxfN3bJYF-16" value="5" style="rhombus;whiteSpace=wrap;html=1;" parent="YvOaj-5_H1vuJNTqMkzz-1" vertex="1">
          <mxGeometry x="70" y="350" width="50" height="50" as="geometry" />
        </mxCell>
        <mxCell id="ppWnuGn-PQxRxfN3bJYF-31" value="1. IMO receives a notification of a legal hold relating to x.&lt;br&gt;2. IMO tasks the search team to search for x&lt;br&gt;3. Search team searches for responsive documents&lt;br&gt;4. Search team bundles the responsive documents for the IMO to&lt;br&gt;review.&lt;br&gt;5. IMO reviews the documents&lt;br&gt;&lt;blockquote style=&quot;margin: 0 0 0 40px ; border: none ; padding: 0px&quot;&gt;a. Responsive documents are flagged with a legal&lt;br&gt;hold.&lt;br&gt;&lt;/blockquote&gt;&lt;blockquote style=&quot;margin: 0 0 0 40px ; border: none ; padding: 0px&quot;&gt;&lt;blockquote style=&quot;margin: 0 0 0 40px ; border: none ; padding: 0px&quot;&gt;i. The UI calls the Eva API Gateway&lt;/blockquote&gt;&lt;blockquote style=&quot;margin: 0 0 0 40px ; border: none ; padding: 0px&quot;&gt;ii. The gateway updated the RMM service&lt;/blockquote&gt;&lt;blockquote style=&quot;margin: 0 0 0 40px ; border: none ; padding: 0px&quot;&gt;with the hold flag/data&lt;/blockquote&gt;&lt;blockquote style=&quot;margin: 0 0 0 40px ; border: none ; padding: 0px&quot;&gt;iii. RMM updates the RMM table&lt;/blockquote&gt;&lt;blockquote style=&quot;margin: 0 0 0 40px ; border: none ; padding: 0px&quot;&gt;iv. RMM posts a message onto a Queue&lt;/blockquote&gt;&lt;blockquote style=&quot;margin: 0 0 0 40px ; border: none ; padding: 0px&quot;&gt;notifying the holding system of a legal&lt;/blockquote&gt;&lt;blockquote style=&quot;margin: 0 0 0 40px ; border: none ; padding: 0px&quot;&gt;hold.&lt;/blockquote&gt;&lt;blockquote style=&quot;margin: 0 0 0 40px ; border: none ; padding: 0px&quot;&gt;v. The system acknowledges the hold&lt;/blockquote&gt;&lt;blockquote style=&quot;margin: 0 0 0 40px ; border: none ; padding: 0px&quot;&gt;vi. RMM updates with the acknowledgement&lt;/blockquote&gt;&lt;blockquote style=&quot;margin: 0 0 0 40px ; border: none ; padding: 0px&quot;&gt;vii. The system locks the document and&lt;/blockquote&gt;&lt;blockquote style=&quot;margin: 0 0 0 40px ; border: none ; padding: 0px&quot;&gt;prohibits updating or deleting of the files.&lt;/blockquote&gt;&lt;/blockquote&gt;&lt;blockquote style=&quot;margin: 0 0 0 40px ; border: none ; padding: 0px&quot;&gt;b. Non-responsive documents are removed from the&lt;br&gt;search bundle.&lt;/blockquote&gt;&lt;br&gt;Need to add:&lt;br&gt;● Steps to remove holds&lt;br&gt;● Holds Expiring&lt;br&gt;● Holds nearing expiration" style="text;strokeColor=none;fillColor=none;align=left;verticalAlign=top;rounded=0;fontSize=13;whiteSpace=wrap;html=1;" parent="YvOaj-5_H1vuJNTqMkzz-1" vertex="1">
          <mxGeometry x="430" y="115" width="380" height="710" as="geometry" />
        </mxCell>
        <mxCell id="bSdOODXDOFq7o-rd9tUC-1" value="5.a.iii" style="rounded=0;whiteSpace=wrap;html=1;" parent="YvOaj-5_H1vuJNTqMkzz-1" vertex="1">
          <mxGeometry x="60" y="610" width="70" height="40" as="geometry" />
        </mxCell>
        <mxCell id="bSdOODXDOFq7o-rd9tUC-2" value="" style="endArrow=classic;html=1;exitX=0.5;exitY=1;exitDx=0;exitDy=0;entryX=0.5;entryY=0;entryDx=0;entryDy=0;" parent="YvOaj-5_H1vuJNTqMkzz-1" source="bSdOODXDOFq7o-rd9tUC-1" edge="1">
          <mxGeometry width="50" height="50" relative="1" as="geometry">
            <mxPoint x="380" y="990" as="sourcePoint" />
            <mxPoint x="95" y="670" as="targetPoint" />
          </mxGeometry>
        </mxCell>
        <mxCell id="bSdOODXDOFq7o-rd9tUC-11" style="edgeStyle=orthogonalEdgeStyle;rounded=0;orthogonalLoop=1;jettySize=auto;html=1;exitX=0.5;exitY=1;exitDx=0;exitDy=0;entryX=0.5;entryY=0;entryDx=0;entryDy=0;fontSize=12;" parent="YvOaj-5_H1vuJNTqMkzz-1" source="bSdOODXDOFq7o-rd9tUC-3" target="bSdOODXDOFq7o-rd9tUC-6" edge="1">
          <mxGeometry relative="1" as="geometry" />
        </mxCell>
        <mxCell id="bSdOODXDOFq7o-rd9tUC-3" value="5.a.v" style="rounded=0;whiteSpace=wrap;html=1;" parent="YvOaj-5_H1vuJNTqMkzz-1" vertex="1">
          <mxGeometry x="60" y="730" width="70" height="40" as="geometry" />
        </mxCell>
        <mxCell id="bSdOODXDOFq7o-rd9tUC-4" value="5.a.iv" style="rounded=0;whiteSpace=wrap;html=1;" parent="YvOaj-5_H1vuJNTqMkzz-1" vertex="1">
          <mxGeometry x="60" y="670" width="70" height="40" as="geometry" />
        </mxCell>
        <mxCell id="bSdOODXDOFq7o-rd9tUC-5" value="" style="endArrow=classic;html=1;exitX=0.5;exitY=1;exitDx=0;exitDy=0;entryX=0.5;entryY=0;entryDx=0;entryDy=0;" parent="YvOaj-5_H1vuJNTqMkzz-1" source="bSdOODXDOFq7o-rd9tUC-4" edge="1">
          <mxGeometry width="50" height="50" relative="1" as="geometry">
            <mxPoint x="380" y="1050" as="sourcePoint" />
            <mxPoint x="95" y="730" as="targetPoint" />
          </mxGeometry>
        </mxCell>
        <mxCell id="bSdOODXDOFq7o-rd9tUC-16" style="edgeStyle=orthogonalEdgeStyle;rounded=0;orthogonalLoop=1;jettySize=auto;html=1;exitX=0.5;exitY=1;exitDx=0;exitDy=0;entryX=0.5;entryY=0;entryDx=0;entryDy=0;fontSize=12;" parent="YvOaj-5_H1vuJNTqMkzz-1" source="bSdOODXDOFq7o-rd9tUC-6" target="bSdOODXDOFq7o-rd9tUC-15" edge="1">
          <mxGeometry relative="1" as="geometry" />
        </mxCell>
        <mxCell id="bSdOODXDOFq7o-rd9tUC-6" value="5.a.vi" style="rounded=0;whiteSpace=wrap;html=1;" parent="YvOaj-5_H1vuJNTqMkzz-1" vertex="1">
          <mxGeometry x="60" y="790" width="70" height="40" as="geometry" />
        </mxCell>
        <mxCell id="bSdOODXDOFq7o-rd9tUC-13" value="5.b" style="rounded=0;whiteSpace=wrap;html=1;" parent="YvOaj-5_H1vuJNTqMkzz-1" vertex="1">
          <mxGeometry x="170" y="355" width="70" height="40" as="geometry" />
        </mxCell>
        <mxCell id="bSdOODXDOFq7o-rd9tUC-15" value="5.a.vi" style="rounded=0;whiteSpace=wrap;html=1;" parent="YvOaj-5_H1vuJNTqMkzz-1" vertex="1">
          <mxGeometry x="60" y="855" width="70" height="40" as="geometry" />
        </mxCell>
        <mxCell id="4gju1CD-i61MMXTLkmXu-0" value="Legal Holds" style="text;html=1;strokeColor=none;fillColor=none;align=left;verticalAlign=middle;whiteSpace=wrap;rounded=0;fontSize=18;" parent="YvOaj-5_H1vuJNTqMkzz-1" vertex="1">
          <mxGeometry x="40" y="20" width="200" height="20" as="geometry" />
        </mxCell>
      </root>
    </mxGraphModel>
  </diagram>
  <diagram id="1SPMSTYtjkn7zpHo_Knp" name="Holds Page Flow">
    <mxGraphModel dx="1085" dy="2452" grid="1" gridSize="10" guides="1" tooltips="1" connect="1" arrows="1" fold="1" page="1" pageScale="1" pageWidth="1100" pageHeight="850" math="0" shadow="0">
      <root>
        <mxCell id="MzvnB49AQrvrAkqv_Gi6-0" />
        <mxCell id="MzvnB49AQrvrAkqv_Gi6-1" parent="MzvnB49AQrvrAkqv_Gi6-0" />
        <mxCell id="MzvnB49AQrvrAkqv_Gi6-9" style="edgeStyle=orthogonalEdgeStyle;rounded=0;orthogonalLoop=1;jettySize=auto;html=1;entryX=0.5;entryY=0;entryDx=0;entryDy=0;exitX=0.25;exitY=1;exitDx=0;exitDy=0;" edge="1" parent="MzvnB49AQrvrAkqv_Gi6-1" source="MzvnB49AQrvrAkqv_Gi6-2" target="MzvnB49AQrvrAkqv_Gi6-3">
          <mxGeometry relative="1" as="geometry" />
        </mxCell>
        <mxCell id="MzvnB49AQrvrAkqv_Gi6-10" style="edgeStyle=orthogonalEdgeStyle;rounded=0;orthogonalLoop=1;jettySize=auto;html=1;exitX=0.75;exitY=1;exitDx=0;exitDy=0;entryX=0.5;entryY=0;entryDx=0;entryDy=0;" edge="1" parent="MzvnB49AQrvrAkqv_Gi6-1" source="MzvnB49AQrvrAkqv_Gi6-2" target="MzvnB49AQrvrAkqv_Gi6-7">
          <mxGeometry relative="1" as="geometry" />
        </mxCell>
        <mxCell id="MzvnB49AQrvrAkqv_Gi6-2" value="Holds Page" style="rounded=0;whiteSpace=wrap;html=1;fillColor=#e6d0de;strokeColor=#996185;gradientColor=#d5739d;" vertex="1" parent="MzvnB49AQrvrAkqv_Gi6-1">
          <mxGeometry x="220" y="-1560" width="120" height="60" as="geometry" />
        </mxCell>
        <mxCell id="MzvnB49AQrvrAkqv_Gi6-11" style="edgeStyle=orthogonalEdgeStyle;rounded=0;orthogonalLoop=1;jettySize=auto;html=1;exitX=0.5;exitY=1;exitDx=0;exitDy=0;entryX=0.5;entryY=0;entryDx=0;entryDy=0;" edge="1" parent="MzvnB49AQrvrAkqv_Gi6-1" source="MzvnB49AQrvrAkqv_Gi6-3" target="MzvnB49AQrvrAkqv_Gi6-5">
          <mxGeometry relative="1" as="geometry" />
        </mxCell>
        <mxCell id="MzvnB49AQrvrAkqv_Gi6-3" value="Search Holds" style="rounded=1;whiteSpace=wrap;html=1;strokeColor=#996185;fontSize=10;fillColor=#FFFFFF;" vertex="1" parent="MzvnB49AQrvrAkqv_Gi6-1">
          <mxGeometry x="140" y="-1421.5" width="100" height="43" as="geometry" />
        </mxCell>
        <mxCell id="MzvnB49AQrvrAkqv_Gi6-21" style="edgeStyle=orthogonalEdgeStyle;rounded=0;orthogonalLoop=1;jettySize=auto;html=1;exitX=1;exitY=0.5;exitDx=0;exitDy=0;entryX=0;entryY=0.5;entryDx=0;entryDy=0;" edge="1" parent="MzvnB49AQrvrAkqv_Gi6-1" source="MzvnB49AQrvrAkqv_Gi6-4" target="MzvnB49AQrvrAkqv_Gi6-6">
          <mxGeometry relative="1" as="geometry" />
        </mxCell>
        <mxCell id="MzvnB49AQrvrAkqv_Gi6-4" value="Add Systems" style="rounded=1;whiteSpace=wrap;html=1;strokeColor=#996185;fontSize=10;fillColor=#FFFFFF;" vertex="1" parent="MzvnB49AQrvrAkqv_Gi6-1">
          <mxGeometry x="280" y="-1230" width="100" height="43" as="geometry" />
        </mxCell>
        <mxCell id="MzvnB49AQrvrAkqv_Gi6-5" value="Holds Results" style="rounded=1;whiteSpace=wrap;html=1;strokeColor=#996185;fontSize=10;fillColor=#FFFFFF;" vertex="1" parent="MzvnB49AQrvrAkqv_Gi6-1">
          <mxGeometry x="140" y="-1330" width="100" height="43" as="geometry" />
        </mxCell>
        <mxCell id="MzvnB49AQrvrAkqv_Gi6-6" value="Add Queries to System" style="rounded=1;whiteSpace=wrap;html=1;strokeColor=#996185;fontSize=10;fillColor=#FFFFFF;" vertex="1" parent="MzvnB49AQrvrAkqv_Gi6-1">
          <mxGeometry x="440" y="-1230" width="100" height="43" as="geometry" />
        </mxCell>
        <mxCell id="MzvnB49AQrvrAkqv_Gi6-19" style="edgeStyle=orthogonalEdgeStyle;rounded=0;orthogonalLoop=1;jettySize=auto;html=1;exitX=0.5;exitY=1;exitDx=0;exitDy=0;entryX=0.5;entryY=0;entryDx=0;entryDy=0;" edge="1" parent="MzvnB49AQrvrAkqv_Gi6-1" source="MzvnB49AQrvrAkqv_Gi6-7" target="MzvnB49AQrvrAkqv_Gi6-8">
          <mxGeometry relative="1" as="geometry" />
        </mxCell>
        <mxCell id="MzvnB49AQrvrAkqv_Gi6-7" value="Create Hold" style="rounded=1;whiteSpace=wrap;html=1;strokeColor=#996185;fontSize=10;fillColor=#FFFFFF;" vertex="1" parent="MzvnB49AQrvrAkqv_Gi6-1">
          <mxGeometry x="280" y="-1421.5" width="100" height="43" as="geometry" />
        </mxCell>
        <mxCell id="MzvnB49AQrvrAkqv_Gi6-20" style="edgeStyle=orthogonalEdgeStyle;rounded=0;orthogonalLoop=1;jettySize=auto;html=1;exitX=0.5;exitY=1;exitDx=0;exitDy=0;entryX=0.5;entryY=0;entryDx=0;entryDy=0;" edge="1" parent="MzvnB49AQrvrAkqv_Gi6-1" source="MzvnB49AQrvrAkqv_Gi6-8" target="MzvnB49AQrvrAkqv_Gi6-4">
          <mxGeometry relative="1" as="geometry" />
        </mxCell>
        <mxCell id="MzvnB49AQrvrAkqv_Gi6-8" value="Assign Hold to XXX" style="rounded=1;whiteSpace=wrap;html=1;strokeColor=#996185;fontSize=10;fillColor=#FFFFFF;" vertex="1" parent="MzvnB49AQrvrAkqv_Gi6-1">
          <mxGeometry x="280" y="-1330" width="100" height="43" as="geometry" />
        </mxCell>
      </root>
    </mxGraphModel>
  </diagram>
  <diagram id="hOhV6zPiMZfn9w0OAzpv" name="UI">
    <mxGraphModel dx="2031" dy="2789" grid="1" gridSize="10" guides="1" tooltips="1" connect="1" arrows="1" fold="1" page="1" pageScale="1" pageWidth="1100" pageHeight="850" math="0" shadow="0">
      <root>
        <mxCell id="P565BMBygYdm6OfglMrN-0" />
        <mxCell id="P565BMBygYdm6OfglMrN-1" parent="P565BMBygYdm6OfglMrN-0" />
        <mxCell id="P565BMBygYdm6OfglMrN-2" value="" style="rounded=0;whiteSpace=wrap;html=1;" parent="P565BMBygYdm6OfglMrN-1" vertex="1">
          <mxGeometry x="16" y="120" width="1069" height="750" as="geometry" />
        </mxCell>
        <mxCell id="P565BMBygYdm6OfglMrN-3" value="" style="rounded=0;whiteSpace=wrap;html=1;" parent="P565BMBygYdm6OfglMrN-1" vertex="1">
          <mxGeometry x="19" y="-1610" width="1069" height="750" as="geometry" />
        </mxCell>
        <mxCell id="P565BMBygYdm6OfglMrN-4" value="" style="rounded=0;whiteSpace=wrap;html=1;fillColor=#F8F9FA;" parent="P565BMBygYdm6OfglMrN-1" vertex="1">
          <mxGeometry x="20" y="-1608.5" width="1068" height="79" as="geometry" />
        </mxCell>
        <mxCell id="P565BMBygYdm6OfglMrN-5" value="" style="rounded=0;whiteSpace=wrap;html=1;" parent="P565BMBygYdm6OfglMrN-1" vertex="1">
          <mxGeometry x="17" y="-760" width="1069" height="750" as="geometry" />
        </mxCell>
        <mxCell id="P565BMBygYdm6OfglMrN-6" value="" style="rounded=0;whiteSpace=wrap;html=1;fillColor=#F8F9FA;" parent="P565BMBygYdm6OfglMrN-1" vertex="1">
          <mxGeometry x="17" y="-759" width="1068" height="79" as="geometry" />
        </mxCell>
        <mxCell id="P565BMBygYdm6OfglMrN-7" value="" style="rounded=0;whiteSpace=wrap;html=1;fillColor=#3333FF;" parent="P565BMBygYdm6OfglMrN-1" vertex="1">
          <mxGeometry x="16" y="60" width="1069" height="60" as="geometry" />
        </mxCell>
        <mxCell id="P565BMBygYdm6OfglMrN-8" value="&lt;font style=&quot;font-size: 14px&quot;&gt;FEEDBACK&lt;/font&gt;" style="rounded=1;whiteSpace=wrap;html=1;fillColor=#FF8000;strokeColor=#FF8000;fontColor=#FFFFFF;" parent="P565BMBygYdm6OfglMrN-1" vertex="1">
          <mxGeometry x="953" y="70" width="120" height="40" as="geometry" />
        </mxCell>
        <mxCell id="P565BMBygYdm6OfglMrN-9" value="" style="shape=image;html=1;verticalAlign=top;verticalLabelPosition=bottom;labelBackgroundColor=#ffffff;imageAspect=0;aspect=fixed;image=https://cdn3.iconfinder.com/data/icons/social-media-2125/78/bell-128.png;strokeColor=#FF8000;fillColor=#FF8000;fontColor=#FFFFFF;" parent="P565BMBygYdm6OfglMrN-1" vertex="1">
          <mxGeometry x="891" y="70" width="37" height="37" as="geometry" />
        </mxCell>
        <mxCell id="P565BMBygYdm6OfglMrN-10" value="" style="whiteSpace=wrap;html=1;shape=mxgraph.basic.octagon2;align=center;verticalAlign=middle;dx=12;shadow=0;sketch=0;fontSize=20;fontColor=#808080;fillColor=#FF8000;strokeColor=#FF8000;" parent="P565BMBygYdm6OfglMrN-1" vertex="1">
          <mxGeometry x="26" y="66.5" width="56" height="42" as="geometry" />
        </mxCell>
        <mxCell id="P565BMBygYdm6OfglMrN-11" value="Eva" style="text;html=1;strokeColor=none;fillColor=none;align=center;verticalAlign=middle;whiteSpace=wrap;rounded=0;shadow=0;sketch=0;fontSize=20;fontColor=#FFFFFF;fontStyle=1" parent="P565BMBygYdm6OfglMrN-1" vertex="1">
          <mxGeometry x="92" y="80" width="40" height="20" as="geometry" />
        </mxCell>
        <mxCell id="P565BMBygYdm6OfglMrN-12" value="" style="html=1;verticalLabelPosition=bottom;align=center;labelBackgroundColor=#ffffff;verticalAlign=top;strokeWidth=2;shadow=0;dashed=0;shape=mxgraph.ios7.icons.user;sketch=0;fontSize=20;fontColor=#FFFFFF;fillColor=#FFFFFF;" parent="P565BMBygYdm6OfglMrN-1" vertex="1">
          <mxGeometry x="739" y="75" width="30" height="30" as="geometry" />
        </mxCell>
        <mxCell id="P565BMBygYdm6OfglMrN-13" value="John Doe" style="text;html=1;strokeColor=none;fillColor=none;align=center;verticalAlign=middle;whiteSpace=wrap;rounded=0;shadow=0;sketch=0;fontSize=19;fontColor=#FFFFFF;" parent="P565BMBygYdm6OfglMrN-1" vertex="1">
          <mxGeometry x="782.5" y="80" width="94" height="20" as="geometry" />
        </mxCell>
        <mxCell id="P565BMBygYdm6OfglMrN-14" value="&amp;lt;Classification Here&amp;gt;" style="rounded=0;whiteSpace=wrap;html=1;shadow=0;sketch=0;fontSize=12;align=center;fillColor=#FFFF33;" parent="P565BMBygYdm6OfglMrN-1" vertex="1">
          <mxGeometry x="16" y="40" width="1069" height="20" as="geometry" />
        </mxCell>
        <mxCell id="P565BMBygYdm6OfglMrN-15" value="" style="line;strokeWidth=1;fillColor=none;align=left;verticalAlign=middle;spacingTop=-1;spacingLeft=3;spacingRight=3;rotatable=0;labelPosition=right;points=[];portConstraint=eastwest;sketch=0;direction=south;" parent="P565BMBygYdm6OfglMrN-1" vertex="1">
          <mxGeometry x="271" y="199" width="8" height="671" as="geometry" />
        </mxCell>
        <mxCell id="P565BMBygYdm6OfglMrN-16" value="" style="group;labelBackgroundColor=#ffffff;" parent="P565BMBygYdm6OfglMrN-1" connectable="0" vertex="1">
          <mxGeometry x="335" y="131" width="749" height="66.5" as="geometry" />
        </mxCell>
        <mxCell id="P565BMBygYdm6OfglMrN-17" value="" style="html=1;shadow=0;dashed=0;fillColor=#F8F9FA;strokeColor=none;fontSize=16;fontColor=#181819;align=left;spacing=15;" parent="P565BMBygYdm6OfglMrN-16" vertex="1">
          <mxGeometry width="749" height="66.5" as="geometry" />
        </mxCell>
        <mxCell id="P565BMBygYdm6OfglMrN-18" value="" style="rounded=0;whiteSpace=wrap;html=1;fillColor=#F8F9FA;" parent="P565BMBygYdm6OfglMrN-17" vertex="1">
          <mxGeometry x="-319" y="-12.5" width="1068" height="79" as="geometry" />
        </mxCell>
        <mxCell id="P565BMBygYdm6OfglMrN-19" value="Search" style="html=1;shadow=0;dashed=0;shape=mxgraph.bootstrap.rrect;rSize=5;fontSize=14;fontColor=#6C767D;strokeColor=#CED4DA;fillColor=#ffffff;align=left;spacing=10;" parent="P565BMBygYdm6OfglMrN-17" vertex="1">
          <mxGeometry width="470" height="40" relative="1" as="geometry">
            <mxPoint x="-46" y="7" as="offset" />
          </mxGeometry>
        </mxCell>
        <mxCell id="P565BMBygYdm6OfglMrN-20" value="" style="ellipse;whiteSpace=wrap;html=1;fillColor=#FFFFFF;" parent="P565BMBygYdm6OfglMrN-17" vertex="1">
          <mxGeometry x="369.67961165048536" y="19" width="10.776699029126211" height="10" as="geometry" />
        </mxCell>
        <mxCell id="P565BMBygYdm6OfglMrN-21" value="" style="endArrow=none;html=1;" parent="P565BMBygYdm6OfglMrN-17" edge="1">
          <mxGeometry width="50" height="50" relative="1" as="geometry">
            <mxPoint x="380.4563106796116" y="29" as="sourcePoint" />
            <mxPoint x="380.4563106796116" y="29" as="targetPoint" />
            <Array as="points">
              <mxPoint x="391.23300970873777" y="37" />
            </Array>
          </mxGeometry>
        </mxCell>
        <mxCell id="P565BMBygYdm6OfglMrN-22" value="" style="triangle;whiteSpace=wrap;html=1;rotation=90;fillColor=#000000;" parent="P565BMBygYdm6OfglMrN-17" vertex="1">
          <mxGeometry x="402.00970873786395" y="22" width="10.776699029126211" height="10" as="geometry" />
        </mxCell>
        <mxCell id="P565BMBygYdm6OfglMrN-23" value="" style="shape=ellipse;dashed=0;strokeColor=none;shadow=1;fontSize=13;align=center;verticalAlign=top;labelPosition=center;verticalLabelPosition=bottom;html=1;aspect=fixed;" parent="P565BMBygYdm6OfglMrN-16" vertex="1">
          <mxGeometry x="436.5" y="7" width="40" height="40" as="geometry" />
        </mxCell>
        <mxCell id="P565BMBygYdm6OfglMrN-24" value="" style="dashed=0;html=1;shape=mxgraph.gmdl.plus;strokeColor=#737373;strokeWidth=2;shadow=0;" parent="P565BMBygYdm6OfglMrN-23" vertex="1">
          <mxGeometry x="12" y="12" width="16" height="16" as="geometry" />
        </mxCell>
        <mxCell id="P565BMBygYdm6OfglMrN-25" value="" style="line;strokeWidth=1;fillColor=none;align=left;verticalAlign=middle;spacingTop=-1;spacingLeft=3;spacingRight=3;rotatable=0;labelPosition=right;points=[];portConstraint=eastwest;sketch=0;direction=west;" parent="P565BMBygYdm6OfglMrN-1" vertex="1">
          <mxGeometry x="18" y="194" width="1067" height="8" as="geometry" />
        </mxCell>
        <mxCell id="P565BMBygYdm6OfglMrN-26" value="" style="line;strokeWidth=1;fillColor=none;align=left;verticalAlign=middle;spacingTop=-1;spacingLeft=3;spacingRight=3;rotatable=0;labelPosition=right;points=[];portConstraint=eastwest;sketch=0;direction=south;" parent="P565BMBygYdm6OfglMrN-1" vertex="1">
          <mxGeometry x="547" y="239" width="8" height="630" as="geometry" />
        </mxCell>
        <mxCell id="P565BMBygYdm6OfglMrN-27" value="" style="perimeter=none;dashed=0;shape=mxgraph.gmdl.triangle;strokeColor=none;fillColor=#666666;direction=south;aspect=fixed;" parent="P565BMBygYdm6OfglMrN-1" vertex="1">
          <mxGeometry x="261" y="541" width="8" height="16" as="geometry">
            <mxPoint x="-27" as="offset" />
          </mxGeometry>
        </mxCell>
        <mxCell id="P565BMBygYdm6OfglMrN-28" value="" style="rounded=0;whiteSpace=wrap;html=1;fontSize=20;align=left;fillColor=#3333FF;" parent="P565BMBygYdm6OfglMrN-1" vertex="1">
          <mxGeometry x="275" y="198" width="276" height="40" as="geometry" />
        </mxCell>
        <mxCell id="P565BMBygYdm6OfglMrN-29" value="" style="html=1;shadow=0;dashed=0;shape=mxgraph.bootstrap.rrect;rSize=5;strokeColor=#DFDFDF;html=1;whiteSpace=wrap;fillColor=#FFFFFF;fontColor=#495057;" parent="P565BMBygYdm6OfglMrN-1" vertex="1">
          <mxGeometry x="278" y="240" width="260" height="300" as="geometry" />
        </mxCell>
        <mxCell id="P565BMBygYdm6OfglMrN-30" value="&lt;font style=&quot;font-size: 16px&quot;&gt;Hold Title #1&lt;/font&gt;&lt;br&gt;Guide: 123456/1258d25s8f22f&lt;br&gt;other data goes here" style="html=1;shadow=0;dashed=0;shape=mxgraph.bootstrap.topButton;rSize=5;perimeter=none;whiteSpace=wrap;resizeWidth=1;align=left;spacing=10;verticalAlign=top;fillColor=#0085FC;strokeColor=#0085FC;fontColor=#ffffff;" parent="P565BMBygYdm6OfglMrN-29" vertex="1">
          <mxGeometry width="260" height="100" relative="1" as="geometry" />
        </mxCell>
        <mxCell id="P565BMBygYdm6OfglMrN-31" value="&lt;font style=&quot;font-size: 16px&quot;&gt;Hold Title #2&lt;/font&gt;&lt;br&gt;Guide: 185576/58d6s8dd222dgf8&lt;br&gt;Other data goes here&lt;br&gt;&lt;br&gt;" style="strokeColor=inherit;fillColor=inherit;gradientColor=inherit;fontColor=inherit;html=1;shadow=0;dashed=0;perimeter=none;whiteSpace=wrap;resizeWidth=1;align=left;spacing=10;" parent="P565BMBygYdm6OfglMrN-29" vertex="1">
          <mxGeometry width="260" height="100" relative="1" as="geometry">
            <mxPoint y="100" as="offset" />
          </mxGeometry>
        </mxCell>
        <mxCell id="P565BMBygYdm6OfglMrN-32" value="&lt;font style=&quot;font-size: 16px&quot;&gt;Hold Title #3&lt;/font&gt;&lt;br&gt;Guide: 123456/88d55s6c8fs6&lt;br&gt;other data goes here&lt;br&gt;&lt;br&gt;" style="strokeColor=inherit;fillColor=inherit;gradientColor=inherit;fontColor=inherit;html=1;shadow=0;dashed=0;shape=mxgraph.bootstrap.bottomButton;rSize=5;perimeter=none;whiteSpace=wrap;resizeWidth=1;resizeHeight=0;align=left;spacing=10;" parent="P565BMBygYdm6OfglMrN-29" vertex="1">
          <mxGeometry y="1" width="260" height="100" relative="1" as="geometry">
            <mxPoint y="-100" as="offset" />
          </mxGeometry>
        </mxCell>
        <mxCell id="P565BMBygYdm6OfglMrN-33" value="Holds" style="text;html=1;strokeColor=none;fillColor=none;align=left;verticalAlign=middle;whiteSpace=wrap;rounded=0;labelPosition=center;verticalLabelPosition=middle;fontSize=16;fontStyle=1;fontColor=#FFFFFF;" parent="P565BMBygYdm6OfglMrN-1" vertex="1">
          <mxGeometry x="282" y="208" width="258" height="20" as="geometry" />
        </mxCell>
        <mxCell id="P565BMBygYdm6OfglMrN-34" value="" style="html=1;verticalLabelPosition=bottom;labelBackgroundColor=#ffffff;verticalAlign=top;shadow=0;dashed=0;strokeWidth=2;shape=mxgraph.ios7.misc.scroll_(vertical);fillColor=#a0a0a0;sketch=0;" parent="P565BMBygYdm6OfglMrN-1" vertex="1">
          <mxGeometry x="543" y="247" width="6" height="80" as="geometry" />
        </mxCell>
        <mxCell id="P565BMBygYdm6OfglMrN-35" value="" style="group" parent="P565BMBygYdm6OfglMrN-1" connectable="0" vertex="1">
          <mxGeometry x="552" y="199" width="530" height="500" as="geometry" />
        </mxCell>
        <mxCell id="P565BMBygYdm6OfglMrN-36" value="Hold Title #1" style="shape=rect;fillColor=#ffffff;strokeColor=#eeeeee;shadow=1;fontColor=#000000;fontSize=23;fontStyle=0;verticalAlign=top;spacingBottom=0;spacingLeft=16;spacingTop=20;align=left;rounded=0;" parent="P565BMBygYdm6OfglMrN-35" vertex="1">
          <mxGeometry width="530" height="500" as="geometry" />
        </mxCell>
        <mxCell id="P565BMBygYdm6OfglMrN-37" value="Guide: 123456/1258d25s8f22f" style="text;fontSize=12;fontStyle=4;verticalAlign=middle;spacingBottom=0;spacingLeft=16;resizeWidth=1;fontColor=#0645AD;" parent="P565BMBygYdm6OfglMrN-36" vertex="1">
          <mxGeometry width="530" height="20" relative="1" as="geometry">
            <mxPoint y="59" as="offset" />
          </mxGeometry>
        </mxCell>
        <mxCell id="P565BMBygYdm6OfglMrN-38" value="Description:&#xa;&#xa;&#xa;Originating Org:&#xa;&#xa;Hold Type:&#xa;&#xa;Hold Expiration:&#xa;&#xa;Responsive Systems:&#xa;&#xa;Data Classification:&#xa;&#xa;Scope:&#xa;&#xa;PII Eligible:&#xa;&#xa;PII Type:&#xa;&#xa;?????:&#xa;&#xa;IMO Assigned:&#xa;" style="text;whiteSpace=wrap;fontSize=13;spacing=16;spacingTop=-4;resizeWidth=1;resizeHeight=1;fontStyle=1" parent="P565BMBygYdm6OfglMrN-36" vertex="1">
          <mxGeometry width="170" height="333.33" relative="1" as="geometry">
            <mxPoint x="5" y="80" as="offset" />
          </mxGeometry>
        </mxCell>
        <mxCell id="P565BMBygYdm6OfglMrN-39" value="Assign" style="shape=rect;strokeColor=#666666;fontColor=#333333;fontStyle=1;shadow=1;rounded=1;fillColor=#F8F9FA;" parent="P565BMBygYdm6OfglMrN-36" vertex="1">
          <mxGeometry y="1" width="70" height="40" relative="1" as="geometry">
            <mxPoint x="8" y="-48" as="offset" />
          </mxGeometry>
        </mxCell>
        <mxCell id="P565BMBygYdm6OfglMrN-40" value="Review" style="shape=rect;strokeColor=#666666;fontColor=#333333;fontStyle=1;shadow=1;sketch=0;rounded=1;fillColor=#F8F9FA;" parent="P565BMBygYdm6OfglMrN-36" vertex="1">
          <mxGeometry y="1" width="70" height="40" relative="1" as="geometry">
            <mxPoint x="86" y="-48" as="offset" />
          </mxGeometry>
        </mxCell>
        <mxCell id="P565BMBygYdm6OfglMrN-41" value="&amp;lt;Classification Here&amp;gt;" style="rounded=0;whiteSpace=wrap;html=1;shadow=0;sketch=0;fontSize=12;align=center;fillColor=#FFFF33;" parent="P565BMBygYdm6OfglMrN-36" vertex="1">
          <mxGeometry y="0.6296296296296298" width="530" height="18.51851851851852" as="geometry" />
        </mxCell>
        <mxCell id="P565BMBygYdm6OfglMrN-42" value="This hold was created in response to _________.  It contains objects responsive the search criteria defined within _________." style="text;whiteSpace=wrap;fontSize=10;spacing=16;spacingTop=-4;resizeWidth=1;resizeHeight=1;" parent="P565BMBygYdm6OfglMrN-36" vertex="1">
          <mxGeometry x="152.8846153846154" y="74.07407407407408" width="336.3461538461539" height="55.55555555555556" as="geometry" />
        </mxCell>
        <mxCell id="P565BMBygYdm6OfglMrN-43" value="PPP/QQQ/RRR/ZZZ&#xa;" style="text;whiteSpace=wrap;fontSize=10;spacing=16;spacingTop=-4;resizeWidth=1;resizeHeight=1;" parent="P565BMBygYdm6OfglMrN-36" vertex="1">
          <mxGeometry x="152.8846153846154" y="128.63037037037037" width="336.3461538461539" height="37.03703703703704" as="geometry" />
        </mxCell>
        <mxCell id="P565BMBygYdm6OfglMrN-44" value="FOIA" style="text;whiteSpace=wrap;fontSize=10;spacing=16;spacingTop=-4;resizeWidth=1;resizeHeight=1;" parent="P565BMBygYdm6OfglMrN-36" vertex="1">
          <mxGeometry x="152.8846153846154" y="157.40814814814814" width="336.3461538461539" height="37.03703703703704" as="geometry" />
        </mxCell>
        <mxCell id="P565BMBygYdm6OfglMrN-45" value="February 21, 2023" style="text;whiteSpace=wrap;fontSize=10;spacing=16;spacingTop=-4;resizeWidth=1;resizeHeight=1;" parent="P565BMBygYdm6OfglMrN-36" vertex="1">
          <mxGeometry x="152.8846153846154" y="189.99592592592592" width="336.3461538461539" height="37.03703703703704" as="geometry" />
        </mxCell>
        <mxCell id="P565BMBygYdm6OfglMrN-46" value="System X, System Y, System Z" style="text;whiteSpace=wrap;fontSize=10;spacing=16;spacingTop=-4;resizeWidth=1;resizeHeight=1;" parent="P565BMBygYdm6OfglMrN-36" vertex="1">
          <mxGeometry x="152.8846153846154" y="220.0037037037037" width="336.3461538461539" height="37.03703703703704" as="geometry" />
        </mxCell>
        <mxCell id="P565BMBygYdm6OfglMrN-47" value="Spooky" style="text;whiteSpace=wrap;fontSize=10;spacing=16;spacingTop=-4;resizeWidth=1;resizeHeight=1;" parent="P565BMBygYdm6OfglMrN-36" vertex="1">
          <mxGeometry x="152.8846153846154" y="250.0014814814815" width="336.3461538461539" height="37.03703703703704" as="geometry" />
        </mxCell>
        <mxCell id="P565BMBygYdm6OfglMrN-48" value="All responsive objects based on queries defined in the query page." style="text;whiteSpace=wrap;fontSize=10;spacing=16;spacingTop=-4;resizeWidth=1;resizeHeight=1;fontStyle=0" parent="P565BMBygYdm6OfglMrN-36" vertex="1">
          <mxGeometry x="152.8846153846154" y="279.99925925925925" width="336.3461538461539" height="37.03703703703704" as="geometry" />
        </mxCell>
        <mxCell id="P565BMBygYdm6OfglMrN-49" value="Yes" style="text;whiteSpace=wrap;fontSize=10;spacing=16;spacingTop=-4;resizeWidth=1;resizeHeight=1;" parent="P565BMBygYdm6OfglMrN-36" vertex="1">
          <mxGeometry x="152.8846153846154" y="309.99703703703705" width="336.3461538461539" height="37.03703703703704" as="geometry" />
        </mxCell>
        <mxCell id="P565BMBygYdm6OfglMrN-50" value="US Persons" style="text;whiteSpace=wrap;fontSize=10;spacing=16;spacingTop=-4;resizeWidth=1;resizeHeight=1;" parent="P565BMBygYdm6OfglMrN-36" vertex="1">
          <mxGeometry x="152.8846153846154" y="340.00481481481484" width="336.3461538461539" height="37.03703703703704" as="geometry" />
        </mxCell>
        <mxCell id="P565BMBygYdm6OfglMrN-51" value="Other data here????" style="text;whiteSpace=wrap;fontSize=10;spacing=16;spacingTop=-4;resizeWidth=1;resizeHeight=1;" parent="P565BMBygYdm6OfglMrN-36" vertex="1">
          <mxGeometry x="152.8846153846154" y="370.00259259259263" width="336.3461538461539" height="37.03703703703704" as="geometry" />
        </mxCell>
        <mxCell id="P565BMBygYdm6OfglMrN-52" value="Cindy-Luo Who" style="text;whiteSpace=wrap;fontSize=10;spacing=16;spacingTop=-4;resizeWidth=1;resizeHeight=1;" parent="P565BMBygYdm6OfglMrN-36" vertex="1">
          <mxGeometry x="152.8846153846154" y="400.0025925925927" width="336.3461538461539" height="37.03703703703704" as="geometry" />
        </mxCell>
        <mxCell id="P565BMBygYdm6OfglMrN-53" value="" style="shape=ellipse;dashed=0;strokeColor=none;shadow=1;fontSize=13;align=center;verticalAlign=top;labelPosition=center;verticalLabelPosition=bottom;html=1;aspect=fixed;fillColor=#F8F9FA;" parent="P565BMBygYdm6OfglMrN-35" vertex="1">
          <mxGeometry x="408.97637795275597" y="30" width="23.95275590551181" height="23.95275590551181" as="geometry" />
        </mxCell>
        <mxCell id="P565BMBygYdm6OfglMrN-54" value="" style="dashed=0;html=1;shape=mxgraph.gmdl.edit;strokeColor=none;fillColor=#737373;shadow=0;" parent="P565BMBygYdm6OfglMrN-53" vertex="1">
          <mxGeometry x="7.699100112485939" y="7.699100112485939" width="8.554555680539933" height="8.554555680539933" as="geometry" />
        </mxCell>
        <mxCell id="P565BMBygYdm6OfglMrN-55" value="" style="shape=ellipse;dashed=0;strokeColor=none;shadow=1;fontSize=13;align=center;verticalAlign=top;labelPosition=center;verticalLabelPosition=bottom;html=1;aspect=fixed;fillColor=#F8F9FA;" parent="P565BMBygYdm6OfglMrN-35" vertex="1">
          <mxGeometry x="498.2834645669294" y="30" width="23.95275590551181" height="23.95275590551181" as="geometry" />
        </mxCell>
        <mxCell id="P565BMBygYdm6OfglMrN-56" value="" style="dashed=0;html=1;shape=mxgraph.gmdl.x;strokeColor=#737373;strokeWidth=2;shadow=0;" parent="P565BMBygYdm6OfglMrN-55" vertex="1">
          <mxGeometry x="8.554555680539933" y="8.554555680539933" width="6.843644544431946" height="6.843644544431946" as="geometry" />
        </mxCell>
        <mxCell id="P565BMBygYdm6OfglMrN-57" value="" style="shape=ellipse;dashed=0;strokeColor=none;shadow=1;fontSize=13;align=center;verticalAlign=top;labelPosition=center;verticalLabelPosition=bottom;html=1;aspect=fixed;rounded=1;sketch=0;fillColor=#F8F9FA;" parent="P565BMBygYdm6OfglMrN-35" vertex="1">
          <mxGeometry x="439.85826771653564" y="30" width="23.95275590551181" height="23.95275590551181" as="geometry" />
        </mxCell>
        <mxCell id="P565BMBygYdm6OfglMrN-58" value="" style="dashed=0;html=1;shape=mxgraph.gmdl.star;strokeColor=none;fillColor=#737373;shadow=0;" parent="P565BMBygYdm6OfglMrN-57" vertex="1">
          <mxGeometry x="7.699100112485939" y="7.699100112485939" width="8.554555680539933" height="8.554555680539933" as="geometry" />
        </mxCell>
        <mxCell id="P565BMBygYdm6OfglMrN-59" value="" style="shape=ellipse;dashed=0;strokeColor=none;shadow=1;fontSize=13;align=center;verticalAlign=top;labelPosition=center;verticalLabelPosition=bottom;html=1;aspect=fixed;rounded=1;sketch=0;fillColor=#F8F9FA;" parent="P565BMBygYdm6OfglMrN-35" vertex="1">
          <mxGeometry x="469.0708661417325" y="30" width="23.95275590551181" height="23.95275590551181" as="geometry" />
        </mxCell>
        <mxCell id="P565BMBygYdm6OfglMrN-60" value="" style="dashed=0;html=1;shape=mxgraph.gmdl.cloud;strokeColor=none;fillColor=#737373;shadow=0;" parent="P565BMBygYdm6OfglMrN-59" vertex="1">
          <mxGeometry x="6.843644544431946" y="8.554555680539933" width="10.265466816647919" height="6.843644544431946" as="geometry" />
        </mxCell>
        <mxCell id="P565BMBygYdm6OfglMrN-61" value="Fav:" style="text;html=1;strokeColor=none;fillColor=none;align=center;verticalAlign=middle;whiteSpace=wrap;rounded=0;shadow=0;sketch=0;fontSize=10;fontColor=#FFFFFF;" parent="P565BMBygYdm6OfglMrN-1" vertex="1">
          <mxGeometry x="481" y="208" width="40" height="20" as="geometry" />
        </mxCell>
        <mxCell id="P565BMBygYdm6OfglMrN-62" value="" style="shape=image;html=1;verticalAlign=top;verticalLabelPosition=bottom;labelBackgroundColor=#ffffff;imageAspect=0;aspect=fixed;image=https://cdn2.iconfinder.com/data/icons/font-awesome/1792/sort-alpha-asc-128.png;rounded=1;shadow=1;sketch=0;strokeColor=#000000;fillColor=#4285F4;fontSize=11;align=left;fontColor=#97D077;" parent="P565BMBygYdm6OfglMrN-1" vertex="1">
          <mxGeometry x="464" y="211" width="15" height="15" as="geometry" />
        </mxCell>
        <mxCell id="P565BMBygYdm6OfglMrN-63" value="" style="fillColor=#36B37E;strokeColor=none;rounded=1;arcSize=50;shadow=1;sketch=0;fontSize=11;fontColor=#FFFFFF;align=left;" parent="P565BMBygYdm6OfglMrN-1" vertex="1">
          <mxGeometry x="515" y="211" width="30" height="16" as="geometry" />
        </mxCell>
        <mxCell id="P565BMBygYdm6OfglMrN-64" value="Date Range" style="rounded=1;fillColor=#F1F2F4;strokeColor=none;html=1;fontColor=#596780;align=left;fontSize=12;spacingLeft=10;shadow=0;sketch=0;" parent="P565BMBygYdm6OfglMrN-1" vertex="1">
          <mxGeometry x="35" y="290" width="230" height="30" as="geometry" />
        </mxCell>
        <mxCell id="P565BMBygYdm6OfglMrN-65" value="" style="shape=triangle;direction=south;fillColor=#596780;strokeColor=none;html=1" parent="P565BMBygYdm6OfglMrN-64" vertex="1">
          <mxGeometry x="1" y="0.5" width="12" height="6" relative="1" as="geometry">
            <mxPoint x="-20" y="-3" as="offset" />
          </mxGeometry>
        </mxCell>
        <mxCell id="P565BMBygYdm6OfglMrN-66" value="Hold Type" style="rounded=1;fillColor=#F1F2F4;strokeColor=none;html=1;fontColor=#596780;align=left;fontSize=12;spacingLeft=10;shadow=0;sketch=0;" parent="P565BMBygYdm6OfglMrN-1" vertex="1">
          <mxGeometry x="35" y="240" width="230" height="30" as="geometry" />
        </mxCell>
        <mxCell id="P565BMBygYdm6OfglMrN-67" value="" style="shape=triangle;direction=south;fillColor=#596780;strokeColor=none;html=1" parent="P565BMBygYdm6OfglMrN-66" vertex="1">
          <mxGeometry x="1" y="0.5" width="12" height="6" relative="1" as="geometry">
            <mxPoint x="-20" y="-3" as="offset" />
          </mxGeometry>
        </mxCell>
        <mxCell id="P565BMBygYdm6OfglMrN-68" value="Responsive Systems" style="rounded=1;fillColor=#F1F2F4;strokeColor=none;html=1;fontColor=#596780;align=left;fontSize=12;spacingLeft=10;shadow=0;sketch=0;" parent="P565BMBygYdm6OfglMrN-1" vertex="1">
          <mxGeometry x="35" y="340" width="230" height="30" as="geometry" />
        </mxCell>
        <mxCell id="P565BMBygYdm6OfglMrN-69" value="" style="shape=triangle;direction=south;fillColor=#596780;strokeColor=none;html=1" parent="P565BMBygYdm6OfglMrN-68" vertex="1">
          <mxGeometry x="1" y="0.5" width="12" height="6" relative="1" as="geometry">
            <mxPoint x="-20" y="-3" as="offset" />
          </mxGeometry>
        </mxCell>
        <mxCell id="P565BMBygYdm6OfglMrN-70" value="PII Eligible" style="rounded=1;fillColor=#F1F2F4;strokeColor=none;html=1;fontColor=#596780;align=left;fontSize=12;spacingLeft=10;shadow=0;sketch=0;" parent="P565BMBygYdm6OfglMrN-1" vertex="1">
          <mxGeometry x="35" y="389" width="230" height="30" as="geometry" />
        </mxCell>
        <mxCell id="P565BMBygYdm6OfglMrN-71" value="" style="shape=triangle;direction=south;fillColor=#596780;strokeColor=none;html=1" parent="P565BMBygYdm6OfglMrN-70" vertex="1">
          <mxGeometry x="1" y="0.5" width="12" height="6" relative="1" as="geometry">
            <mxPoint x="-20" y="-3" as="offset" />
          </mxGeometry>
        </mxCell>
        <mxCell id="P565BMBygYdm6OfglMrN-72" value="PII Type" style="rounded=1;fillColor=#F1F2F4;strokeColor=none;html=1;fontColor=#596780;align=left;fontSize=12;spacingLeft=10;shadow=0;sketch=0;" parent="P565BMBygYdm6OfglMrN-1" vertex="1">
          <mxGeometry x="35" y="434" width="230" height="30" as="geometry" />
        </mxCell>
        <mxCell id="P565BMBygYdm6OfglMrN-73" value="" style="shape=triangle;direction=south;fillColor=#596780;strokeColor=none;html=1" parent="P565BMBygYdm6OfglMrN-72" vertex="1">
          <mxGeometry x="1" y="0.5" width="12" height="6" relative="1" as="geometry">
            <mxPoint x="-20" y="-3" as="offset" />
          </mxGeometry>
        </mxCell>
        <mxCell id="P565BMBygYdm6OfglMrN-74" value="&lt;font color=&quot;#000000&quot; style=&quot;font-size: 11px&quot;&gt;Originating Organization&lt;br&gt;&lt;/font&gt;" style="text;html=1;strokeColor=none;fillColor=none;align=left;verticalAlign=middle;whiteSpace=wrap;rounded=0;shadow=0;sketch=0;fontSize=11;fontColor=#0645AD;" parent="P565BMBygYdm6OfglMrN-1" vertex="1">
          <mxGeometry x="22.5" y="490" width="179" height="20" as="geometry" />
        </mxCell>
        <mxCell id="P565BMBygYdm6OfglMrN-75" value="Level 4" style="rounded=1;fillColor=#F1F2F4;strokeColor=none;html=1;fontColor=#596780;align=left;fontSize=12;spacingLeft=10;shadow=0;sketch=0;" parent="P565BMBygYdm6OfglMrN-1" vertex="1">
          <mxGeometry x="35.0000000000001" y="627" width="80" height="30" as="geometry" />
        </mxCell>
        <mxCell id="P565BMBygYdm6OfglMrN-76" value="" style="shape=triangle;direction=south;fillColor=#596780;strokeColor=none;html=1" parent="P565BMBygYdm6OfglMrN-75" vertex="1">
          <mxGeometry x="1" y="0.5" width="12" height="6" relative="1" as="geometry">
            <mxPoint x="-20" y="-3" as="offset" />
          </mxGeometry>
        </mxCell>
        <mxCell id="P565BMBygYdm6OfglMrN-77" value="Level 5" style="rounded=1;fillColor=#F1F2F4;strokeColor=none;html=1;fontColor=#596780;align=left;fontSize=12;spacingLeft=10;shadow=0;sketch=0;" parent="P565BMBygYdm6OfglMrN-1" vertex="1">
          <mxGeometry x="35.00000000000004" y="669" width="80" height="30" as="geometry" />
        </mxCell>
        <mxCell id="P565BMBygYdm6OfglMrN-78" value="" style="shape=triangle;direction=south;fillColor=#596780;strokeColor=none;html=1" parent="P565BMBygYdm6OfglMrN-77" vertex="1">
          <mxGeometry x="1" y="0.5" width="12" height="6" relative="1" as="geometry">
            <mxPoint x="-20" y="-3" as="offset" />
          </mxGeometry>
        </mxCell>
        <mxCell id="P565BMBygYdm6OfglMrN-79" value="Level 1" style="rounded=1;fillColor=#F1F2F4;strokeColor=none;html=1;fontColor=#596780;align=left;fontSize=12;spacingLeft=10;shadow=0;sketch=0;" parent="P565BMBygYdm6OfglMrN-1" vertex="1">
          <mxGeometry x="35.000000000000114" y="513.5" width="80" height="30" as="geometry" />
        </mxCell>
        <mxCell id="P565BMBygYdm6OfglMrN-80" value="" style="shape=triangle;direction=south;fillColor=#596780;strokeColor=none;html=1" parent="P565BMBygYdm6OfglMrN-79" vertex="1">
          <mxGeometry x="1" y="0.5" width="12" height="6" relative="1" as="geometry">
            <mxPoint x="-20" y="-3" as="offset" />
          </mxGeometry>
        </mxCell>
        <mxCell id="P565BMBygYdm6OfglMrN-81" value="Level 2" style="rounded=1;fillColor=#F1F2F4;strokeColor=none;html=1;fontColor=#596780;align=left;fontSize=12;spacingLeft=10;shadow=0;sketch=0;" parent="P565BMBygYdm6OfglMrN-1" vertex="1">
          <mxGeometry x="35.000000000000114" y="549" width="80" height="30" as="geometry" />
        </mxCell>
        <mxCell id="P565BMBygYdm6OfglMrN-82" value="" style="shape=triangle;direction=south;fillColor=#596780;strokeColor=none;html=1" parent="P565BMBygYdm6OfglMrN-81" vertex="1">
          <mxGeometry x="1" y="0.5" width="12" height="6" relative="1" as="geometry">
            <mxPoint x="-20" y="-3" as="offset" />
          </mxGeometry>
        </mxCell>
        <mxCell id="P565BMBygYdm6OfglMrN-83" value="Filter" style="html=1;shadow=0;dashed=0;shape=mxgraph.bootstrap.rrect;rSize=5;fillColor=#0085FC;strokeColor=none;fontColor=#FFFFFF;fontSize=14;" parent="P565BMBygYdm6OfglMrN-1" vertex="1">
          <mxGeometry x="105.5" y="820" width="91" height="40" as="geometry" />
        </mxCell>
        <mxCell id="P565BMBygYdm6OfglMrN-84" value="Cancel" style="html=1;shadow=0;dashed=0;shape=mxgraph.bootstrap.rrect;rSize=5;fillColor=#6C757D;strokeColor=none;fontColor=#FFFFFF;fontSize=14;" parent="P565BMBygYdm6OfglMrN-1" vertex="1">
          <mxGeometry x="201" y="820" width="70" height="40" as="geometry" />
        </mxCell>
        <mxCell id="P565BMBygYdm6OfglMrN-85" value="&lt;font color=&quot;#666666&quot; style=&quot;font-size: 16px;&quot;&gt;Filter&lt;/font&gt;" style="text;strokeColor=none;fillColor=none;html=1;fontSize=16;fontStyle=1;verticalAlign=middle;align=center;labelBackgroundColor=none;sketch=0;" parent="P565BMBygYdm6OfglMrN-1" vertex="1">
          <mxGeometry x="15" y="197" width="77" height="32" as="geometry" />
        </mxCell>
        <mxCell id="P565BMBygYdm6OfglMrN-86" value="Level 3" style="rounded=1;fillColor=#F1F2F4;strokeColor=none;html=1;fontColor=#596780;align=left;fontSize=12;spacingLeft=10;shadow=0;sketch=0;" parent="P565BMBygYdm6OfglMrN-1" vertex="1">
          <mxGeometry x="35.000000000000114" y="588" width="80" height="30" as="geometry" />
        </mxCell>
        <mxCell id="P565BMBygYdm6OfglMrN-87" value="" style="shape=triangle;direction=south;fillColor=#596780;strokeColor=none;html=1" parent="P565BMBygYdm6OfglMrN-86" vertex="1">
          <mxGeometry x="1" y="0.5" width="12" height="6" relative="1" as="geometry">
            <mxPoint x="-20" y="-3" as="offset" />
          </mxGeometry>
        </mxCell>
        <mxCell id="P565BMBygYdm6OfglMrN-88" value="" style="line;strokeWidth=1;fillColor=none;align=left;verticalAlign=middle;spacingTop=-1;spacingLeft=3;spacingRight=3;rotatable=0;labelPosition=right;points=[];portConstraint=eastwest;strokeColor=#E6E6E6;" parent="P565BMBygYdm6OfglMrN-1" vertex="1">
          <mxGeometry x="16" y="808" width="259" height="8" as="geometry" />
        </mxCell>
        <mxCell id="P565BMBygYdm6OfglMrN-89" value="" style="rounded=0;whiteSpace=wrap;html=1;fillColor=#3333FF;" parent="P565BMBygYdm6OfglMrN-1" vertex="1">
          <mxGeometry x="17" y="-820" width="1069" height="60" as="geometry" />
        </mxCell>
        <mxCell id="P565BMBygYdm6OfglMrN-90" value="&lt;font style=&quot;font-size: 14px&quot;&gt;FEEDBACK&lt;/font&gt;" style="rounded=1;whiteSpace=wrap;html=1;fillColor=#FF8000;strokeColor=#FF8000;fontColor=#FFFFFF;" parent="P565BMBygYdm6OfglMrN-1" vertex="1">
          <mxGeometry x="954" y="-810" width="120" height="40" as="geometry" />
        </mxCell>
        <mxCell id="P565BMBygYdm6OfglMrN-91" value="" style="shape=image;html=1;verticalAlign=top;verticalLabelPosition=bottom;labelBackgroundColor=#ffffff;imageAspect=0;aspect=fixed;image=https://cdn3.iconfinder.com/data/icons/social-media-2125/78/bell-128.png;strokeColor=#FF8000;fillColor=#FF8000;fontColor=#FFFFFF;" parent="P565BMBygYdm6OfglMrN-1" vertex="1">
          <mxGeometry x="892" y="-810" width="37" height="37" as="geometry" />
        </mxCell>
        <mxCell id="P565BMBygYdm6OfglMrN-92" value="" style="whiteSpace=wrap;html=1;shape=mxgraph.basic.octagon2;align=center;verticalAlign=middle;dx=12;shadow=0;sketch=0;fontSize=20;fontColor=#808080;fillColor=#FF8000;strokeColor=#FF8000;" parent="P565BMBygYdm6OfglMrN-1" vertex="1">
          <mxGeometry x="27" y="-813.5" width="56" height="42" as="geometry" />
        </mxCell>
        <mxCell id="P565BMBygYdm6OfglMrN-93" value="Eva" style="text;html=1;strokeColor=none;fillColor=none;align=center;verticalAlign=middle;whiteSpace=wrap;rounded=0;shadow=0;sketch=0;fontSize=20;fontColor=#FFFFFF;fontStyle=1" parent="P565BMBygYdm6OfglMrN-1" vertex="1">
          <mxGeometry x="93" y="-800" width="40" height="20" as="geometry" />
        </mxCell>
        <mxCell id="P565BMBygYdm6OfglMrN-94" value="" style="html=1;verticalLabelPosition=bottom;align=center;labelBackgroundColor=#ffffff;verticalAlign=top;strokeWidth=2;shadow=0;dashed=0;shape=mxgraph.ios7.icons.user;sketch=0;fontSize=20;fontColor=#FFFFFF;fillColor=#FFFFFF;" parent="P565BMBygYdm6OfglMrN-1" vertex="1">
          <mxGeometry x="740" y="-805" width="30" height="30" as="geometry" />
        </mxCell>
        <mxCell id="P565BMBygYdm6OfglMrN-95" value="John Doe" style="text;html=1;strokeColor=none;fillColor=none;align=center;verticalAlign=middle;whiteSpace=wrap;rounded=0;shadow=0;sketch=0;fontSize=19;fontColor=#FFFFFF;" parent="P565BMBygYdm6OfglMrN-1" vertex="1">
          <mxGeometry x="783.5" y="-800" width="94" height="20" as="geometry" />
        </mxCell>
        <mxCell id="P565BMBygYdm6OfglMrN-96" value="&amp;lt;Classification Here&amp;gt;" style="rounded=0;whiteSpace=wrap;html=1;shadow=0;sketch=0;fontSize=12;align=center;fillColor=#FFFF33;" parent="P565BMBygYdm6OfglMrN-1" vertex="1">
          <mxGeometry x="17" y="-840" width="1069" height="20" as="geometry" />
        </mxCell>
        <mxCell id="P565BMBygYdm6OfglMrN-97" value="" style="line;strokeWidth=1;fillColor=none;align=left;verticalAlign=middle;spacingTop=-1;spacingLeft=3;spacingRight=3;rotatable=0;labelPosition=right;points=[];portConstraint=eastwest;sketch=0;direction=south;" parent="P565BMBygYdm6OfglMrN-1" vertex="1">
          <mxGeometry x="40" y="-681" width="8" height="671" as="geometry" />
        </mxCell>
        <mxCell id="P565BMBygYdm6OfglMrN-98" value="" style="group;labelBackgroundColor=#ffffff;" parent="P565BMBygYdm6OfglMrN-1" connectable="0" vertex="1">
          <mxGeometry x="310" y="-749" width="555" height="60" as="geometry" />
        </mxCell>
        <mxCell id="P565BMBygYdm6OfglMrN-99" value="" style="html=1;shadow=0;dashed=0;fillColor=#F8F9FA;strokeColor=none;fontSize=16;fontColor=#181819;align=left;spacing=15;" parent="P565BMBygYdm6OfglMrN-98" vertex="1">
          <mxGeometry width="555" height="60" as="geometry" />
        </mxCell>
        <mxCell id="P565BMBygYdm6OfglMrN-100" value="Search" style="html=1;shadow=0;dashed=0;shape=mxgraph.bootstrap.rrect;rSize=5;fontSize=14;fontColor=#6C767D;strokeColor=#CED4DA;fillColor=#ffffff;align=left;spacing=10;" parent="P565BMBygYdm6OfglMrN-99" vertex="1">
          <mxGeometry width="470" height="40" relative="1" as="geometry">
            <mxPoint x="10" y="10" as="offset" />
          </mxGeometry>
        </mxCell>
        <mxCell id="P565BMBygYdm6OfglMrN-101" value="" style="ellipse;whiteSpace=wrap;html=1;fillColor=#FFFFFF;" parent="P565BMBygYdm6OfglMrN-99" vertex="1">
          <mxGeometry x="425.67961165048536" y="22" width="10.776699029126211" height="10" as="geometry" />
        </mxCell>
        <mxCell id="P565BMBygYdm6OfglMrN-102" value="" style="endArrow=none;html=1;" parent="P565BMBygYdm6OfglMrN-99" edge="1">
          <mxGeometry width="50" height="50" relative="1" as="geometry">
            <mxPoint x="436.4563106796116" y="32" as="sourcePoint" />
            <mxPoint x="436.4563106796116" y="32" as="targetPoint" />
            <Array as="points">
              <mxPoint x="447.23300970873777" y="40" />
            </Array>
          </mxGeometry>
        </mxCell>
        <mxCell id="P565BMBygYdm6OfglMrN-103" value="" style="triangle;whiteSpace=wrap;html=1;rotation=90;fillColor=#000000;" parent="P565BMBygYdm6OfglMrN-99" vertex="1">
          <mxGeometry x="458.00970873786395" y="25" width="10.776699029126211" height="10" as="geometry" />
        </mxCell>
        <mxCell id="P565BMBygYdm6OfglMrN-104" value="" style="shape=ellipse;dashed=0;strokeColor=none;shadow=1;fontSize=13;align=center;verticalAlign=top;labelPosition=center;verticalLabelPosition=bottom;html=1;aspect=fixed;" parent="P565BMBygYdm6OfglMrN-98" vertex="1">
          <mxGeometry x="492.5" y="10" width="40" height="40" as="geometry" />
        </mxCell>
        <mxCell id="P565BMBygYdm6OfglMrN-105" value="" style="dashed=0;html=1;shape=mxgraph.gmdl.plus;strokeColor=#737373;strokeWidth=2;shadow=0;" parent="P565BMBygYdm6OfglMrN-104" vertex="1">
          <mxGeometry x="12" y="12" width="16" height="16" as="geometry" />
        </mxCell>
        <mxCell id="P565BMBygYdm6OfglMrN-106" value="" style="line;strokeWidth=1;fillColor=none;align=left;verticalAlign=middle;spacingTop=-1;spacingLeft=3;spacingRight=3;rotatable=0;labelPosition=right;points=[];portConstraint=eastwest;sketch=0;direction=west;" parent="P565BMBygYdm6OfglMrN-1" vertex="1">
          <mxGeometry x="19" y="-686" width="1067" height="8" as="geometry" />
        </mxCell>
        <mxCell id="P565BMBygYdm6OfglMrN-107" value="" style="line;strokeWidth=1;fillColor=none;align=left;verticalAlign=middle;spacingTop=-1;spacingLeft=3;spacingRight=3;rotatable=0;labelPosition=right;points=[];portConstraint=eastwest;sketch=0;direction=south;" parent="P565BMBygYdm6OfglMrN-1" vertex="1">
          <mxGeometry x="335" y="-680" width="8" height="670" as="geometry" />
        </mxCell>
        <mxCell id="P565BMBygYdm6OfglMrN-108" value="" style="rounded=0;whiteSpace=wrap;html=1;fontSize=20;align=left;fillColor=#3333FF;" parent="P565BMBygYdm6OfglMrN-1" vertex="1">
          <mxGeometry x="44" y="-680" width="276" height="40" as="geometry" />
        </mxCell>
        <mxCell id="P565BMBygYdm6OfglMrN-109" value="" style="html=1;shadow=0;dashed=0;shape=mxgraph.bootstrap.rrect;rSize=5;strokeColor=#DFDFDF;html=1;whiteSpace=wrap;fillColor=#FFFFFF;fontColor=#495057;" parent="P565BMBygYdm6OfglMrN-1" vertex="1">
          <mxGeometry x="47" y="-638" width="260" height="300" as="geometry" />
        </mxCell>
        <mxCell id="P565BMBygYdm6OfglMrN-110" value="&lt;font style=&quot;font-size: 16px&quot;&gt;Hold Title #1&lt;/font&gt;&lt;br&gt;Guide: 123456/1258d25s8f22f&lt;br&gt;other data goes here" style="html=1;shadow=0;dashed=0;shape=mxgraph.bootstrap.topButton;rSize=5;perimeter=none;whiteSpace=wrap;resizeWidth=1;align=left;spacing=10;verticalAlign=top;fillColor=#0085FC;strokeColor=#0085FC;fontColor=#ffffff;" parent="P565BMBygYdm6OfglMrN-109" vertex="1">
          <mxGeometry width="260" height="100" relative="1" as="geometry" />
        </mxCell>
        <mxCell id="P565BMBygYdm6OfglMrN-111" value="&lt;font style=&quot;font-size: 16px&quot;&gt;Hold Title #2&lt;/font&gt;&lt;br&gt;Guide: 185576/58d6s8dd222dgf8&lt;br&gt;Other data goes here&lt;br&gt;&lt;br&gt;" style="strokeColor=inherit;fillColor=inherit;gradientColor=inherit;fontColor=inherit;html=1;shadow=0;dashed=0;perimeter=none;whiteSpace=wrap;resizeWidth=1;align=left;spacing=10;" parent="P565BMBygYdm6OfglMrN-109" vertex="1">
          <mxGeometry width="260" height="100" relative="1" as="geometry">
            <mxPoint y="100" as="offset" />
          </mxGeometry>
        </mxCell>
        <mxCell id="P565BMBygYdm6OfglMrN-112" value="&lt;font style=&quot;font-size: 16px&quot;&gt;Hold Title #3&lt;/font&gt;&lt;br&gt;Guide: 123456/88d55s6c8fs6&lt;br&gt;other data goes here&lt;br&gt;&lt;br&gt;" style="strokeColor=inherit;fillColor=inherit;gradientColor=inherit;fontColor=inherit;html=1;shadow=0;dashed=0;shape=mxgraph.bootstrap.bottomButton;rSize=5;perimeter=none;whiteSpace=wrap;resizeWidth=1;resizeHeight=0;align=left;spacing=10;" parent="P565BMBygYdm6OfglMrN-109" vertex="1">
          <mxGeometry y="1" width="260" height="100" relative="1" as="geometry">
            <mxPoint y="-100" as="offset" />
          </mxGeometry>
        </mxCell>
        <mxCell id="P565BMBygYdm6OfglMrN-113" value="Holds" style="text;html=1;strokeColor=none;fillColor=none;align=left;verticalAlign=middle;whiteSpace=wrap;rounded=0;labelPosition=center;verticalLabelPosition=middle;fontSize=16;fontStyle=1;fontColor=#FFFFFF;" parent="P565BMBygYdm6OfglMrN-1" vertex="1">
          <mxGeometry x="51" y="-670" width="258" height="20" as="geometry" />
        </mxCell>
        <mxCell id="P565BMBygYdm6OfglMrN-114" value="" style="html=1;verticalLabelPosition=bottom;labelBackgroundColor=#ffffff;verticalAlign=top;shadow=0;dashed=0;strokeWidth=2;shape=mxgraph.ios7.misc.scroll_(vertical);fillColor=#a0a0a0;sketch=0;" parent="P565BMBygYdm6OfglMrN-1" vertex="1">
          <mxGeometry x="312" y="-631" width="6" height="80" as="geometry" />
        </mxCell>
        <mxCell id="P565BMBygYdm6OfglMrN-115" value="" style="group" parent="P565BMBygYdm6OfglMrN-1" connectable="0" vertex="1">
          <mxGeometry x="350" y="-675" width="530" height="500" as="geometry" />
        </mxCell>
        <mxCell id="P565BMBygYdm6OfglMrN-116" value="Hold Title #1" style="shape=rect;fillColor=#ffffff;strokeColor=#eeeeee;shadow=1;fontColor=#000000;fontSize=23;fontStyle=0;verticalAlign=top;spacingBottom=0;spacingLeft=16;spacingTop=20;align=left;rounded=0;" parent="P565BMBygYdm6OfglMrN-115" vertex="1">
          <mxGeometry width="530" height="500" as="geometry" />
        </mxCell>
        <mxCell id="P565BMBygYdm6OfglMrN-117" value="Guide: 123456/1258d25s8f22f" style="text;fontSize=12;fontStyle=4;verticalAlign=middle;spacingBottom=0;spacingLeft=16;resizeWidth=1;fontColor=#0645AD;" parent="P565BMBygYdm6OfglMrN-116" vertex="1">
          <mxGeometry width="530" height="20" relative="1" as="geometry">
            <mxPoint y="59" as="offset" />
          </mxGeometry>
        </mxCell>
        <mxCell id="P565BMBygYdm6OfglMrN-118" value="Description:&#xa;&#xa;&#xa;Originating Org:&#xa;&#xa;Hold Type:&#xa;&#xa;Hold Expiration:&#xa;&#xa;Responsive Systems:&#xa;&#xa;Data Classification:&#xa;&#xa;Scope:&#xa;&#xa;PII Eligible:&#xa;&#xa;PII Type:&#xa;&#xa;?????:&#xa;&#xa;IMO Assigned:&#xa;" style="text;whiteSpace=wrap;fontSize=13;spacing=16;spacingTop=-4;resizeWidth=1;resizeHeight=1;fontStyle=1" parent="P565BMBygYdm6OfglMrN-116" vertex="1">
          <mxGeometry width="170" height="333.33" relative="1" as="geometry">
            <mxPoint x="5" y="80" as="offset" />
          </mxGeometry>
        </mxCell>
        <mxCell id="P565BMBygYdm6OfglMrN-119" value="Assign" style="shape=rect;strokeColor=#666666;fontColor=#333333;fontStyle=1;shadow=1;rounded=1;fillColor=#F8F9FA;" parent="P565BMBygYdm6OfglMrN-116" vertex="1">
          <mxGeometry y="1" width="70" height="40" relative="1" as="geometry">
            <mxPoint x="8" y="-48" as="offset" />
          </mxGeometry>
        </mxCell>
        <mxCell id="P565BMBygYdm6OfglMrN-120" value="Review" style="shape=rect;strokeColor=#666666;fontColor=#333333;fontStyle=1;shadow=1;sketch=0;rounded=1;fillColor=#F8F9FA;" parent="P565BMBygYdm6OfglMrN-116" vertex="1">
          <mxGeometry y="1" width="70" height="40" relative="1" as="geometry">
            <mxPoint x="86" y="-48" as="offset" />
          </mxGeometry>
        </mxCell>
        <mxCell id="P565BMBygYdm6OfglMrN-121" value="&amp;lt;Classification Here&amp;gt;" style="rounded=0;whiteSpace=wrap;html=1;shadow=0;sketch=0;fontSize=12;align=center;fillColor=#FFFF33;" parent="P565BMBygYdm6OfglMrN-116" vertex="1">
          <mxGeometry y="0.6296296296296298" width="530" height="18.51851851851852" as="geometry" />
        </mxCell>
        <mxCell id="P565BMBygYdm6OfglMrN-122" value="This hold was created in response to _________.  It contains objects responsive the search criteria defined within _________." style="text;whiteSpace=wrap;fontSize=10;spacing=16;spacingTop=-4;resizeWidth=1;resizeHeight=1;" parent="P565BMBygYdm6OfglMrN-116" vertex="1">
          <mxGeometry x="152.8846153846154" y="74.07407407407408" width="336.3461538461539" height="55.55555555555556" as="geometry" />
        </mxCell>
        <mxCell id="P565BMBygYdm6OfglMrN-123" value="PPP/QQQ/RRR/ZZZ&#xa;" style="text;whiteSpace=wrap;fontSize=10;spacing=16;spacingTop=-4;resizeWidth=1;resizeHeight=1;" parent="P565BMBygYdm6OfglMrN-116" vertex="1">
          <mxGeometry x="152.8846153846154" y="128.63037037037037" width="336.3461538461539" height="37.03703703703704" as="geometry" />
        </mxCell>
        <mxCell id="P565BMBygYdm6OfglMrN-124" value="FOIA" style="text;whiteSpace=wrap;fontSize=10;spacing=16;spacingTop=-4;resizeWidth=1;resizeHeight=1;" parent="P565BMBygYdm6OfglMrN-116" vertex="1">
          <mxGeometry x="152.8846153846154" y="157.40814814814814" width="336.3461538461539" height="37.03703703703704" as="geometry" />
        </mxCell>
        <mxCell id="P565BMBygYdm6OfglMrN-125" value="February 21, 2023" style="text;whiteSpace=wrap;fontSize=10;spacing=16;spacingTop=-4;resizeWidth=1;resizeHeight=1;" parent="P565BMBygYdm6OfglMrN-116" vertex="1">
          <mxGeometry x="152.8846153846154" y="189.99592592592592" width="336.3461538461539" height="37.03703703703704" as="geometry" />
        </mxCell>
        <mxCell id="P565BMBygYdm6OfglMrN-126" value="System X, System Y, System Z" style="text;whiteSpace=wrap;fontSize=10;spacing=16;spacingTop=-4;resizeWidth=1;resizeHeight=1;" parent="P565BMBygYdm6OfglMrN-116" vertex="1">
          <mxGeometry x="152.8846153846154" y="220.0037037037037" width="336.3461538461539" height="37.03703703703704" as="geometry" />
        </mxCell>
        <mxCell id="P565BMBygYdm6OfglMrN-127" value="Spooky" style="text;whiteSpace=wrap;fontSize=10;spacing=16;spacingTop=-4;resizeWidth=1;resizeHeight=1;" parent="P565BMBygYdm6OfglMrN-116" vertex="1">
          <mxGeometry x="152.8846153846154" y="250.0014814814815" width="336.3461538461539" height="37.03703703703704" as="geometry" />
        </mxCell>
        <mxCell id="P565BMBygYdm6OfglMrN-128" value="All responsive objects based on queries defined in the query page." style="text;whiteSpace=wrap;fontSize=10;spacing=16;spacingTop=-4;resizeWidth=1;resizeHeight=1;fontStyle=0" parent="P565BMBygYdm6OfglMrN-116" vertex="1">
          <mxGeometry x="152.8846153846154" y="279.99925925925925" width="336.3461538461539" height="37.03703703703704" as="geometry" />
        </mxCell>
        <mxCell id="P565BMBygYdm6OfglMrN-129" value="Yes" style="text;whiteSpace=wrap;fontSize=10;spacing=16;spacingTop=-4;resizeWidth=1;resizeHeight=1;" parent="P565BMBygYdm6OfglMrN-116" vertex="1">
          <mxGeometry x="152.8846153846154" y="309.99703703703705" width="336.3461538461539" height="37.03703703703704" as="geometry" />
        </mxCell>
        <mxCell id="P565BMBygYdm6OfglMrN-130" value="US Persons" style="text;whiteSpace=wrap;fontSize=10;spacing=16;spacingTop=-4;resizeWidth=1;resizeHeight=1;" parent="P565BMBygYdm6OfglMrN-116" vertex="1">
          <mxGeometry x="152.8846153846154" y="340.00481481481484" width="336.3461538461539" height="37.03703703703704" as="geometry" />
        </mxCell>
        <mxCell id="P565BMBygYdm6OfglMrN-131" value="Other data here????" style="text;whiteSpace=wrap;fontSize=10;spacing=16;spacingTop=-4;resizeWidth=1;resizeHeight=1;" parent="P565BMBygYdm6OfglMrN-116" vertex="1">
          <mxGeometry x="152.8846153846154" y="370.00259259259263" width="336.3461538461539" height="37.03703703703704" as="geometry" />
        </mxCell>
        <mxCell id="P565BMBygYdm6OfglMrN-132" value="Cindy-Luo Who" style="text;whiteSpace=wrap;fontSize=10;spacing=16;spacingTop=-4;resizeWidth=1;resizeHeight=1;" parent="P565BMBygYdm6OfglMrN-116" vertex="1">
          <mxGeometry x="152.8846153846154" y="400.0025925925927" width="336.3461538461539" height="37.03703703703704" as="geometry" />
        </mxCell>
        <mxCell id="P565BMBygYdm6OfglMrN-133" value="" style="shape=ellipse;dashed=0;strokeColor=none;shadow=1;fontSize=13;align=center;verticalAlign=top;labelPosition=center;verticalLabelPosition=bottom;html=1;aspect=fixed;fillColor=#F8F9FA;" parent="P565BMBygYdm6OfglMrN-115" vertex="1">
          <mxGeometry x="408.97637795275597" y="30" width="23.95275590551181" height="23.95275590551181" as="geometry" />
        </mxCell>
        <mxCell id="P565BMBygYdm6OfglMrN-134" value="" style="dashed=0;html=1;shape=mxgraph.gmdl.edit;strokeColor=none;fillColor=#737373;shadow=0;" parent="P565BMBygYdm6OfglMrN-133" vertex="1">
          <mxGeometry x="7.699100112485939" y="7.699100112485939" width="8.554555680539933" height="8.554555680539933" as="geometry" />
        </mxCell>
        <mxCell id="P565BMBygYdm6OfglMrN-135" value="" style="shape=ellipse;dashed=0;strokeColor=none;shadow=1;fontSize=13;align=center;verticalAlign=top;labelPosition=center;verticalLabelPosition=bottom;html=1;aspect=fixed;fillColor=#F8F9FA;" parent="P565BMBygYdm6OfglMrN-115" vertex="1">
          <mxGeometry x="498.2834645669294" y="30" width="23.95275590551181" height="23.95275590551181" as="geometry" />
        </mxCell>
        <mxCell id="P565BMBygYdm6OfglMrN-136" value="" style="dashed=0;html=1;shape=mxgraph.gmdl.x;strokeColor=#737373;strokeWidth=2;shadow=0;" parent="P565BMBygYdm6OfglMrN-135" vertex="1">
          <mxGeometry x="8.554555680539933" y="8.554555680539933" width="6.843644544431946" height="6.843644544431946" as="geometry" />
        </mxCell>
        <mxCell id="P565BMBygYdm6OfglMrN-137" value="" style="shape=ellipse;dashed=0;strokeColor=none;shadow=1;fontSize=13;align=center;verticalAlign=top;labelPosition=center;verticalLabelPosition=bottom;html=1;aspect=fixed;rounded=1;sketch=0;fillColor=#F8F9FA;" parent="P565BMBygYdm6OfglMrN-115" vertex="1">
          <mxGeometry x="439.85826771653564" y="30" width="23.95275590551181" height="23.95275590551181" as="geometry" />
        </mxCell>
        <mxCell id="P565BMBygYdm6OfglMrN-138" value="" style="dashed=0;html=1;shape=mxgraph.gmdl.star;strokeColor=none;fillColor=#737373;shadow=0;" parent="P565BMBygYdm6OfglMrN-137" vertex="1">
          <mxGeometry x="7.699100112485939" y="7.699100112485939" width="8.554555680539933" height="8.554555680539933" as="geometry" />
        </mxCell>
        <mxCell id="P565BMBygYdm6OfglMrN-139" value="" style="shape=ellipse;dashed=0;strokeColor=none;shadow=1;fontSize=13;align=center;verticalAlign=top;labelPosition=center;verticalLabelPosition=bottom;html=1;aspect=fixed;rounded=1;sketch=0;fillColor=#F8F9FA;" parent="P565BMBygYdm6OfglMrN-115" vertex="1">
          <mxGeometry x="469.0708661417325" y="30" width="23.95275590551181" height="23.95275590551181" as="geometry" />
        </mxCell>
        <mxCell id="P565BMBygYdm6OfglMrN-140" value="" style="dashed=0;html=1;shape=mxgraph.gmdl.cloud;strokeColor=none;fillColor=#737373;shadow=0;" parent="P565BMBygYdm6OfglMrN-139" vertex="1">
          <mxGeometry x="6.843644544431946" y="8.554555680539933" width="10.265466816647919" height="6.843644544431946" as="geometry" />
        </mxCell>
        <mxCell id="P565BMBygYdm6OfglMrN-141" value="Fav:" style="text;html=1;strokeColor=none;fillColor=none;align=center;verticalAlign=middle;whiteSpace=wrap;rounded=0;shadow=0;sketch=0;fontSize=10;fontColor=#FFFFFF;" parent="P565BMBygYdm6OfglMrN-1" vertex="1">
          <mxGeometry x="250" y="-670" width="40" height="20" as="geometry" />
        </mxCell>
        <mxCell id="P565BMBygYdm6OfglMrN-142" value="" style="shape=image;html=1;verticalAlign=top;verticalLabelPosition=bottom;labelBackgroundColor=#ffffff;imageAspect=0;aspect=fixed;image=https://cdn2.iconfinder.com/data/icons/font-awesome/1792/sort-alpha-asc-128.png;rounded=1;shadow=1;sketch=0;strokeColor=#000000;fillColor=#4285F4;fontSize=11;align=left;fontColor=#97D077;" parent="P565BMBygYdm6OfglMrN-1" vertex="1">
          <mxGeometry x="233" y="-667" width="15" height="15" as="geometry" />
        </mxCell>
        <mxCell id="P565BMBygYdm6OfglMrN-143" value="" style="fillColor=#36B37E;strokeColor=none;rounded=1;arcSize=50;shadow=1;sketch=0;fontSize=11;fontColor=#FFFFFF;align=left;" parent="P565BMBygYdm6OfglMrN-1" vertex="1">
          <mxGeometry x="284" y="-667" width="30" height="16" as="geometry" />
        </mxCell>
        <mxCell id="P565BMBygYdm6OfglMrN-144" value="" style="perimeter=none;dashed=0;shape=mxgraph.gmdl.triangle;strokeColor=none;fillColor=#666666;direction=south;aspect=fixed;flipV=0;flipH=1;" parent="P565BMBygYdm6OfglMrN-1" vertex="1">
          <mxGeometry x="32" y="-330" width="8" height="16" as="geometry">
            <mxPoint x="-27" as="offset" />
          </mxGeometry>
        </mxCell>
        <mxCell id="P565BMBygYdm6OfglMrN-145" value="" style="rounded=0;whiteSpace=wrap;html=1;fillColor=#3333FF;" parent="P565BMBygYdm6OfglMrN-1" vertex="1">
          <mxGeometry x="19" y="-1670" width="1069" height="60" as="geometry" />
        </mxCell>
        <mxCell id="P565BMBygYdm6OfglMrN-146" value="&lt;font style=&quot;font-size: 14px&quot;&gt;FEEDBACK&lt;/font&gt;" style="rounded=1;whiteSpace=wrap;html=1;fillColor=#FF8000;strokeColor=#FF8000;fontColor=#FFFFFF;" parent="P565BMBygYdm6OfglMrN-1" vertex="1">
          <mxGeometry x="956" y="-1660" width="120" height="40" as="geometry" />
        </mxCell>
        <mxCell id="P565BMBygYdm6OfglMrN-147" value="" style="shape=image;html=1;verticalAlign=top;verticalLabelPosition=bottom;labelBackgroundColor=#ffffff;imageAspect=0;aspect=fixed;image=https://cdn3.iconfinder.com/data/icons/social-media-2125/78/bell-128.png;strokeColor=#FF8000;fillColor=#FF8000;fontColor=#FFFFFF;" parent="P565BMBygYdm6OfglMrN-1" vertex="1">
          <mxGeometry x="894" y="-1660" width="37" height="37" as="geometry" />
        </mxCell>
        <mxCell id="P565BMBygYdm6OfglMrN-148" value="" style="whiteSpace=wrap;html=1;shape=mxgraph.basic.octagon2;align=center;verticalAlign=middle;dx=12;shadow=0;sketch=0;fontSize=20;fontColor=#808080;fillColor=#FF8000;strokeColor=#FF8000;" parent="P565BMBygYdm6OfglMrN-1" vertex="1">
          <mxGeometry x="29" y="-1663.5" width="56" height="42" as="geometry" />
        </mxCell>
        <mxCell id="P565BMBygYdm6OfglMrN-149" value="Eva" style="text;html=1;strokeColor=none;fillColor=none;align=center;verticalAlign=middle;whiteSpace=wrap;rounded=0;shadow=0;sketch=0;fontSize=20;fontColor=#FFFFFF;fontStyle=1" parent="P565BMBygYdm6OfglMrN-1" vertex="1">
          <mxGeometry x="95" y="-1650" width="40" height="20" as="geometry" />
        </mxCell>
        <mxCell id="P565BMBygYdm6OfglMrN-150" value="" style="html=1;verticalLabelPosition=bottom;align=center;labelBackgroundColor=#ffffff;verticalAlign=top;strokeWidth=2;shadow=0;dashed=0;shape=mxgraph.ios7.icons.user;sketch=0;fontSize=20;fontColor=#FFFFFF;fillColor=#FFFFFF;" parent="P565BMBygYdm6OfglMrN-1" vertex="1">
          <mxGeometry x="742" y="-1655" width="30" height="30" as="geometry" />
        </mxCell>
        <mxCell id="P565BMBygYdm6OfglMrN-151" value="John Doe" style="text;html=1;strokeColor=none;fillColor=none;align=center;verticalAlign=middle;whiteSpace=wrap;rounded=0;shadow=0;sketch=0;fontSize=19;fontColor=#FFFFFF;" parent="P565BMBygYdm6OfglMrN-1" vertex="1">
          <mxGeometry x="785.5" y="-1650" width="94" height="20" as="geometry" />
        </mxCell>
        <mxCell id="P565BMBygYdm6OfglMrN-152" value="&amp;lt;Classification Here&amp;gt;" style="rounded=0;whiteSpace=wrap;html=1;shadow=0;sketch=0;fontSize=12;align=center;fillColor=#FFFF33;" parent="P565BMBygYdm6OfglMrN-1" vertex="1">
          <mxGeometry x="19" y="-1690" width="1069" height="20" as="geometry" />
        </mxCell>
        <mxCell id="P565BMBygYdm6OfglMrN-153" value="" style="group;labelBackgroundColor=#ffffff;" parent="P565BMBygYdm6OfglMrN-1" connectable="0" vertex="1">
          <mxGeometry x="300" y="-1599" width="555" height="60" as="geometry" />
        </mxCell>
        <mxCell id="P565BMBygYdm6OfglMrN-154" value="" style="html=1;shadow=0;dashed=0;fillColor=#F8F9FA;strokeColor=none;fontSize=16;fontColor=#181819;align=left;spacing=15;" parent="P565BMBygYdm6OfglMrN-153" vertex="1">
          <mxGeometry width="555" height="60" as="geometry" />
        </mxCell>
        <mxCell id="P565BMBygYdm6OfglMrN-155" value="Search" style="html=1;shadow=0;dashed=0;shape=mxgraph.bootstrap.rrect;rSize=5;fontSize=14;fontColor=#6C767D;strokeColor=#CED4DA;fillColor=#ffffff;align=left;spacing=10;" parent="P565BMBygYdm6OfglMrN-154" vertex="1">
          <mxGeometry width="470" height="40" relative="1" as="geometry">
            <mxPoint x="10" y="10" as="offset" />
          </mxGeometry>
        </mxCell>
        <mxCell id="P565BMBygYdm6OfglMrN-156" value="" style="ellipse;whiteSpace=wrap;html=1;fillColor=#FFFFFF;" parent="P565BMBygYdm6OfglMrN-154" vertex="1">
          <mxGeometry x="425.67961165048536" y="22" width="10.776699029126211" height="10" as="geometry" />
        </mxCell>
        <mxCell id="P565BMBygYdm6OfglMrN-157" value="" style="endArrow=none;html=1;" parent="P565BMBygYdm6OfglMrN-154" edge="1">
          <mxGeometry width="50" height="50" relative="1" as="geometry">
            <mxPoint x="436.4563106796116" y="32" as="sourcePoint" />
            <mxPoint x="436.4563106796116" y="32" as="targetPoint" />
            <Array as="points">
              <mxPoint x="447.23300970873777" y="40" />
            </Array>
          </mxGeometry>
        </mxCell>
        <mxCell id="P565BMBygYdm6OfglMrN-158" value="" style="triangle;whiteSpace=wrap;html=1;rotation=90;fillColor=#000000;" parent="P565BMBygYdm6OfglMrN-154" vertex="1">
          <mxGeometry x="458.00970873786395" y="25" width="10.776699029126211" height="10" as="geometry" />
        </mxCell>
        <mxCell id="P565BMBygYdm6OfglMrN-159" value="" style="shape=ellipse;dashed=0;strokeColor=none;shadow=1;fontSize=13;align=center;verticalAlign=top;labelPosition=center;verticalLabelPosition=bottom;html=1;aspect=fixed;" parent="P565BMBygYdm6OfglMrN-153" vertex="1">
          <mxGeometry x="492.5" y="10" width="40" height="40" as="geometry" />
        </mxCell>
        <mxCell id="P565BMBygYdm6OfglMrN-160" value="" style="dashed=0;html=1;shape=mxgraph.gmdl.plus;strokeColor=#737373;strokeWidth=2;shadow=0;" parent="P565BMBygYdm6OfglMrN-159" vertex="1">
          <mxGeometry x="12" y="12" width="16" height="16" as="geometry" />
        </mxCell>
        <mxCell id="P565BMBygYdm6OfglMrN-161" value="Eva Holds lets you...&amp;nbsp; &amp;nbsp;Lorem ipsum dolor sit amet, consectetur adipisicing elit, sed do eiusmod tempor incididunt ut labore et dolore magna aliqua.&amp;nbsp; Lorem ipsum dolor sit amet, consectetur adipisicing elit, sed do eiusmod tempor incididunt ut labore et dolore magna aliqua.&amp;nbsp; Lorem ipsum dolor sit amet, consectetur adipisicing elit, sed do eiusmod tempor incididunt ut labore et dolore magna aliqua.&amp;nbsp; Lorem ipsum dolor sit amet, consectetur adipisicing elit, sed do eiusmod tempor incididunt ut labore et dolore magna aliqua.&lt;br&gt;&lt;br&gt;Please see &lt;font color=&quot;#3366bb&quot;&gt;&lt;u&gt;Query Builder&lt;/u&gt;&lt;/font&gt; for assistance with creating your query syntax.&amp;nbsp;&amp;nbsp;&lt;br&gt;&lt;br&gt;For assistance with your searches or access related questions, please contact &lt;font color=&quot;#3366bb&quot;&gt;&lt;u&gt;Eva-Help&lt;/u&gt;&lt;/font&gt;." style="text;html=1;align=left;verticalAlign=top;whiteSpace=wrap;rounded=0;labelBackgroundColor=none;fontSize=14;strokeColor=#000000;shadow=1;perimeterSpacing=0;spacingTop=3;spacingLeft=5;fillColor=#ffffff;" parent="P565BMBygYdm6OfglMrN-1" vertex="1">
          <mxGeometry x="244" y="-1510" width="632.5" height="210" as="geometry" />
        </mxCell>
        <mxCell id="g7P-NBzQ6pZ7r6BSA7Zd-0" value="" style="shape=ellipse;dashed=0;strokeColor=none;shadow=1;fontSize=13;align=center;verticalAlign=top;labelPosition=center;verticalLabelPosition=bottom;html=1;aspect=fixed;" vertex="1" parent="P565BMBygYdm6OfglMrN-1">
          <mxGeometry x="928" y="229" width="23.95" height="23.95" as="geometry" />
        </mxCell>
        <mxCell id="g7P-NBzQ6pZ7r6BSA7Zd-1" value="" style="dashed=0;html=1;shape=mxgraph.gmdl.plus;strokeColor=#737373;strokeWidth=2;shadow=0;" vertex="1" parent="g7P-NBzQ6pZ7r6BSA7Zd-0">
          <mxGeometry x="7.1850000000000005" y="7.1850000000000005" width="9.579999999999998" height="9.579999999999998" as="geometry" />
        </mxCell>
        <mxCell id="g7P-NBzQ6pZ7r6BSA7Zd-2" value="Add System to Hold" style="html=1;shadow=0;dashed=0;shape=mxgraph.bootstrap.rrect;rSize=5;html=1;strokeColor=#C8C8C8;fillColor=#ffffff;whiteSpace=wrap;verticalAlign=top;align=left;fontSize=18;spacing=15;spacingTop=-5;" vertex="1" parent="P565BMBygYdm6OfglMrN-1">
          <mxGeometry x="1120" y="240" width="500" height="560" as="geometry" />
        </mxCell>
        <mxCell id="g7P-NBzQ6pZ7r6BSA7Zd-3" value="" style="shape=line;strokeColor=#dddddd;resizeWidth=1;" vertex="1" parent="g7P-NBzQ6pZ7r6BSA7Zd-2">
          <mxGeometry width="490.00000000000006" height="10" relative="1" as="geometry">
            <mxPoint y="50" as="offset" />
          </mxGeometry>
        </mxCell>
        <mxCell id="g7P-NBzQ6pZ7r6BSA7Zd-4" value="" style="html=1;shadow=0;dashed=0;shape=mxgraph.bootstrap.x;strokeColor=#868686;strokeWidth=2;" vertex="1" parent="g7P-NBzQ6pZ7r6BSA7Zd-2">
          <mxGeometry x="1" width="8" height="8" relative="1" as="geometry">
            <mxPoint x="-24" y="20" as="offset" />
          </mxGeometry>
        </mxCell>
        <mxCell id="g7P-NBzQ6pZ7r6BSA7Zd-5" value="" style="shape=line;strokeColor=#dddddd;resizeWidth=1;" vertex="1" parent="g7P-NBzQ6pZ7r6BSA7Zd-2">
          <mxGeometry width="490.00000000000006" height="10" relative="1" as="geometry">
            <mxPoint y="480" as="offset" />
          </mxGeometry>
        </mxCell>
        <mxCell id="g7P-NBzQ6pZ7r6BSA7Zd-6" value="Proceed" style="html=1;shadow=0;dashed=0;shape=mxgraph.bootstrap.rrect;rSize=5;fillColor=#0085FC;strokeColor=none;fontColor=#FFFFFF;fontSize=14;" vertex="1" parent="g7P-NBzQ6pZ7r6BSA7Zd-2">
          <mxGeometry x="1" y="1" width="110" height="40" relative="1" as="geometry">
            <mxPoint x="-130" y="-60" as="offset" />
          </mxGeometry>
        </mxCell>
        <mxCell id="g7P-NBzQ6pZ7r6BSA7Zd-7" value="Cancel" style="html=1;shadow=0;dashed=0;shape=mxgraph.bootstrap.rrect;rSize=5;fillColor=#6C757D;strokeColor=none;fontColor=#FFFFFF;fontSize=14;" vertex="1" parent="g7P-NBzQ6pZ7r6BSA7Zd-2">
          <mxGeometry x="1" y="1" width="70" height="40" relative="1" as="geometry">
            <mxPoint x="-220" y="-60" as="offset" />
          </mxGeometry>
        </mxCell>
        <mxCell id="g7P-NBzQ6pZ7r6BSA7Zd-8" value="1" style="shape=ellipse;strokeColor=none;fillColor=#4285F4;fontColor=#ffffff;" vertex="1" parent="g7P-NBzQ6pZ7r6BSA7Zd-2">
          <mxGeometry x="10" y="100" width="24" height="24" as="geometry" />
        </mxCell>
        <mxCell id="g7P-NBzQ6pZ7r6BSA7Zd-9" value="System Selection" style="shape=rect;strokeColor=none;fillColor=none;align=left;fontStyle=1;" vertex="1" parent="g7P-NBzQ6pZ7r6BSA7Zd-2">
          <mxGeometry x="46" y="100" width="200" height="24" as="geometry" />
        </mxCell>
        <mxCell id="g7P-NBzQ6pZ7r6BSA7Zd-10" value="" style="shape=line;direction=north;strokeColor=#b3b3b3;" vertex="1" parent="g7P-NBzQ6pZ7r6BSA7Zd-2">
          <mxGeometry x="17" y="130" width="10" height="100" as="geometry" />
        </mxCell>
        <mxCell id="g7P-NBzQ6pZ7r6BSA7Zd-11" value="2" style="shape=ellipse;strokeColor=none;fillColor=#9e9e9e;fontColor=#ffffff;" vertex="1" parent="g7P-NBzQ6pZ7r6BSA7Zd-2">
          <mxGeometry x="10" y="240" width="24" height="24" as="geometry" />
        </mxCell>
        <mxCell id="g7P-NBzQ6pZ7r6BSA7Zd-12" value="Queries Against Data" style="shape=rect;strokeColor=none;fillColor=none;align=left;fontColor=#aaaaaa;" vertex="1" parent="g7P-NBzQ6pZ7r6BSA7Zd-2">
          <mxGeometry x="46" y="240" width="200" height="24" as="geometry" />
        </mxCell>
        <mxCell id="g7P-NBzQ6pZ7r6BSA7Zd-13" value="3" style="shape=ellipse;strokeColor=none;fillColor=#9e9e9e;fontColor=#ffffff;" vertex="1" parent="g7P-NBzQ6pZ7r6BSA7Zd-2">
          <mxGeometry x="10" y="306" width="24" height="24" as="geometry" />
        </mxCell>
        <mxCell id="g7P-NBzQ6pZ7r6BSA7Zd-14" value="Certification and Authorization" style="shape=rect;strokeColor=none;fillColor=none;align=left;fontColor=#aaaaaa;" vertex="1" parent="g7P-NBzQ6pZ7r6BSA7Zd-2">
          <mxGeometry x="46" y="306" width="200" height="24" as="geometry" />
        </mxCell>
        <mxCell id="g7P-NBzQ6pZ7r6BSA7Zd-15" value="" style="shape=line;direction=north;strokeColor=#b3b3b3;" vertex="1" parent="g7P-NBzQ6pZ7r6BSA7Zd-2">
          <mxGeometry x="17" y="274" width="10" height="25" as="geometry" />
        </mxCell>
        <mxCell id="g7P-NBzQ6pZ7r6BSA7Zd-16" value="Define the system that should have records held and specify the query or queries used to define those records." style="text;html=1;strokeColor=none;fillColor=none;align=left;verticalAlign=top;whiteSpace=wrap;rounded=0;shadow=1;dashed=1;labelBackgroundColor=none;sketch=0;fontSize=9;opacity=30;" vertex="1" parent="g7P-NBzQ6pZ7r6BSA7Zd-2">
          <mxGeometry x="10" y="60" width="470" height="40" as="geometry" />
        </mxCell>
        <mxCell id="g7P-NBzQ6pZ7r6BSA7Zd-20" value="Next" style="shape=rect;strokeColor=none;fillColor=#4285f4;fontColor=#ffffff;rounded=1;" vertex="1" parent="g7P-NBzQ6pZ7r6BSA7Zd-2">
          <mxGeometry x="46" y="185" width="102" height="36" as="geometry" />
        </mxCell>
        <mxCell id="g7P-NBzQ6pZ7r6BSA7Zd-21" value="Cancel" style="html=1;shadow=0;dashed=0;shape=mxgraph.bootstrap.rrect;rSize=5;fillColor=#6C757D;strokeColor=none;fontColor=#FFFFFF;fontSize=14;" vertex="1" parent="g7P-NBzQ6pZ7r6BSA7Zd-2">
          <mxGeometry x="156.00402733964256" y="185" width="70" height="36" as="geometry" />
        </mxCell>
        <mxCell id="g7P-NBzQ6pZ7r6BSA7Zd-24" value="Select System" style="rounded=1;fillColor=#F1F2F4;strokeColor=none;html=1;fontColor=#596780;align=left;fontSize=12;spacingLeft=10;shadow=0;sketch=0;" vertex="1" parent="g7P-NBzQ6pZ7r6BSA7Zd-2">
          <mxGeometry x="50" y="130" width="430" height="30" as="geometry" />
        </mxCell>
        <mxCell id="g7P-NBzQ6pZ7r6BSA7Zd-25" value="" style="shape=triangle;direction=south;fillColor=#596780;strokeColor=none;html=1" vertex="1" parent="g7P-NBzQ6pZ7r6BSA7Zd-24">
          <mxGeometry x="1" y="0.5" width="12" height="6" relative="1" as="geometry">
            <mxPoint x="-20" y="-3" as="offset" />
          </mxGeometry>
        </mxCell>
        <mxCell id="g7P-NBzQ6pZ7r6BSA7Zd-27" value="Pulls from IMA List" style="text;html=1;fillColor=#fff2cc;align=center;verticalAlign=middle;whiteSpace=wrap;rounded=0;strokeColor=#d6b656;" vertex="1" parent="P565BMBygYdm6OfglMrN-1">
          <mxGeometry x="1295" y="168" width="150" height="40" as="geometry" />
        </mxCell>
        <mxCell id="g7P-NBzQ6pZ7r6BSA7Zd-69" value="" style="rounded=0;whiteSpace=wrap;html=1;" vertex="1" parent="P565BMBygYdm6OfglMrN-1">
          <mxGeometry x="21" y="1010" width="1069" height="750" as="geometry" />
        </mxCell>
        <mxCell id="g7P-NBzQ6pZ7r6BSA7Zd-70" value="" style="rounded=0;whiteSpace=wrap;html=1;fillColor=#3333FF;" vertex="1" parent="P565BMBygYdm6OfglMrN-1">
          <mxGeometry x="21" y="950" width="1069" height="60" as="geometry" />
        </mxCell>
        <mxCell id="g7P-NBzQ6pZ7r6BSA7Zd-71" value="&lt;font style=&quot;font-size: 14px&quot;&gt;FEEDBACK&lt;/font&gt;" style="rounded=1;whiteSpace=wrap;html=1;fillColor=#FF8000;strokeColor=#FF8000;fontColor=#FFFFFF;" vertex="1" parent="P565BMBygYdm6OfglMrN-1">
          <mxGeometry x="958" y="960" width="120" height="40" as="geometry" />
        </mxCell>
        <mxCell id="g7P-NBzQ6pZ7r6BSA7Zd-72" value="" style="shape=image;html=1;verticalAlign=top;verticalLabelPosition=bottom;labelBackgroundColor=#ffffff;imageAspect=0;aspect=fixed;image=https://cdn3.iconfinder.com/data/icons/social-media-2125/78/bell-128.png;strokeColor=#FF8000;fillColor=#FF8000;fontColor=#FFFFFF;" vertex="1" parent="P565BMBygYdm6OfglMrN-1">
          <mxGeometry x="896" y="960" width="37" height="37" as="geometry" />
        </mxCell>
        <mxCell id="g7P-NBzQ6pZ7r6BSA7Zd-73" value="" style="whiteSpace=wrap;html=1;shape=mxgraph.basic.octagon2;align=center;verticalAlign=middle;dx=12;shadow=0;sketch=0;fontSize=20;fontColor=#808080;fillColor=#FF8000;strokeColor=#FF8000;" vertex="1" parent="P565BMBygYdm6OfglMrN-1">
          <mxGeometry x="31" y="956.5" width="56" height="42" as="geometry" />
        </mxCell>
        <mxCell id="g7P-NBzQ6pZ7r6BSA7Zd-74" value="Eva" style="text;html=1;strokeColor=none;fillColor=none;align=center;verticalAlign=middle;whiteSpace=wrap;rounded=0;shadow=0;sketch=0;fontSize=20;fontColor=#FFFFFF;fontStyle=1" vertex="1" parent="P565BMBygYdm6OfglMrN-1">
          <mxGeometry x="97" y="970" width="40" height="20" as="geometry" />
        </mxCell>
        <mxCell id="g7P-NBzQ6pZ7r6BSA7Zd-75" value="" style="html=1;verticalLabelPosition=bottom;align=center;labelBackgroundColor=#ffffff;verticalAlign=top;strokeWidth=2;shadow=0;dashed=0;shape=mxgraph.ios7.icons.user;sketch=0;fontSize=20;fontColor=#FFFFFF;fillColor=#FFFFFF;" vertex="1" parent="P565BMBygYdm6OfglMrN-1">
          <mxGeometry x="744" y="965" width="30" height="30" as="geometry" />
        </mxCell>
        <mxCell id="g7P-NBzQ6pZ7r6BSA7Zd-76" value="John Doe" style="text;html=1;strokeColor=none;fillColor=none;align=center;verticalAlign=middle;whiteSpace=wrap;rounded=0;shadow=0;sketch=0;fontSize=19;fontColor=#FFFFFF;" vertex="1" parent="P565BMBygYdm6OfglMrN-1">
          <mxGeometry x="787.5" y="970" width="94" height="20" as="geometry" />
        </mxCell>
        <mxCell id="g7P-NBzQ6pZ7r6BSA7Zd-77" value="&amp;lt;Classification Here&amp;gt;" style="rounded=0;whiteSpace=wrap;html=1;shadow=0;sketch=0;fontSize=12;align=center;fillColor=#FFFF33;" vertex="1" parent="P565BMBygYdm6OfglMrN-1">
          <mxGeometry x="21" y="930" width="1069" height="20" as="geometry" />
        </mxCell>
        <mxCell id="g7P-NBzQ6pZ7r6BSA7Zd-78" value="" style="line;strokeWidth=1;fillColor=none;align=left;verticalAlign=middle;spacingTop=-1;spacingLeft=3;spacingRight=3;rotatable=0;labelPosition=right;points=[];portConstraint=eastwest;sketch=0;direction=south;" vertex="1" parent="P565BMBygYdm6OfglMrN-1">
          <mxGeometry x="276" y="1089" width="8" height="671" as="geometry" />
        </mxCell>
        <mxCell id="g7P-NBzQ6pZ7r6BSA7Zd-79" value="" style="group;labelBackgroundColor=#ffffff;" connectable="0" vertex="1" parent="P565BMBygYdm6OfglMrN-1">
          <mxGeometry x="340" y="1021" width="749" height="66.5" as="geometry" />
        </mxCell>
        <mxCell id="g7P-NBzQ6pZ7r6BSA7Zd-80" value="" style="html=1;shadow=0;dashed=0;fillColor=#F8F9FA;strokeColor=none;fontSize=16;fontColor=#181819;align=left;spacing=15;" vertex="1" parent="g7P-NBzQ6pZ7r6BSA7Zd-79">
          <mxGeometry width="749" height="66.5" as="geometry" />
        </mxCell>
        <mxCell id="g7P-NBzQ6pZ7r6BSA7Zd-81" value="" style="rounded=0;whiteSpace=wrap;html=1;fillColor=#F8F9FA;" vertex="1" parent="g7P-NBzQ6pZ7r6BSA7Zd-80">
          <mxGeometry x="-319" y="-12.5" width="1068" height="79" as="geometry" />
        </mxCell>
        <mxCell id="g7P-NBzQ6pZ7r6BSA7Zd-82" value="Search" style="html=1;shadow=0;dashed=0;shape=mxgraph.bootstrap.rrect;rSize=5;fontSize=14;fontColor=#6C767D;strokeColor=#CED4DA;fillColor=#ffffff;align=left;spacing=10;" vertex="1" parent="g7P-NBzQ6pZ7r6BSA7Zd-80">
          <mxGeometry width="470" height="40" relative="1" as="geometry">
            <mxPoint x="-46" y="7" as="offset" />
          </mxGeometry>
        </mxCell>
        <mxCell id="g7P-NBzQ6pZ7r6BSA7Zd-83" value="" style="ellipse;whiteSpace=wrap;html=1;fillColor=#FFFFFF;" vertex="1" parent="g7P-NBzQ6pZ7r6BSA7Zd-80">
          <mxGeometry x="369.67961165048536" y="19" width="10.776699029126211" height="10" as="geometry" />
        </mxCell>
        <mxCell id="g7P-NBzQ6pZ7r6BSA7Zd-84" value="" style="endArrow=none;html=1;" edge="1" parent="g7P-NBzQ6pZ7r6BSA7Zd-80">
          <mxGeometry width="50" height="50" relative="1" as="geometry">
            <mxPoint x="380.4563106796116" y="29" as="sourcePoint" />
            <mxPoint x="380.4563106796116" y="29" as="targetPoint" />
            <Array as="points">
              <mxPoint x="391.23300970873777" y="37" />
            </Array>
          </mxGeometry>
        </mxCell>
        <mxCell id="g7P-NBzQ6pZ7r6BSA7Zd-85" value="" style="triangle;whiteSpace=wrap;html=1;rotation=90;fillColor=#000000;" vertex="1" parent="g7P-NBzQ6pZ7r6BSA7Zd-80">
          <mxGeometry x="402.00970873786395" y="22" width="10.776699029126211" height="10" as="geometry" />
        </mxCell>
        <mxCell id="g7P-NBzQ6pZ7r6BSA7Zd-86" value="" style="shape=ellipse;dashed=0;strokeColor=none;shadow=1;fontSize=13;align=center;verticalAlign=top;labelPosition=center;verticalLabelPosition=bottom;html=1;aspect=fixed;" vertex="1" parent="g7P-NBzQ6pZ7r6BSA7Zd-79">
          <mxGeometry x="436.5" y="7" width="40" height="40" as="geometry" />
        </mxCell>
        <mxCell id="g7P-NBzQ6pZ7r6BSA7Zd-87" value="" style="dashed=0;html=1;shape=mxgraph.gmdl.plus;strokeColor=#737373;strokeWidth=2;shadow=0;" vertex="1" parent="g7P-NBzQ6pZ7r6BSA7Zd-86">
          <mxGeometry x="12" y="12" width="16" height="16" as="geometry" />
        </mxCell>
        <mxCell id="g7P-NBzQ6pZ7r6BSA7Zd-88" value="" style="line;strokeWidth=1;fillColor=none;align=left;verticalAlign=middle;spacingTop=-1;spacingLeft=3;spacingRight=3;rotatable=0;labelPosition=right;points=[];portConstraint=eastwest;sketch=0;direction=west;" vertex="1" parent="P565BMBygYdm6OfglMrN-1">
          <mxGeometry x="23" y="1084" width="1067" height="8" as="geometry" />
        </mxCell>
        <mxCell id="g7P-NBzQ6pZ7r6BSA7Zd-89" value="" style="line;strokeWidth=1;fillColor=none;align=left;verticalAlign=middle;spacingTop=-1;spacingLeft=3;spacingRight=3;rotatable=0;labelPosition=right;points=[];portConstraint=eastwest;sketch=0;direction=south;" vertex="1" parent="P565BMBygYdm6OfglMrN-1">
          <mxGeometry x="552" y="1129" width="8" height="630" as="geometry" />
        </mxCell>
        <mxCell id="g7P-NBzQ6pZ7r6BSA7Zd-90" value="" style="perimeter=none;dashed=0;shape=mxgraph.gmdl.triangle;strokeColor=none;fillColor=#666666;direction=south;aspect=fixed;" vertex="1" parent="P565BMBygYdm6OfglMrN-1">
          <mxGeometry x="266" y="1431" width="8" height="16" as="geometry">
            <mxPoint x="-27" as="offset" />
          </mxGeometry>
        </mxCell>
        <mxCell id="g7P-NBzQ6pZ7r6BSA7Zd-91" value="" style="rounded=0;whiteSpace=wrap;html=1;fontSize=20;align=left;fillColor=#3333FF;" vertex="1" parent="P565BMBygYdm6OfglMrN-1">
          <mxGeometry x="280" y="1088" width="276" height="40" as="geometry" />
        </mxCell>
        <mxCell id="g7P-NBzQ6pZ7r6BSA7Zd-92" value="" style="html=1;shadow=0;dashed=0;shape=mxgraph.bootstrap.rrect;rSize=5;strokeColor=#DFDFDF;html=1;whiteSpace=wrap;fillColor=#FFFFFF;fontColor=#495057;" vertex="1" parent="P565BMBygYdm6OfglMrN-1">
          <mxGeometry x="283" y="1130" width="260" height="300" as="geometry" />
        </mxCell>
        <mxCell id="g7P-NBzQ6pZ7r6BSA7Zd-93" value="&lt;font style=&quot;font-size: 16px&quot;&gt;Hold Title #1&lt;/font&gt;&lt;br&gt;Guide: 123456/1258d25s8f22f&lt;br&gt;other data goes here" style="html=1;shadow=0;dashed=0;shape=mxgraph.bootstrap.topButton;rSize=5;perimeter=none;whiteSpace=wrap;resizeWidth=1;align=left;spacing=10;verticalAlign=top;fillColor=#0085FC;strokeColor=#0085FC;fontColor=#ffffff;" vertex="1" parent="g7P-NBzQ6pZ7r6BSA7Zd-92">
          <mxGeometry width="260" height="100" relative="1" as="geometry" />
        </mxCell>
        <mxCell id="g7P-NBzQ6pZ7r6BSA7Zd-94" value="&lt;font style=&quot;font-size: 16px&quot;&gt;Hold Title #2&lt;/font&gt;&lt;br&gt;Guide: 185576/58d6s8dd222dgf8&lt;br&gt;Other data goes here&lt;br&gt;&lt;br&gt;" style="strokeColor=inherit;fillColor=inherit;gradientColor=inherit;fontColor=inherit;html=1;shadow=0;dashed=0;perimeter=none;whiteSpace=wrap;resizeWidth=1;align=left;spacing=10;" vertex="1" parent="g7P-NBzQ6pZ7r6BSA7Zd-92">
          <mxGeometry width="260" height="100" relative="1" as="geometry">
            <mxPoint y="100" as="offset" />
          </mxGeometry>
        </mxCell>
        <mxCell id="g7P-NBzQ6pZ7r6BSA7Zd-95" value="&lt;font style=&quot;font-size: 16px&quot;&gt;Hold Title #3&lt;/font&gt;&lt;br&gt;Guide: 123456/88d55s6c8fs6&lt;br&gt;other data goes here&lt;br&gt;&lt;br&gt;" style="strokeColor=inherit;fillColor=inherit;gradientColor=inherit;fontColor=inherit;html=1;shadow=0;dashed=0;shape=mxgraph.bootstrap.bottomButton;rSize=5;perimeter=none;whiteSpace=wrap;resizeWidth=1;resizeHeight=0;align=left;spacing=10;" vertex="1" parent="g7P-NBzQ6pZ7r6BSA7Zd-92">
          <mxGeometry y="1" width="260" height="100" relative="1" as="geometry">
            <mxPoint y="-100" as="offset" />
          </mxGeometry>
        </mxCell>
        <mxCell id="g7P-NBzQ6pZ7r6BSA7Zd-96" value="Holds" style="text;html=1;strokeColor=none;fillColor=none;align=left;verticalAlign=middle;whiteSpace=wrap;rounded=0;labelPosition=center;verticalLabelPosition=middle;fontSize=16;fontStyle=1;fontColor=#FFFFFF;" vertex="1" parent="P565BMBygYdm6OfglMrN-1">
          <mxGeometry x="287" y="1098" width="258" height="20" as="geometry" />
        </mxCell>
        <mxCell id="g7P-NBzQ6pZ7r6BSA7Zd-97" value="" style="html=1;verticalLabelPosition=bottom;labelBackgroundColor=#ffffff;verticalAlign=top;shadow=0;dashed=0;strokeWidth=2;shape=mxgraph.ios7.misc.scroll_(vertical);fillColor=#a0a0a0;sketch=0;" vertex="1" parent="P565BMBygYdm6OfglMrN-1">
          <mxGeometry x="548" y="1137" width="6" height="80" as="geometry" />
        </mxCell>
        <mxCell id="g7P-NBzQ6pZ7r6BSA7Zd-98" value="" style="group" connectable="0" vertex="1" parent="P565BMBygYdm6OfglMrN-1">
          <mxGeometry x="557" y="1089" width="530" height="500" as="geometry" />
        </mxCell>
        <mxCell id="g7P-NBzQ6pZ7r6BSA7Zd-99" value="Hold Title #1" style="shape=rect;fillColor=#ffffff;strokeColor=#eeeeee;shadow=1;fontColor=#000000;fontSize=23;fontStyle=0;verticalAlign=top;spacingBottom=0;spacingLeft=16;spacingTop=20;align=left;rounded=0;" vertex="1" parent="g7P-NBzQ6pZ7r6BSA7Zd-98">
          <mxGeometry width="530" height="500" as="geometry" />
        </mxCell>
        <mxCell id="g7P-NBzQ6pZ7r6BSA7Zd-100" value="Guide: 123456/1258d25s8f22f" style="text;fontSize=12;fontStyle=4;verticalAlign=middle;spacingBottom=0;spacingLeft=16;resizeWidth=1;fontColor=#0645AD;" vertex="1" parent="g7P-NBzQ6pZ7r6BSA7Zd-99">
          <mxGeometry width="530" height="20" relative="1" as="geometry">
            <mxPoint y="59" as="offset" />
          </mxGeometry>
        </mxCell>
        <mxCell id="g7P-NBzQ6pZ7r6BSA7Zd-101" value="Description:&#xa;&#xa;&#xa;Originating Org:&#xa;&#xa;Hold Type:&#xa;&#xa;Hold Expiration:&#xa;&#xa;Responsive Systems:&#xa;&#xa;Data Classification:&#xa;&#xa;Scope:&#xa;&#xa;PII Eligible:&#xa;&#xa;PII Type:&#xa;&#xa;?????:&#xa;&#xa;IMO Assigned:&#xa;" style="text;whiteSpace=wrap;fontSize=13;spacing=16;spacingTop=-4;resizeWidth=1;resizeHeight=1;fontStyle=1" vertex="1" parent="g7P-NBzQ6pZ7r6BSA7Zd-99">
          <mxGeometry width="170" height="333.33" relative="1" as="geometry">
            <mxPoint x="5" y="80" as="offset" />
          </mxGeometry>
        </mxCell>
        <mxCell id="g7P-NBzQ6pZ7r6BSA7Zd-102" value="Assign" style="shape=rect;strokeColor=#666666;fontColor=#333333;fontStyle=1;shadow=1;rounded=1;fillColor=#F8F9FA;" vertex="1" parent="g7P-NBzQ6pZ7r6BSA7Zd-99">
          <mxGeometry y="1" width="70" height="40" relative="1" as="geometry">
            <mxPoint x="8" y="-48" as="offset" />
          </mxGeometry>
        </mxCell>
        <mxCell id="g7P-NBzQ6pZ7r6BSA7Zd-103" value="Review" style="shape=rect;strokeColor=#666666;fontColor=#333333;fontStyle=1;shadow=1;sketch=0;rounded=1;fillColor=#F8F9FA;" vertex="1" parent="g7P-NBzQ6pZ7r6BSA7Zd-99">
          <mxGeometry y="1" width="70" height="40" relative="1" as="geometry">
            <mxPoint x="86" y="-48" as="offset" />
          </mxGeometry>
        </mxCell>
        <mxCell id="g7P-NBzQ6pZ7r6BSA7Zd-104" value="&amp;lt;Classification Here&amp;gt;" style="rounded=0;whiteSpace=wrap;html=1;shadow=0;sketch=0;fontSize=12;align=center;fillColor=#FFFF33;" vertex="1" parent="g7P-NBzQ6pZ7r6BSA7Zd-99">
          <mxGeometry y="0.6296296296296298" width="530" height="18.51851851851852" as="geometry" />
        </mxCell>
        <mxCell id="g7P-NBzQ6pZ7r6BSA7Zd-105" value="This hold was created in response to _________.  It contains objects responsive the search criteria defined within _________." style="text;whiteSpace=wrap;fontSize=10;spacing=16;spacingTop=-4;resizeWidth=1;resizeHeight=1;" vertex="1" parent="g7P-NBzQ6pZ7r6BSA7Zd-99">
          <mxGeometry x="152.8846153846154" y="74.07407407407408" width="336.3461538461539" height="55.55555555555556" as="geometry" />
        </mxCell>
        <mxCell id="g7P-NBzQ6pZ7r6BSA7Zd-106" value="PPP/QQQ/RRR/ZZZ&#xa;" style="text;whiteSpace=wrap;fontSize=10;spacing=16;spacingTop=-4;resizeWidth=1;resizeHeight=1;" vertex="1" parent="g7P-NBzQ6pZ7r6BSA7Zd-99">
          <mxGeometry x="152.8846153846154" y="128.63037037037037" width="336.3461538461539" height="37.03703703703704" as="geometry" />
        </mxCell>
        <mxCell id="g7P-NBzQ6pZ7r6BSA7Zd-107" value="FOIA" style="text;whiteSpace=wrap;fontSize=10;spacing=16;spacingTop=-4;resizeWidth=1;resizeHeight=1;" vertex="1" parent="g7P-NBzQ6pZ7r6BSA7Zd-99">
          <mxGeometry x="152.8846153846154" y="157.40814814814814" width="336.3461538461539" height="37.03703703703704" as="geometry" />
        </mxCell>
        <mxCell id="g7P-NBzQ6pZ7r6BSA7Zd-108" value="February 21, 2023" style="text;whiteSpace=wrap;fontSize=10;spacing=16;spacingTop=-4;resizeWidth=1;resizeHeight=1;" vertex="1" parent="g7P-NBzQ6pZ7r6BSA7Zd-99">
          <mxGeometry x="152.8846153846154" y="189.99592592592592" width="336.3461538461539" height="37.03703703703704" as="geometry" />
        </mxCell>
        <mxCell id="g7P-NBzQ6pZ7r6BSA7Zd-109" value="System X, System Y, System Z" style="text;whiteSpace=wrap;fontSize=10;spacing=16;spacingTop=-4;resizeWidth=1;resizeHeight=1;" vertex="1" parent="g7P-NBzQ6pZ7r6BSA7Zd-99">
          <mxGeometry x="152.8846153846154" y="220.0037037037037" width="336.3461538461539" height="37.03703703703704" as="geometry" />
        </mxCell>
        <mxCell id="g7P-NBzQ6pZ7r6BSA7Zd-110" value="Spooky" style="text;whiteSpace=wrap;fontSize=10;spacing=16;spacingTop=-4;resizeWidth=1;resizeHeight=1;" vertex="1" parent="g7P-NBzQ6pZ7r6BSA7Zd-99">
          <mxGeometry x="152.8846153846154" y="250.0014814814815" width="336.3461538461539" height="37.03703703703704" as="geometry" />
        </mxCell>
        <mxCell id="g7P-NBzQ6pZ7r6BSA7Zd-111" value="All responsive objects based on queries defined in the query page." style="text;whiteSpace=wrap;fontSize=10;spacing=16;spacingTop=-4;resizeWidth=1;resizeHeight=1;fontStyle=0" vertex="1" parent="g7P-NBzQ6pZ7r6BSA7Zd-99">
          <mxGeometry x="152.8846153846154" y="279.99925925925925" width="336.3461538461539" height="37.03703703703704" as="geometry" />
        </mxCell>
        <mxCell id="g7P-NBzQ6pZ7r6BSA7Zd-112" value="Yes" style="text;whiteSpace=wrap;fontSize=10;spacing=16;spacingTop=-4;resizeWidth=1;resizeHeight=1;" vertex="1" parent="g7P-NBzQ6pZ7r6BSA7Zd-99">
          <mxGeometry x="152.8846153846154" y="309.99703703703705" width="336.3461538461539" height="37.03703703703704" as="geometry" />
        </mxCell>
        <mxCell id="g7P-NBzQ6pZ7r6BSA7Zd-113" value="US Persons" style="text;whiteSpace=wrap;fontSize=10;spacing=16;spacingTop=-4;resizeWidth=1;resizeHeight=1;" vertex="1" parent="g7P-NBzQ6pZ7r6BSA7Zd-99">
          <mxGeometry x="152.8846153846154" y="340.00481481481484" width="336.3461538461539" height="37.03703703703704" as="geometry" />
        </mxCell>
        <mxCell id="g7P-NBzQ6pZ7r6BSA7Zd-114" value="Other data here????" style="text;whiteSpace=wrap;fontSize=10;spacing=16;spacingTop=-4;resizeWidth=1;resizeHeight=1;" vertex="1" parent="g7P-NBzQ6pZ7r6BSA7Zd-99">
          <mxGeometry x="152.8846153846154" y="370.00259259259263" width="336.3461538461539" height="37.03703703703704" as="geometry" />
        </mxCell>
        <mxCell id="g7P-NBzQ6pZ7r6BSA7Zd-115" value="Cindy-Luo Who" style="text;whiteSpace=wrap;fontSize=10;spacing=16;spacingTop=-4;resizeWidth=1;resizeHeight=1;" vertex="1" parent="g7P-NBzQ6pZ7r6BSA7Zd-99">
          <mxGeometry x="152.8846153846154" y="400.0025925925927" width="336.3461538461539" height="37.03703703703704" as="geometry" />
        </mxCell>
        <mxCell id="g7P-NBzQ6pZ7r6BSA7Zd-116" value="" style="shape=ellipse;dashed=0;strokeColor=none;shadow=1;fontSize=13;align=center;verticalAlign=top;labelPosition=center;verticalLabelPosition=bottom;html=1;aspect=fixed;fillColor=#F8F9FA;" vertex="1" parent="g7P-NBzQ6pZ7r6BSA7Zd-98">
          <mxGeometry x="408.97637795275597" y="30" width="23.95275590551181" height="23.95275590551181" as="geometry" />
        </mxCell>
        <mxCell id="g7P-NBzQ6pZ7r6BSA7Zd-117" value="" style="dashed=0;html=1;shape=mxgraph.gmdl.edit;strokeColor=none;fillColor=#737373;shadow=0;" vertex="1" parent="g7P-NBzQ6pZ7r6BSA7Zd-116">
          <mxGeometry x="7.699100112485939" y="7.699100112485939" width="8.554555680539933" height="8.554555680539933" as="geometry" />
        </mxCell>
        <mxCell id="g7P-NBzQ6pZ7r6BSA7Zd-118" value="" style="shape=ellipse;dashed=0;strokeColor=none;shadow=1;fontSize=13;align=center;verticalAlign=top;labelPosition=center;verticalLabelPosition=bottom;html=1;aspect=fixed;fillColor=#F8F9FA;" vertex="1" parent="g7P-NBzQ6pZ7r6BSA7Zd-98">
          <mxGeometry x="498.2834645669294" y="30" width="23.95275590551181" height="23.95275590551181" as="geometry" />
        </mxCell>
        <mxCell id="g7P-NBzQ6pZ7r6BSA7Zd-119" value="" style="dashed=0;html=1;shape=mxgraph.gmdl.x;strokeColor=#737373;strokeWidth=2;shadow=0;" vertex="1" parent="g7P-NBzQ6pZ7r6BSA7Zd-118">
          <mxGeometry x="8.554555680539933" y="8.554555680539933" width="6.843644544431946" height="6.843644544431946" as="geometry" />
        </mxCell>
        <mxCell id="g7P-NBzQ6pZ7r6BSA7Zd-120" value="" style="shape=ellipse;dashed=0;strokeColor=none;shadow=1;fontSize=13;align=center;verticalAlign=top;labelPosition=center;verticalLabelPosition=bottom;html=1;aspect=fixed;rounded=1;sketch=0;fillColor=#F8F9FA;" vertex="1" parent="g7P-NBzQ6pZ7r6BSA7Zd-98">
          <mxGeometry x="439.85826771653564" y="30" width="23.95275590551181" height="23.95275590551181" as="geometry" />
        </mxCell>
        <mxCell id="g7P-NBzQ6pZ7r6BSA7Zd-121" value="" style="dashed=0;html=1;shape=mxgraph.gmdl.star;strokeColor=none;fillColor=#737373;shadow=0;" vertex="1" parent="g7P-NBzQ6pZ7r6BSA7Zd-120">
          <mxGeometry x="7.699100112485939" y="7.699100112485939" width="8.554555680539933" height="8.554555680539933" as="geometry" />
        </mxCell>
        <mxCell id="g7P-NBzQ6pZ7r6BSA7Zd-122" value="" style="shape=ellipse;dashed=0;strokeColor=none;shadow=1;fontSize=13;align=center;verticalAlign=top;labelPosition=center;verticalLabelPosition=bottom;html=1;aspect=fixed;rounded=1;sketch=0;fillColor=#F8F9FA;" vertex="1" parent="g7P-NBzQ6pZ7r6BSA7Zd-98">
          <mxGeometry x="469.0708661417325" y="30" width="23.95275590551181" height="23.95275590551181" as="geometry" />
        </mxCell>
        <mxCell id="g7P-NBzQ6pZ7r6BSA7Zd-123" value="" style="dashed=0;html=1;shape=mxgraph.gmdl.cloud;strokeColor=none;fillColor=#737373;shadow=0;" vertex="1" parent="g7P-NBzQ6pZ7r6BSA7Zd-122">
          <mxGeometry x="6.843644544431946" y="8.554555680539933" width="10.265466816647919" height="6.843644544431946" as="geometry" />
        </mxCell>
        <mxCell id="g7P-NBzQ6pZ7r6BSA7Zd-124" value="Fav:" style="text;html=1;strokeColor=none;fillColor=none;align=center;verticalAlign=middle;whiteSpace=wrap;rounded=0;shadow=0;sketch=0;fontSize=10;fontColor=#FFFFFF;" vertex="1" parent="P565BMBygYdm6OfglMrN-1">
          <mxGeometry x="486" y="1098" width="40" height="20" as="geometry" />
        </mxCell>
        <mxCell id="g7P-NBzQ6pZ7r6BSA7Zd-125" value="" style="shape=image;html=1;verticalAlign=top;verticalLabelPosition=bottom;labelBackgroundColor=#ffffff;imageAspect=0;aspect=fixed;image=https://cdn2.iconfinder.com/data/icons/font-awesome/1792/sort-alpha-asc-128.png;rounded=1;shadow=1;sketch=0;strokeColor=#000000;fillColor=#4285F4;fontSize=11;align=left;fontColor=#97D077;" vertex="1" parent="P565BMBygYdm6OfglMrN-1">
          <mxGeometry x="469" y="1101" width="15" height="15" as="geometry" />
        </mxCell>
        <mxCell id="g7P-NBzQ6pZ7r6BSA7Zd-126" value="" style="fillColor=#36B37E;strokeColor=none;rounded=1;arcSize=50;shadow=1;sketch=0;fontSize=11;fontColor=#FFFFFF;align=left;" vertex="1" parent="P565BMBygYdm6OfglMrN-1">
          <mxGeometry x="520" y="1101" width="30" height="16" as="geometry" />
        </mxCell>
        <mxCell id="g7P-NBzQ6pZ7r6BSA7Zd-127" value="Date Range" style="rounded=1;fillColor=#F1F2F4;strokeColor=none;html=1;fontColor=#596780;align=left;fontSize=12;spacingLeft=10;shadow=0;sketch=0;" vertex="1" parent="P565BMBygYdm6OfglMrN-1">
          <mxGeometry x="40" y="1180" width="230" height="30" as="geometry" />
        </mxCell>
        <mxCell id="g7P-NBzQ6pZ7r6BSA7Zd-128" value="" style="shape=triangle;direction=south;fillColor=#596780;strokeColor=none;html=1" vertex="1" parent="g7P-NBzQ6pZ7r6BSA7Zd-127">
          <mxGeometry x="1" y="0.5" width="12" height="6" relative="1" as="geometry">
            <mxPoint x="-20" y="-3" as="offset" />
          </mxGeometry>
        </mxCell>
        <mxCell id="g7P-NBzQ6pZ7r6BSA7Zd-129" value="Hold Type" style="rounded=1;fillColor=#F1F2F4;strokeColor=none;html=1;fontColor=#596780;align=left;fontSize=12;spacingLeft=10;shadow=0;sketch=0;" vertex="1" parent="P565BMBygYdm6OfglMrN-1">
          <mxGeometry x="40" y="1130" width="230" height="30" as="geometry" />
        </mxCell>
        <mxCell id="g7P-NBzQ6pZ7r6BSA7Zd-130" value="" style="shape=triangle;direction=south;fillColor=#596780;strokeColor=none;html=1" vertex="1" parent="g7P-NBzQ6pZ7r6BSA7Zd-129">
          <mxGeometry x="1" y="0.5" width="12" height="6" relative="1" as="geometry">
            <mxPoint x="-20" y="-3" as="offset" />
          </mxGeometry>
        </mxCell>
        <mxCell id="g7P-NBzQ6pZ7r6BSA7Zd-131" value="Responsive Systems" style="rounded=1;fillColor=#F1F2F4;strokeColor=none;html=1;fontColor=#596780;align=left;fontSize=12;spacingLeft=10;shadow=0;sketch=0;" vertex="1" parent="P565BMBygYdm6OfglMrN-1">
          <mxGeometry x="40" y="1230" width="230" height="30" as="geometry" />
        </mxCell>
        <mxCell id="g7P-NBzQ6pZ7r6BSA7Zd-132" value="" style="shape=triangle;direction=south;fillColor=#596780;strokeColor=none;html=1" vertex="1" parent="g7P-NBzQ6pZ7r6BSA7Zd-131">
          <mxGeometry x="1" y="0.5" width="12" height="6" relative="1" as="geometry">
            <mxPoint x="-20" y="-3" as="offset" />
          </mxGeometry>
        </mxCell>
        <mxCell id="g7P-NBzQ6pZ7r6BSA7Zd-133" value="PII Eligible" style="rounded=1;fillColor=#F1F2F4;strokeColor=none;html=1;fontColor=#596780;align=left;fontSize=12;spacingLeft=10;shadow=0;sketch=0;" vertex="1" parent="P565BMBygYdm6OfglMrN-1">
          <mxGeometry x="40" y="1279" width="230" height="30" as="geometry" />
        </mxCell>
        <mxCell id="g7P-NBzQ6pZ7r6BSA7Zd-134" value="" style="shape=triangle;direction=south;fillColor=#596780;strokeColor=none;html=1" vertex="1" parent="g7P-NBzQ6pZ7r6BSA7Zd-133">
          <mxGeometry x="1" y="0.5" width="12" height="6" relative="1" as="geometry">
            <mxPoint x="-20" y="-3" as="offset" />
          </mxGeometry>
        </mxCell>
        <mxCell id="g7P-NBzQ6pZ7r6BSA7Zd-135" value="PII Type" style="rounded=1;fillColor=#F1F2F4;strokeColor=none;html=1;fontColor=#596780;align=left;fontSize=12;spacingLeft=10;shadow=0;sketch=0;" vertex="1" parent="P565BMBygYdm6OfglMrN-1">
          <mxGeometry x="40" y="1324" width="230" height="30" as="geometry" />
        </mxCell>
        <mxCell id="g7P-NBzQ6pZ7r6BSA7Zd-136" value="" style="shape=triangle;direction=south;fillColor=#596780;strokeColor=none;html=1" vertex="1" parent="g7P-NBzQ6pZ7r6BSA7Zd-135">
          <mxGeometry x="1" y="0.5" width="12" height="6" relative="1" as="geometry">
            <mxPoint x="-20" y="-3" as="offset" />
          </mxGeometry>
        </mxCell>
        <mxCell id="g7P-NBzQ6pZ7r6BSA7Zd-137" value="&lt;font color=&quot;#000000&quot; style=&quot;font-size: 11px&quot;&gt;Originating Organization&lt;br&gt;&lt;/font&gt;" style="text;html=1;strokeColor=none;fillColor=none;align=left;verticalAlign=middle;whiteSpace=wrap;rounded=0;shadow=0;sketch=0;fontSize=11;fontColor=#0645AD;" vertex="1" parent="P565BMBygYdm6OfglMrN-1">
          <mxGeometry x="27.5" y="1380" width="179" height="20" as="geometry" />
        </mxCell>
        <mxCell id="g7P-NBzQ6pZ7r6BSA7Zd-138" value="Level 4" style="rounded=1;fillColor=#F1F2F4;strokeColor=none;html=1;fontColor=#596780;align=left;fontSize=12;spacingLeft=10;shadow=0;sketch=0;" vertex="1" parent="P565BMBygYdm6OfglMrN-1">
          <mxGeometry x="40.0000000000001" y="1517" width="80" height="30" as="geometry" />
        </mxCell>
        <mxCell id="g7P-NBzQ6pZ7r6BSA7Zd-139" value="" style="shape=triangle;direction=south;fillColor=#596780;strokeColor=none;html=1" vertex="1" parent="g7P-NBzQ6pZ7r6BSA7Zd-138">
          <mxGeometry x="1" y="0.5" width="12" height="6" relative="1" as="geometry">
            <mxPoint x="-20" y="-3" as="offset" />
          </mxGeometry>
        </mxCell>
        <mxCell id="g7P-NBzQ6pZ7r6BSA7Zd-140" value="Level 5" style="rounded=1;fillColor=#F1F2F4;strokeColor=none;html=1;fontColor=#596780;align=left;fontSize=12;spacingLeft=10;shadow=0;sketch=0;" vertex="1" parent="P565BMBygYdm6OfglMrN-1">
          <mxGeometry x="40.00000000000004" y="1559" width="80" height="30" as="geometry" />
        </mxCell>
        <mxCell id="g7P-NBzQ6pZ7r6BSA7Zd-141" value="" style="shape=triangle;direction=south;fillColor=#596780;strokeColor=none;html=1" vertex="1" parent="g7P-NBzQ6pZ7r6BSA7Zd-140">
          <mxGeometry x="1" y="0.5" width="12" height="6" relative="1" as="geometry">
            <mxPoint x="-20" y="-3" as="offset" />
          </mxGeometry>
        </mxCell>
        <mxCell id="g7P-NBzQ6pZ7r6BSA7Zd-142" value="Level 1" style="rounded=1;fillColor=#F1F2F4;strokeColor=none;html=1;fontColor=#596780;align=left;fontSize=12;spacingLeft=10;shadow=0;sketch=0;" vertex="1" parent="P565BMBygYdm6OfglMrN-1">
          <mxGeometry x="40.000000000000114" y="1403.5" width="80" height="30" as="geometry" />
        </mxCell>
        <mxCell id="g7P-NBzQ6pZ7r6BSA7Zd-143" value="" style="shape=triangle;direction=south;fillColor=#596780;strokeColor=none;html=1" vertex="1" parent="g7P-NBzQ6pZ7r6BSA7Zd-142">
          <mxGeometry x="1" y="0.5" width="12" height="6" relative="1" as="geometry">
            <mxPoint x="-20" y="-3" as="offset" />
          </mxGeometry>
        </mxCell>
        <mxCell id="g7P-NBzQ6pZ7r6BSA7Zd-144" value="Level 2" style="rounded=1;fillColor=#F1F2F4;strokeColor=none;html=1;fontColor=#596780;align=left;fontSize=12;spacingLeft=10;shadow=0;sketch=0;" vertex="1" parent="P565BMBygYdm6OfglMrN-1">
          <mxGeometry x="40.000000000000114" y="1439" width="80" height="30" as="geometry" />
        </mxCell>
        <mxCell id="g7P-NBzQ6pZ7r6BSA7Zd-145" value="" style="shape=triangle;direction=south;fillColor=#596780;strokeColor=none;html=1" vertex="1" parent="g7P-NBzQ6pZ7r6BSA7Zd-144">
          <mxGeometry x="1" y="0.5" width="12" height="6" relative="1" as="geometry">
            <mxPoint x="-20" y="-3" as="offset" />
          </mxGeometry>
        </mxCell>
        <mxCell id="g7P-NBzQ6pZ7r6BSA7Zd-146" value="Filter" style="html=1;shadow=0;dashed=0;shape=mxgraph.bootstrap.rrect;rSize=5;fillColor=#0085FC;strokeColor=none;fontColor=#FFFFFF;fontSize=14;" vertex="1" parent="P565BMBygYdm6OfglMrN-1">
          <mxGeometry x="110.5" y="1710" width="91" height="40" as="geometry" />
        </mxCell>
        <mxCell id="g7P-NBzQ6pZ7r6BSA7Zd-147" value="Cancel" style="html=1;shadow=0;dashed=0;shape=mxgraph.bootstrap.rrect;rSize=5;fillColor=#6C757D;strokeColor=none;fontColor=#FFFFFF;fontSize=14;" vertex="1" parent="P565BMBygYdm6OfglMrN-1">
          <mxGeometry x="206" y="1710" width="70" height="40" as="geometry" />
        </mxCell>
        <mxCell id="g7P-NBzQ6pZ7r6BSA7Zd-148" value="&lt;font color=&quot;#666666&quot; style=&quot;font-size: 16px;&quot;&gt;Filter&lt;/font&gt;" style="text;strokeColor=none;fillColor=none;html=1;fontSize=16;fontStyle=1;verticalAlign=middle;align=center;labelBackgroundColor=none;sketch=0;" vertex="1" parent="P565BMBygYdm6OfglMrN-1">
          <mxGeometry x="20" y="1087" width="77" height="32" as="geometry" />
        </mxCell>
        <mxCell id="g7P-NBzQ6pZ7r6BSA7Zd-149" value="Level 3" style="rounded=1;fillColor=#F1F2F4;strokeColor=none;html=1;fontColor=#596780;align=left;fontSize=12;spacingLeft=10;shadow=0;sketch=0;" vertex="1" parent="P565BMBygYdm6OfglMrN-1">
          <mxGeometry x="40.000000000000114" y="1478" width="80" height="30" as="geometry" />
        </mxCell>
        <mxCell id="g7P-NBzQ6pZ7r6BSA7Zd-150" value="" style="shape=triangle;direction=south;fillColor=#596780;strokeColor=none;html=1" vertex="1" parent="g7P-NBzQ6pZ7r6BSA7Zd-149">
          <mxGeometry x="1" y="0.5" width="12" height="6" relative="1" as="geometry">
            <mxPoint x="-20" y="-3" as="offset" />
          </mxGeometry>
        </mxCell>
        <mxCell id="g7P-NBzQ6pZ7r6BSA7Zd-151" value="" style="line;strokeWidth=1;fillColor=none;align=left;verticalAlign=middle;spacingTop=-1;spacingLeft=3;spacingRight=3;rotatable=0;labelPosition=right;points=[];portConstraint=eastwest;strokeColor=#E6E6E6;" vertex="1" parent="P565BMBygYdm6OfglMrN-1">
          <mxGeometry x="21" y="1698" width="259" height="8" as="geometry" />
        </mxCell>
        <mxCell id="g7P-NBzQ6pZ7r6BSA7Zd-152" value="" style="shape=ellipse;dashed=0;strokeColor=none;shadow=1;fontSize=13;align=center;verticalAlign=top;labelPosition=center;verticalLabelPosition=bottom;html=1;aspect=fixed;" vertex="1" parent="P565BMBygYdm6OfglMrN-1">
          <mxGeometry x="933" y="1119" width="23.95" height="23.95" as="geometry" />
        </mxCell>
        <mxCell id="g7P-NBzQ6pZ7r6BSA7Zd-153" value="" style="dashed=0;html=1;shape=mxgraph.gmdl.plus;strokeColor=#737373;strokeWidth=2;shadow=0;" vertex="1" parent="g7P-NBzQ6pZ7r6BSA7Zd-152">
          <mxGeometry x="7.1850000000000005" y="7.1850000000000005" width="9.579999999999998" height="9.579999999999998" as="geometry" />
        </mxCell>
        <mxCell id="g7P-NBzQ6pZ7r6BSA7Zd-174" value="Add System to Hold" style="html=1;shadow=0;dashed=0;shape=mxgraph.bootstrap.rrect;rSize=5;html=1;strokeColor=#C8C8C8;fillColor=#ffffff;whiteSpace=wrap;verticalAlign=top;align=left;fontSize=18;spacing=15;spacingTop=-5;" vertex="1" parent="P565BMBygYdm6OfglMrN-1">
          <mxGeometry x="1120" y="1137" width="500" height="560" as="geometry" />
        </mxCell>
        <mxCell id="g7P-NBzQ6pZ7r6BSA7Zd-175" value="" style="shape=line;strokeColor=#dddddd;resizeWidth=1;" vertex="1" parent="g7P-NBzQ6pZ7r6BSA7Zd-174">
          <mxGeometry width="490.00000000000006" height="10" relative="1" as="geometry">
            <mxPoint y="50" as="offset" />
          </mxGeometry>
        </mxCell>
        <mxCell id="g7P-NBzQ6pZ7r6BSA7Zd-176" value="" style="html=1;shadow=0;dashed=0;shape=mxgraph.bootstrap.x;strokeColor=#868686;strokeWidth=2;" vertex="1" parent="g7P-NBzQ6pZ7r6BSA7Zd-174">
          <mxGeometry x="1" width="8" height="8" relative="1" as="geometry">
            <mxPoint x="-24" y="20" as="offset" />
          </mxGeometry>
        </mxCell>
        <mxCell id="g7P-NBzQ6pZ7r6BSA7Zd-177" value="" style="shape=line;strokeColor=#dddddd;resizeWidth=1;" vertex="1" parent="g7P-NBzQ6pZ7r6BSA7Zd-174">
          <mxGeometry width="490.00000000000006" height="10" relative="1" as="geometry">
            <mxPoint y="480" as="offset" />
          </mxGeometry>
        </mxCell>
        <mxCell id="g7P-NBzQ6pZ7r6BSA7Zd-178" value="Proceed" style="html=1;shadow=0;dashed=0;shape=mxgraph.bootstrap.rrect;rSize=5;fillColor=#0085FC;strokeColor=none;fontColor=#FFFFFF;fontSize=14;" vertex="1" parent="g7P-NBzQ6pZ7r6BSA7Zd-174">
          <mxGeometry x="1" y="1" width="110" height="40" relative="1" as="geometry">
            <mxPoint x="-130" y="-60" as="offset" />
          </mxGeometry>
        </mxCell>
        <mxCell id="g7P-NBzQ6pZ7r6BSA7Zd-179" value="Cancel" style="html=1;shadow=0;dashed=0;shape=mxgraph.bootstrap.rrect;rSize=5;fillColor=#6C757D;strokeColor=none;fontColor=#FFFFFF;fontSize=14;" vertex="1" parent="g7P-NBzQ6pZ7r6BSA7Zd-174">
          <mxGeometry x="1" y="1" width="70" height="40" relative="1" as="geometry">
            <mxPoint x="-220" y="-60" as="offset" />
          </mxGeometry>
        </mxCell>
        <mxCell id="g7P-NBzQ6pZ7r6BSA7Zd-180" value="1" style="shape=ellipse;strokeColor=none;fontColor=#ffffff;fillColor=#9E9E9E;" vertex="1" parent="g7P-NBzQ6pZ7r6BSA7Zd-174">
          <mxGeometry x="10" y="100" width="24" height="24" as="geometry" />
        </mxCell>
        <mxCell id="g7P-NBzQ6pZ7r6BSA7Zd-181" value="System Selection" style="shape=rect;strokeColor=none;fillColor=none;align=left;fontStyle=0;fontColor=#9E9E9E;" vertex="1" parent="g7P-NBzQ6pZ7r6BSA7Zd-174">
          <mxGeometry x="46" y="100" width="200" height="24" as="geometry" />
        </mxCell>
        <mxCell id="g7P-NBzQ6pZ7r6BSA7Zd-182" value="" style="shape=line;direction=north;strokeColor=#b3b3b3;" vertex="1" parent="g7P-NBzQ6pZ7r6BSA7Zd-174">
          <mxGeometry x="17" y="130" width="10" height="30" as="geometry" />
        </mxCell>
        <mxCell id="g7P-NBzQ6pZ7r6BSA7Zd-183" value="2" style="shape=ellipse;strokeColor=none;fontColor=#ffffff;fillColor=#0085FC;" vertex="1" parent="g7P-NBzQ6pZ7r6BSA7Zd-174">
          <mxGeometry x="10" y="170" width="24" height="24" as="geometry" />
        </mxCell>
        <mxCell id="g7P-NBzQ6pZ7r6BSA7Zd-184" value="Queries Against Data" style="shape=rect;strokeColor=none;fillColor=none;align=left;fontStyle=1" vertex="1" parent="g7P-NBzQ6pZ7r6BSA7Zd-174">
          <mxGeometry x="46" y="170" width="200" height="24" as="geometry" />
        </mxCell>
        <mxCell id="g7P-NBzQ6pZ7r6BSA7Zd-185" value="3" style="shape=ellipse;strokeColor=none;fillColor=#9e9e9e;fontColor=#ffffff;" vertex="1" parent="g7P-NBzQ6pZ7r6BSA7Zd-174">
          <mxGeometry x="10" y="442" width="24" height="24" as="geometry" />
        </mxCell>
        <mxCell id="g7P-NBzQ6pZ7r6BSA7Zd-186" value="Certification and Authorization" style="shape=rect;strokeColor=none;fillColor=none;align=left;fontColor=#aaaaaa;" vertex="1" parent="g7P-NBzQ6pZ7r6BSA7Zd-174">
          <mxGeometry x="46" y="442" width="200" height="24" as="geometry" />
        </mxCell>
        <mxCell id="g7P-NBzQ6pZ7r6BSA7Zd-187" value="" style="shape=line;direction=north;strokeColor=#b3b3b3;" vertex="1" parent="g7P-NBzQ6pZ7r6BSA7Zd-174">
          <mxGeometry x="17" y="200" width="10" height="235" as="geometry" />
        </mxCell>
        <mxCell id="g7P-NBzQ6pZ7r6BSA7Zd-188" value="Define the system that should have records held and specify the query or queries used to define those records." style="text;html=1;strokeColor=none;fillColor=none;align=left;verticalAlign=top;whiteSpace=wrap;rounded=0;shadow=1;dashed=1;labelBackgroundColor=none;sketch=0;fontSize=9;opacity=30;" vertex="1" parent="g7P-NBzQ6pZ7r6BSA7Zd-174">
          <mxGeometry x="10" y="60" width="470" height="40" as="geometry" />
        </mxCell>
        <mxCell id="g7P-NBzQ6pZ7r6BSA7Zd-189" value="&lt;font style=&quot;font-size: 12px&quot;&gt;Query&lt;/font&gt;" style="html=1;shadow=0;dashed=0;shape=mxgraph.bootstrap.rrect;rSize=5;strokeColor=#CED4DA;html=1;whiteSpace=wrap;fillColor=#FFFFFF;fontColor=#7D868C;align=left;spacing=2;spacingLeft=10;fontSize=14;verticalAlign=top;" vertex="1" parent="g7P-NBzQ6pZ7r6BSA7Zd-174">
          <mxGeometry x="130" y="200" width="320" height="50" as="geometry" />
        </mxCell>
        <mxCell id="g7P-NBzQ6pZ7r6BSA7Zd-190" value="Next" style="shape=rect;strokeColor=none;fillColor=#4285f4;fontColor=#ffffff;rounded=1;" vertex="1" parent="g7P-NBzQ6pZ7r6BSA7Zd-174">
          <mxGeometry x="46" y="399" width="102" height="36" as="geometry" />
        </mxCell>
        <mxCell id="g7P-NBzQ6pZ7r6BSA7Zd-191" value="Cancel" style="html=1;shadow=0;dashed=0;shape=mxgraph.bootstrap.rrect;rSize=5;fillColor=#6C757D;strokeColor=none;fontColor=#FFFFFF;fontSize=14;" vertex="1" parent="g7P-NBzQ6pZ7r6BSA7Zd-174">
          <mxGeometry x="156.00402733964256" y="399" width="70" height="36" as="geometry" />
        </mxCell>
        <mxCell id="g7P-NBzQ6pZ7r6BSA7Zd-192" value="Enabled" style="shape=ellipse;rounded=1;fillColor=#F0F2F5;strokeColor=#D8DCE3;fontColor=#000000;align=left;verticalAlign=middle;fontStyle=0;fontSize=12;labelPosition=right;verticalLabelPosition=middle;spacingLeft=10;html=1;shadow=0;dashed=0" vertex="1" parent="g7P-NBzQ6pZ7r6BSA7Zd-174">
          <mxGeometry x="46" y="200" width="12" height="12" as="geometry" />
        </mxCell>
        <mxCell id="g7P-NBzQ6pZ7r6BSA7Zd-193" value="Disabled" style="shape=ellipse;fillColor=#ffffff;strokeColor=#0057D8;strokeWidth=4;fontColor=#000000;align=left;verticalAlign=middle;fontStyle=0;fontSize=12;labelPosition=right;verticalLabelPosition=middle;spacingLeft=10" vertex="1" parent="g7P-NBzQ6pZ7r6BSA7Zd-174">
          <mxGeometry x="47" y="226" width="10" height="10" as="geometry" />
        </mxCell>
        <mxCell id="g7P-NBzQ6pZ7r6BSA7Zd-194" value="&lt;font style=&quot;font-size: 12px&quot;&gt;Query&lt;/font&gt;" style="html=1;shadow=0;dashed=0;shape=mxgraph.bootstrap.rrect;rSize=5;strokeColor=#CED4DA;html=1;whiteSpace=wrap;fillColor=#FFFFFF;fontColor=#7D868C;align=left;spacing=2;spacingLeft=10;fontSize=14;verticalAlign=top;" vertex="1" parent="g7P-NBzQ6pZ7r6BSA7Zd-174">
          <mxGeometry x="130" y="260" width="320" height="50" as="geometry" />
        </mxCell>
        <mxCell id="g7P-NBzQ6pZ7r6BSA7Zd-195" value="" style="shape=ellipse;dashed=0;strokeColor=none;shadow=1;fontSize=13;align=center;verticalAlign=top;labelPosition=center;verticalLabelPosition=bottom;html=1;aspect=fixed;" vertex="1" parent="g7P-NBzQ6pZ7r6BSA7Zd-174">
          <mxGeometry x="460" y="260.05" width="23.95" height="23.95" as="geometry" />
        </mxCell>
        <mxCell id="g7P-NBzQ6pZ7r6BSA7Zd-196" value="" style="dashed=0;html=1;shape=mxgraph.gmdl.plus;strokeColor=#737373;strokeWidth=2;shadow=0;" vertex="1" parent="g7P-NBzQ6pZ7r6BSA7Zd-195">
          <mxGeometry x="7.1850000000000005" y="7.1850000000000005" width="9.579999999999998" height="9.579999999999998" as="geometry" />
        </mxCell>
        <mxCell id="g7P-NBzQ6pZ7r6BSA7Zd-197" value="Enabled" style="shape=ellipse;fillColor=#ffffff;strokeColor=#0057D8;strokeWidth=4;fontColor=#000000;align=left;verticalAlign=middle;fontStyle=0;fontSize=12;labelPosition=right;verticalLabelPosition=middle;spacingLeft=10" vertex="1" parent="g7P-NBzQ6pZ7r6BSA7Zd-174">
          <mxGeometry x="47" y="262.75" width="10" height="10" as="geometry" />
        </mxCell>
        <mxCell id="g7P-NBzQ6pZ7r6BSA7Zd-198" value="Disabled" style="shape=ellipse;rounded=1;fillColor=#F0F2F5;strokeColor=#D8DCE3;fontColor=#000000;align=left;verticalAlign=middle;fontStyle=0;fontSize=12;labelPosition=right;verticalLabelPosition=middle;spacingLeft=10;html=1;shadow=0;dashed=0" vertex="1" parent="g7P-NBzQ6pZ7r6BSA7Zd-174">
          <mxGeometry x="46" y="285.25" width="12" height="12" as="geometry" />
        </mxCell>
        <mxCell id="g7P-NBzQ6pZ7r6BSA7Zd-201" value="" style="rounded=0;whiteSpace=wrap;html=1;" vertex="1" parent="P565BMBygYdm6OfglMrN-1">
          <mxGeometry x="31" y="1920" width="1069" height="750" as="geometry" />
        </mxCell>
        <mxCell id="g7P-NBzQ6pZ7r6BSA7Zd-202" value="" style="rounded=0;whiteSpace=wrap;html=1;fillColor=#3333FF;" vertex="1" parent="P565BMBygYdm6OfglMrN-1">
          <mxGeometry x="31" y="1860" width="1069" height="60" as="geometry" />
        </mxCell>
        <mxCell id="g7P-NBzQ6pZ7r6BSA7Zd-203" value="&lt;font style=&quot;font-size: 14px&quot;&gt;FEEDBACK&lt;/font&gt;" style="rounded=1;whiteSpace=wrap;html=1;fillColor=#FF8000;strokeColor=#FF8000;fontColor=#FFFFFF;" vertex="1" parent="P565BMBygYdm6OfglMrN-1">
          <mxGeometry x="968" y="1870" width="120" height="40" as="geometry" />
        </mxCell>
        <mxCell id="g7P-NBzQ6pZ7r6BSA7Zd-204" value="" style="shape=image;html=1;verticalAlign=top;verticalLabelPosition=bottom;labelBackgroundColor=#ffffff;imageAspect=0;aspect=fixed;image=https://cdn3.iconfinder.com/data/icons/social-media-2125/78/bell-128.png;strokeColor=#FF8000;fillColor=#FF8000;fontColor=#FFFFFF;" vertex="1" parent="P565BMBygYdm6OfglMrN-1">
          <mxGeometry x="906" y="1870" width="37" height="37" as="geometry" />
        </mxCell>
        <mxCell id="g7P-NBzQ6pZ7r6BSA7Zd-205" value="" style="whiteSpace=wrap;html=1;shape=mxgraph.basic.octagon2;align=center;verticalAlign=middle;dx=12;shadow=0;sketch=0;fontSize=20;fontColor=#808080;fillColor=#FF8000;strokeColor=#FF8000;" vertex="1" parent="P565BMBygYdm6OfglMrN-1">
          <mxGeometry x="41" y="1866.5" width="56" height="42" as="geometry" />
        </mxCell>
        <mxCell id="g7P-NBzQ6pZ7r6BSA7Zd-206" value="Eva" style="text;html=1;strokeColor=none;fillColor=none;align=center;verticalAlign=middle;whiteSpace=wrap;rounded=0;shadow=0;sketch=0;fontSize=20;fontColor=#FFFFFF;fontStyle=1" vertex="1" parent="P565BMBygYdm6OfglMrN-1">
          <mxGeometry x="107" y="1880" width="40" height="20" as="geometry" />
        </mxCell>
        <mxCell id="g7P-NBzQ6pZ7r6BSA7Zd-207" value="" style="html=1;verticalLabelPosition=bottom;align=center;labelBackgroundColor=#ffffff;verticalAlign=top;strokeWidth=2;shadow=0;dashed=0;shape=mxgraph.ios7.icons.user;sketch=0;fontSize=20;fontColor=#FFFFFF;fillColor=#FFFFFF;" vertex="1" parent="P565BMBygYdm6OfglMrN-1">
          <mxGeometry x="754" y="1875" width="30" height="30" as="geometry" />
        </mxCell>
        <mxCell id="g7P-NBzQ6pZ7r6BSA7Zd-208" value="John Doe" style="text;html=1;strokeColor=none;fillColor=none;align=center;verticalAlign=middle;whiteSpace=wrap;rounded=0;shadow=0;sketch=0;fontSize=19;fontColor=#FFFFFF;" vertex="1" parent="P565BMBygYdm6OfglMrN-1">
          <mxGeometry x="797.5" y="1880" width="94" height="20" as="geometry" />
        </mxCell>
        <mxCell id="g7P-NBzQ6pZ7r6BSA7Zd-209" value="&amp;lt;Classification Here&amp;gt;" style="rounded=0;whiteSpace=wrap;html=1;shadow=0;sketch=0;fontSize=12;align=center;fillColor=#FFFF33;" vertex="1" parent="P565BMBygYdm6OfglMrN-1">
          <mxGeometry x="31" y="1840" width="1069" height="20" as="geometry" />
        </mxCell>
        <mxCell id="g7P-NBzQ6pZ7r6BSA7Zd-210" value="" style="line;strokeWidth=1;fillColor=none;align=left;verticalAlign=middle;spacingTop=-1;spacingLeft=3;spacingRight=3;rotatable=0;labelPosition=right;points=[];portConstraint=eastwest;sketch=0;direction=south;" vertex="1" parent="P565BMBygYdm6OfglMrN-1">
          <mxGeometry x="286" y="1999" width="8" height="671" as="geometry" />
        </mxCell>
        <mxCell id="g7P-NBzQ6pZ7r6BSA7Zd-211" value="" style="group;labelBackgroundColor=#ffffff;" connectable="0" vertex="1" parent="P565BMBygYdm6OfglMrN-1">
          <mxGeometry x="350" y="1931" width="749" height="66.5" as="geometry" />
        </mxCell>
        <mxCell id="g7P-NBzQ6pZ7r6BSA7Zd-212" value="" style="html=1;shadow=0;dashed=0;fillColor=#F8F9FA;strokeColor=none;fontSize=16;fontColor=#181819;align=left;spacing=15;" vertex="1" parent="g7P-NBzQ6pZ7r6BSA7Zd-211">
          <mxGeometry width="749" height="66.5" as="geometry" />
        </mxCell>
        <mxCell id="g7P-NBzQ6pZ7r6BSA7Zd-213" value="" style="rounded=0;whiteSpace=wrap;html=1;fillColor=#F8F9FA;" vertex="1" parent="g7P-NBzQ6pZ7r6BSA7Zd-212">
          <mxGeometry x="-319" y="-12.5" width="1068" height="79" as="geometry" />
        </mxCell>
        <mxCell id="g7P-NBzQ6pZ7r6BSA7Zd-214" value="Search" style="html=1;shadow=0;dashed=0;shape=mxgraph.bootstrap.rrect;rSize=5;fontSize=14;fontColor=#6C767D;strokeColor=#CED4DA;fillColor=#ffffff;align=left;spacing=10;" vertex="1" parent="g7P-NBzQ6pZ7r6BSA7Zd-212">
          <mxGeometry width="470" height="40" relative="1" as="geometry">
            <mxPoint x="-46" y="7" as="offset" />
          </mxGeometry>
        </mxCell>
        <mxCell id="g7P-NBzQ6pZ7r6BSA7Zd-215" value="" style="ellipse;whiteSpace=wrap;html=1;fillColor=#FFFFFF;" vertex="1" parent="g7P-NBzQ6pZ7r6BSA7Zd-212">
          <mxGeometry x="369.67961165048536" y="19" width="10.776699029126211" height="10" as="geometry" />
        </mxCell>
        <mxCell id="g7P-NBzQ6pZ7r6BSA7Zd-216" value="" style="endArrow=none;html=1;" edge="1" parent="g7P-NBzQ6pZ7r6BSA7Zd-212">
          <mxGeometry width="50" height="50" relative="1" as="geometry">
            <mxPoint x="380.4563106796116" y="29" as="sourcePoint" />
            <mxPoint x="380.4563106796116" y="29" as="targetPoint" />
            <Array as="points">
              <mxPoint x="391.23300970873777" y="37" />
            </Array>
          </mxGeometry>
        </mxCell>
        <mxCell id="g7P-NBzQ6pZ7r6BSA7Zd-217" value="" style="triangle;whiteSpace=wrap;html=1;rotation=90;fillColor=#000000;" vertex="1" parent="g7P-NBzQ6pZ7r6BSA7Zd-212">
          <mxGeometry x="402.00970873786395" y="22" width="10.776699029126211" height="10" as="geometry" />
        </mxCell>
        <mxCell id="g7P-NBzQ6pZ7r6BSA7Zd-218" value="" style="shape=ellipse;dashed=0;strokeColor=none;shadow=1;fontSize=13;align=center;verticalAlign=top;labelPosition=center;verticalLabelPosition=bottom;html=1;aspect=fixed;" vertex="1" parent="g7P-NBzQ6pZ7r6BSA7Zd-211">
          <mxGeometry x="436.5" y="7" width="40" height="40" as="geometry" />
        </mxCell>
        <mxCell id="g7P-NBzQ6pZ7r6BSA7Zd-219" value="" style="dashed=0;html=1;shape=mxgraph.gmdl.plus;strokeColor=#737373;strokeWidth=2;shadow=0;" vertex="1" parent="g7P-NBzQ6pZ7r6BSA7Zd-218">
          <mxGeometry x="12" y="12" width="16" height="16" as="geometry" />
        </mxCell>
        <mxCell id="g7P-NBzQ6pZ7r6BSA7Zd-220" value="" style="line;strokeWidth=1;fillColor=none;align=left;verticalAlign=middle;spacingTop=-1;spacingLeft=3;spacingRight=3;rotatable=0;labelPosition=right;points=[];portConstraint=eastwest;sketch=0;direction=west;" vertex="1" parent="P565BMBygYdm6OfglMrN-1">
          <mxGeometry x="33" y="1994" width="1067" height="8" as="geometry" />
        </mxCell>
        <mxCell id="g7P-NBzQ6pZ7r6BSA7Zd-221" value="" style="line;strokeWidth=1;fillColor=none;align=left;verticalAlign=middle;spacingTop=-1;spacingLeft=3;spacingRight=3;rotatable=0;labelPosition=right;points=[];portConstraint=eastwest;sketch=0;direction=south;" vertex="1" parent="P565BMBygYdm6OfglMrN-1">
          <mxGeometry x="562" y="2039" width="8" height="630" as="geometry" />
        </mxCell>
        <mxCell id="g7P-NBzQ6pZ7r6BSA7Zd-222" value="" style="perimeter=none;dashed=0;shape=mxgraph.gmdl.triangle;strokeColor=none;fillColor=#666666;direction=south;aspect=fixed;" vertex="1" parent="P565BMBygYdm6OfglMrN-1">
          <mxGeometry x="276" y="2341" width="8" height="16" as="geometry">
            <mxPoint x="-27" as="offset" />
          </mxGeometry>
        </mxCell>
        <mxCell id="g7P-NBzQ6pZ7r6BSA7Zd-223" value="" style="rounded=0;whiteSpace=wrap;html=1;fontSize=20;align=left;fillColor=#3333FF;" vertex="1" parent="P565BMBygYdm6OfglMrN-1">
          <mxGeometry x="290" y="1998" width="276" height="40" as="geometry" />
        </mxCell>
        <mxCell id="g7P-NBzQ6pZ7r6BSA7Zd-224" value="" style="html=1;shadow=0;dashed=0;shape=mxgraph.bootstrap.rrect;rSize=5;strokeColor=#DFDFDF;html=1;whiteSpace=wrap;fillColor=#FFFFFF;fontColor=#495057;" vertex="1" parent="P565BMBygYdm6OfglMrN-1">
          <mxGeometry x="293" y="2040" width="260" height="300" as="geometry" />
        </mxCell>
        <mxCell id="g7P-NBzQ6pZ7r6BSA7Zd-225" value="&lt;font style=&quot;font-size: 16px&quot;&gt;Hold Title #1&lt;/font&gt;&lt;br&gt;Guide: 123456/1258d25s8f22f&lt;br&gt;other data goes here" style="html=1;shadow=0;dashed=0;shape=mxgraph.bootstrap.topButton;rSize=5;perimeter=none;whiteSpace=wrap;resizeWidth=1;align=left;spacing=10;verticalAlign=top;fillColor=#0085FC;strokeColor=#0085FC;fontColor=#ffffff;" vertex="1" parent="g7P-NBzQ6pZ7r6BSA7Zd-224">
          <mxGeometry width="260" height="100" relative="1" as="geometry" />
        </mxCell>
        <mxCell id="g7P-NBzQ6pZ7r6BSA7Zd-226" value="&lt;font style=&quot;font-size: 16px&quot;&gt;Hold Title #2&lt;/font&gt;&lt;br&gt;Guide: 185576/58d6s8dd222dgf8&lt;br&gt;Other data goes here&lt;br&gt;&lt;br&gt;" style="strokeColor=inherit;fillColor=inherit;gradientColor=inherit;fontColor=inherit;html=1;shadow=0;dashed=0;perimeter=none;whiteSpace=wrap;resizeWidth=1;align=left;spacing=10;" vertex="1" parent="g7P-NBzQ6pZ7r6BSA7Zd-224">
          <mxGeometry width="260" height="100" relative="1" as="geometry">
            <mxPoint y="100" as="offset" />
          </mxGeometry>
        </mxCell>
        <mxCell id="g7P-NBzQ6pZ7r6BSA7Zd-227" value="&lt;font style=&quot;font-size: 16px&quot;&gt;Hold Title #3&lt;/font&gt;&lt;br&gt;Guide: 123456/88d55s6c8fs6&lt;br&gt;other data goes here&lt;br&gt;&lt;br&gt;" style="strokeColor=inherit;fillColor=inherit;gradientColor=inherit;fontColor=inherit;html=1;shadow=0;dashed=0;shape=mxgraph.bootstrap.bottomButton;rSize=5;perimeter=none;whiteSpace=wrap;resizeWidth=1;resizeHeight=0;align=left;spacing=10;" vertex="1" parent="g7P-NBzQ6pZ7r6BSA7Zd-224">
          <mxGeometry y="1" width="260" height="100" relative="1" as="geometry">
            <mxPoint y="-100" as="offset" />
          </mxGeometry>
        </mxCell>
        <mxCell id="g7P-NBzQ6pZ7r6BSA7Zd-228" value="Holds" style="text;html=1;strokeColor=none;fillColor=none;align=left;verticalAlign=middle;whiteSpace=wrap;rounded=0;labelPosition=center;verticalLabelPosition=middle;fontSize=16;fontStyle=1;fontColor=#FFFFFF;" vertex="1" parent="P565BMBygYdm6OfglMrN-1">
          <mxGeometry x="297" y="2008" width="258" height="20" as="geometry" />
        </mxCell>
        <mxCell id="g7P-NBzQ6pZ7r6BSA7Zd-229" value="" style="html=1;verticalLabelPosition=bottom;labelBackgroundColor=#ffffff;verticalAlign=top;shadow=0;dashed=0;strokeWidth=2;shape=mxgraph.ios7.misc.scroll_(vertical);fillColor=#a0a0a0;sketch=0;" vertex="1" parent="P565BMBygYdm6OfglMrN-1">
          <mxGeometry x="558" y="2047" width="6" height="80" as="geometry" />
        </mxCell>
        <mxCell id="g7P-NBzQ6pZ7r6BSA7Zd-230" value="" style="group" connectable="0" vertex="1" parent="P565BMBygYdm6OfglMrN-1">
          <mxGeometry x="567" y="1999" width="530" height="500" as="geometry" />
        </mxCell>
        <mxCell id="g7P-NBzQ6pZ7r6BSA7Zd-231" value="Hold Title #1" style="shape=rect;fillColor=#ffffff;strokeColor=#eeeeee;shadow=1;fontColor=#000000;fontSize=23;fontStyle=0;verticalAlign=top;spacingBottom=0;spacingLeft=16;spacingTop=20;align=left;rounded=0;" vertex="1" parent="g7P-NBzQ6pZ7r6BSA7Zd-230">
          <mxGeometry width="530" height="500" as="geometry" />
        </mxCell>
        <mxCell id="g7P-NBzQ6pZ7r6BSA7Zd-232" value="Guide: 123456/1258d25s8f22f" style="text;fontSize=12;fontStyle=4;verticalAlign=middle;spacingBottom=0;spacingLeft=16;resizeWidth=1;fontColor=#0645AD;" vertex="1" parent="g7P-NBzQ6pZ7r6BSA7Zd-231">
          <mxGeometry width="530" height="20" relative="1" as="geometry">
            <mxPoint y="59" as="offset" />
          </mxGeometry>
        </mxCell>
        <mxCell id="g7P-NBzQ6pZ7r6BSA7Zd-233" value="Description:&#xa;&#xa;&#xa;Originating Org:&#xa;&#xa;Hold Type:&#xa;&#xa;Hold Expiration:&#xa;&#xa;Responsive Systems:&#xa;&#xa;Data Classification:&#xa;&#xa;Scope:&#xa;&#xa;PII Eligible:&#xa;&#xa;PII Type:&#xa;&#xa;?????:&#xa;&#xa;IMO Assigned:&#xa;" style="text;whiteSpace=wrap;fontSize=13;spacing=16;spacingTop=-4;resizeWidth=1;resizeHeight=1;fontStyle=1" vertex="1" parent="g7P-NBzQ6pZ7r6BSA7Zd-231">
          <mxGeometry width="170" height="333.33" relative="1" as="geometry">
            <mxPoint x="5" y="80" as="offset" />
          </mxGeometry>
        </mxCell>
        <mxCell id="g7P-NBzQ6pZ7r6BSA7Zd-234" value="Assign" style="shape=rect;strokeColor=#666666;fontColor=#333333;fontStyle=1;shadow=1;rounded=1;fillColor=#F8F9FA;" vertex="1" parent="g7P-NBzQ6pZ7r6BSA7Zd-231">
          <mxGeometry y="1" width="70" height="40" relative="1" as="geometry">
            <mxPoint x="8" y="-48" as="offset" />
          </mxGeometry>
        </mxCell>
        <mxCell id="g7P-NBzQ6pZ7r6BSA7Zd-235" value="Review" style="shape=rect;strokeColor=#666666;fontColor=#333333;fontStyle=1;shadow=1;sketch=0;rounded=1;fillColor=#F8F9FA;" vertex="1" parent="g7P-NBzQ6pZ7r6BSA7Zd-231">
          <mxGeometry y="1" width="70" height="40" relative="1" as="geometry">
            <mxPoint x="86" y="-48" as="offset" />
          </mxGeometry>
        </mxCell>
        <mxCell id="g7P-NBzQ6pZ7r6BSA7Zd-236" value="&amp;lt;Classification Here&amp;gt;" style="rounded=0;whiteSpace=wrap;html=1;shadow=0;sketch=0;fontSize=12;align=center;fillColor=#FFFF33;" vertex="1" parent="g7P-NBzQ6pZ7r6BSA7Zd-231">
          <mxGeometry y="0.6296296296296298" width="530" height="18.51851851851852" as="geometry" />
        </mxCell>
        <mxCell id="g7P-NBzQ6pZ7r6BSA7Zd-237" value="This hold was created in response to _________.  It contains objects responsive the search criteria defined within _________." style="text;whiteSpace=wrap;fontSize=10;spacing=16;spacingTop=-4;resizeWidth=1;resizeHeight=1;" vertex="1" parent="g7P-NBzQ6pZ7r6BSA7Zd-231">
          <mxGeometry x="152.8846153846154" y="74.07407407407408" width="336.3461538461539" height="55.55555555555556" as="geometry" />
        </mxCell>
        <mxCell id="g7P-NBzQ6pZ7r6BSA7Zd-238" value="PPP/QQQ/RRR/ZZZ&#xa;" style="text;whiteSpace=wrap;fontSize=10;spacing=16;spacingTop=-4;resizeWidth=1;resizeHeight=1;" vertex="1" parent="g7P-NBzQ6pZ7r6BSA7Zd-231">
          <mxGeometry x="152.8846153846154" y="128.63037037037037" width="336.3461538461539" height="37.03703703703704" as="geometry" />
        </mxCell>
        <mxCell id="g7P-NBzQ6pZ7r6BSA7Zd-239" value="FOIA" style="text;whiteSpace=wrap;fontSize=10;spacing=16;spacingTop=-4;resizeWidth=1;resizeHeight=1;" vertex="1" parent="g7P-NBzQ6pZ7r6BSA7Zd-231">
          <mxGeometry x="152.8846153846154" y="157.40814814814814" width="336.3461538461539" height="37.03703703703704" as="geometry" />
        </mxCell>
        <mxCell id="g7P-NBzQ6pZ7r6BSA7Zd-240" value="February 21, 2023" style="text;whiteSpace=wrap;fontSize=10;spacing=16;spacingTop=-4;resizeWidth=1;resizeHeight=1;" vertex="1" parent="g7P-NBzQ6pZ7r6BSA7Zd-231">
          <mxGeometry x="152.8846153846154" y="189.99592592592592" width="336.3461538461539" height="37.03703703703704" as="geometry" />
        </mxCell>
        <mxCell id="g7P-NBzQ6pZ7r6BSA7Zd-241" value="System X, System Y, System Z" style="text;whiteSpace=wrap;fontSize=10;spacing=16;spacingTop=-4;resizeWidth=1;resizeHeight=1;" vertex="1" parent="g7P-NBzQ6pZ7r6BSA7Zd-231">
          <mxGeometry x="152.8846153846154" y="220.0037037037037" width="336.3461538461539" height="37.03703703703704" as="geometry" />
        </mxCell>
        <mxCell id="g7P-NBzQ6pZ7r6BSA7Zd-242" value="Spooky" style="text;whiteSpace=wrap;fontSize=10;spacing=16;spacingTop=-4;resizeWidth=1;resizeHeight=1;" vertex="1" parent="g7P-NBzQ6pZ7r6BSA7Zd-231">
          <mxGeometry x="152.8846153846154" y="250.0014814814815" width="336.3461538461539" height="37.03703703703704" as="geometry" />
        </mxCell>
        <mxCell id="g7P-NBzQ6pZ7r6BSA7Zd-243" value="All responsive objects based on queries defined in the query page." style="text;whiteSpace=wrap;fontSize=10;spacing=16;spacingTop=-4;resizeWidth=1;resizeHeight=1;fontStyle=0" vertex="1" parent="g7P-NBzQ6pZ7r6BSA7Zd-231">
          <mxGeometry x="152.8846153846154" y="279.99925925925925" width="336.3461538461539" height="37.03703703703704" as="geometry" />
        </mxCell>
        <mxCell id="g7P-NBzQ6pZ7r6BSA7Zd-244" value="Yes" style="text;whiteSpace=wrap;fontSize=10;spacing=16;spacingTop=-4;resizeWidth=1;resizeHeight=1;" vertex="1" parent="g7P-NBzQ6pZ7r6BSA7Zd-231">
          <mxGeometry x="152.8846153846154" y="309.99703703703705" width="336.3461538461539" height="37.03703703703704" as="geometry" />
        </mxCell>
        <mxCell id="g7P-NBzQ6pZ7r6BSA7Zd-245" value="US Persons" style="text;whiteSpace=wrap;fontSize=10;spacing=16;spacingTop=-4;resizeWidth=1;resizeHeight=1;" vertex="1" parent="g7P-NBzQ6pZ7r6BSA7Zd-231">
          <mxGeometry x="152.8846153846154" y="340.00481481481484" width="336.3461538461539" height="37.03703703703704" as="geometry" />
        </mxCell>
        <mxCell id="g7P-NBzQ6pZ7r6BSA7Zd-246" value="Other data here????" style="text;whiteSpace=wrap;fontSize=10;spacing=16;spacingTop=-4;resizeWidth=1;resizeHeight=1;" vertex="1" parent="g7P-NBzQ6pZ7r6BSA7Zd-231">
          <mxGeometry x="152.8846153846154" y="370.00259259259263" width="336.3461538461539" height="37.03703703703704" as="geometry" />
        </mxCell>
        <mxCell id="g7P-NBzQ6pZ7r6BSA7Zd-247" value="Cindy-Luo Who" style="text;whiteSpace=wrap;fontSize=10;spacing=16;spacingTop=-4;resizeWidth=1;resizeHeight=1;" vertex="1" parent="g7P-NBzQ6pZ7r6BSA7Zd-231">
          <mxGeometry x="152.8846153846154" y="400.0025925925927" width="336.3461538461539" height="37.03703703703704" as="geometry" />
        </mxCell>
        <mxCell id="g7P-NBzQ6pZ7r6BSA7Zd-248" value="" style="shape=ellipse;dashed=0;strokeColor=none;shadow=1;fontSize=13;align=center;verticalAlign=top;labelPosition=center;verticalLabelPosition=bottom;html=1;aspect=fixed;fillColor=#F8F9FA;" vertex="1" parent="g7P-NBzQ6pZ7r6BSA7Zd-230">
          <mxGeometry x="408.97637795275597" y="30" width="23.95275590551181" height="23.95275590551181" as="geometry" />
        </mxCell>
        <mxCell id="g7P-NBzQ6pZ7r6BSA7Zd-249" value="" style="dashed=0;html=1;shape=mxgraph.gmdl.edit;strokeColor=none;fillColor=#737373;shadow=0;" vertex="1" parent="g7P-NBzQ6pZ7r6BSA7Zd-248">
          <mxGeometry x="7.699100112485939" y="7.699100112485939" width="8.554555680539933" height="8.554555680539933" as="geometry" />
        </mxCell>
        <mxCell id="g7P-NBzQ6pZ7r6BSA7Zd-250" value="" style="shape=ellipse;dashed=0;strokeColor=none;shadow=1;fontSize=13;align=center;verticalAlign=top;labelPosition=center;verticalLabelPosition=bottom;html=1;aspect=fixed;fillColor=#F8F9FA;" vertex="1" parent="g7P-NBzQ6pZ7r6BSA7Zd-230">
          <mxGeometry x="498.2834645669294" y="30" width="23.95275590551181" height="23.95275590551181" as="geometry" />
        </mxCell>
        <mxCell id="g7P-NBzQ6pZ7r6BSA7Zd-251" value="" style="dashed=0;html=1;shape=mxgraph.gmdl.x;strokeColor=#737373;strokeWidth=2;shadow=0;" vertex="1" parent="g7P-NBzQ6pZ7r6BSA7Zd-250">
          <mxGeometry x="8.554555680539933" y="8.554555680539933" width="6.843644544431946" height="6.843644544431946" as="geometry" />
        </mxCell>
        <mxCell id="g7P-NBzQ6pZ7r6BSA7Zd-252" value="" style="shape=ellipse;dashed=0;strokeColor=none;shadow=1;fontSize=13;align=center;verticalAlign=top;labelPosition=center;verticalLabelPosition=bottom;html=1;aspect=fixed;rounded=1;sketch=0;fillColor=#F8F9FA;" vertex="1" parent="g7P-NBzQ6pZ7r6BSA7Zd-230">
          <mxGeometry x="439.85826771653564" y="30" width="23.95275590551181" height="23.95275590551181" as="geometry" />
        </mxCell>
        <mxCell id="g7P-NBzQ6pZ7r6BSA7Zd-253" value="" style="dashed=0;html=1;shape=mxgraph.gmdl.star;strokeColor=none;fillColor=#737373;shadow=0;" vertex="1" parent="g7P-NBzQ6pZ7r6BSA7Zd-252">
          <mxGeometry x="7.699100112485939" y="7.699100112485939" width="8.554555680539933" height="8.554555680539933" as="geometry" />
        </mxCell>
        <mxCell id="g7P-NBzQ6pZ7r6BSA7Zd-254" value="" style="shape=ellipse;dashed=0;strokeColor=none;shadow=1;fontSize=13;align=center;verticalAlign=top;labelPosition=center;verticalLabelPosition=bottom;html=1;aspect=fixed;rounded=1;sketch=0;fillColor=#F8F9FA;" vertex="1" parent="g7P-NBzQ6pZ7r6BSA7Zd-230">
          <mxGeometry x="469.0708661417325" y="30" width="23.95275590551181" height="23.95275590551181" as="geometry" />
        </mxCell>
        <mxCell id="g7P-NBzQ6pZ7r6BSA7Zd-255" value="" style="dashed=0;html=1;shape=mxgraph.gmdl.cloud;strokeColor=none;fillColor=#737373;shadow=0;" vertex="1" parent="g7P-NBzQ6pZ7r6BSA7Zd-254">
          <mxGeometry x="6.843644544431946" y="8.554555680539933" width="10.265466816647919" height="6.843644544431946" as="geometry" />
        </mxCell>
        <mxCell id="g7P-NBzQ6pZ7r6BSA7Zd-256" value="Fav:" style="text;html=1;strokeColor=none;fillColor=none;align=center;verticalAlign=middle;whiteSpace=wrap;rounded=0;shadow=0;sketch=0;fontSize=10;fontColor=#FFFFFF;" vertex="1" parent="P565BMBygYdm6OfglMrN-1">
          <mxGeometry x="496" y="2008" width="40" height="20" as="geometry" />
        </mxCell>
        <mxCell id="g7P-NBzQ6pZ7r6BSA7Zd-257" value="" style="shape=image;html=1;verticalAlign=top;verticalLabelPosition=bottom;labelBackgroundColor=#ffffff;imageAspect=0;aspect=fixed;image=https://cdn2.iconfinder.com/data/icons/font-awesome/1792/sort-alpha-asc-128.png;rounded=1;shadow=1;sketch=0;strokeColor=#000000;fillColor=#4285F4;fontSize=11;align=left;fontColor=#97D077;" vertex="1" parent="P565BMBygYdm6OfglMrN-1">
          <mxGeometry x="479" y="2011" width="15" height="15" as="geometry" />
        </mxCell>
        <mxCell id="g7P-NBzQ6pZ7r6BSA7Zd-258" value="" style="fillColor=#36B37E;strokeColor=none;rounded=1;arcSize=50;shadow=1;sketch=0;fontSize=11;fontColor=#FFFFFF;align=left;" vertex="1" parent="P565BMBygYdm6OfglMrN-1">
          <mxGeometry x="530" y="2011" width="30" height="16" as="geometry" />
        </mxCell>
        <mxCell id="g7P-NBzQ6pZ7r6BSA7Zd-259" value="Date Range" style="rounded=1;fillColor=#F1F2F4;strokeColor=none;html=1;fontColor=#596780;align=left;fontSize=12;spacingLeft=10;shadow=0;sketch=0;" vertex="1" parent="P565BMBygYdm6OfglMrN-1">
          <mxGeometry x="50" y="2090" width="230" height="30" as="geometry" />
        </mxCell>
        <mxCell id="g7P-NBzQ6pZ7r6BSA7Zd-260" value="" style="shape=triangle;direction=south;fillColor=#596780;strokeColor=none;html=1" vertex="1" parent="g7P-NBzQ6pZ7r6BSA7Zd-259">
          <mxGeometry x="1" y="0.5" width="12" height="6" relative="1" as="geometry">
            <mxPoint x="-20" y="-3" as="offset" />
          </mxGeometry>
        </mxCell>
        <mxCell id="g7P-NBzQ6pZ7r6BSA7Zd-261" value="Hold Type" style="rounded=1;fillColor=#F1F2F4;strokeColor=none;html=1;fontColor=#596780;align=left;fontSize=12;spacingLeft=10;shadow=0;sketch=0;" vertex="1" parent="P565BMBygYdm6OfglMrN-1">
          <mxGeometry x="50" y="2040" width="230" height="30" as="geometry" />
        </mxCell>
        <mxCell id="g7P-NBzQ6pZ7r6BSA7Zd-262" value="" style="shape=triangle;direction=south;fillColor=#596780;strokeColor=none;html=1" vertex="1" parent="g7P-NBzQ6pZ7r6BSA7Zd-261">
          <mxGeometry x="1" y="0.5" width="12" height="6" relative="1" as="geometry">
            <mxPoint x="-20" y="-3" as="offset" />
          </mxGeometry>
        </mxCell>
        <mxCell id="g7P-NBzQ6pZ7r6BSA7Zd-263" value="Responsive Systems" style="rounded=1;fillColor=#F1F2F4;strokeColor=none;html=1;fontColor=#596780;align=left;fontSize=12;spacingLeft=10;shadow=0;sketch=0;" vertex="1" parent="P565BMBygYdm6OfglMrN-1">
          <mxGeometry x="50" y="2140" width="230" height="30" as="geometry" />
        </mxCell>
        <mxCell id="g7P-NBzQ6pZ7r6BSA7Zd-264" value="" style="shape=triangle;direction=south;fillColor=#596780;strokeColor=none;html=1" vertex="1" parent="g7P-NBzQ6pZ7r6BSA7Zd-263">
          <mxGeometry x="1" y="0.5" width="12" height="6" relative="1" as="geometry">
            <mxPoint x="-20" y="-3" as="offset" />
          </mxGeometry>
        </mxCell>
        <mxCell id="g7P-NBzQ6pZ7r6BSA7Zd-265" value="PII Eligible" style="rounded=1;fillColor=#F1F2F4;strokeColor=none;html=1;fontColor=#596780;align=left;fontSize=12;spacingLeft=10;shadow=0;sketch=0;" vertex="1" parent="P565BMBygYdm6OfglMrN-1">
          <mxGeometry x="50" y="2189" width="230" height="30" as="geometry" />
        </mxCell>
        <mxCell id="g7P-NBzQ6pZ7r6BSA7Zd-266" value="" style="shape=triangle;direction=south;fillColor=#596780;strokeColor=none;html=1" vertex="1" parent="g7P-NBzQ6pZ7r6BSA7Zd-265">
          <mxGeometry x="1" y="0.5" width="12" height="6" relative="1" as="geometry">
            <mxPoint x="-20" y="-3" as="offset" />
          </mxGeometry>
        </mxCell>
        <mxCell id="g7P-NBzQ6pZ7r6BSA7Zd-267" value="PII Type" style="rounded=1;fillColor=#F1F2F4;strokeColor=none;html=1;fontColor=#596780;align=left;fontSize=12;spacingLeft=10;shadow=0;sketch=0;" vertex="1" parent="P565BMBygYdm6OfglMrN-1">
          <mxGeometry x="50" y="2234" width="230" height="30" as="geometry" />
        </mxCell>
        <mxCell id="g7P-NBzQ6pZ7r6BSA7Zd-268" value="" style="shape=triangle;direction=south;fillColor=#596780;strokeColor=none;html=1" vertex="1" parent="g7P-NBzQ6pZ7r6BSA7Zd-267">
          <mxGeometry x="1" y="0.5" width="12" height="6" relative="1" as="geometry">
            <mxPoint x="-20" y="-3" as="offset" />
          </mxGeometry>
        </mxCell>
        <mxCell id="g7P-NBzQ6pZ7r6BSA7Zd-269" value="&lt;font color=&quot;#000000&quot; style=&quot;font-size: 11px&quot;&gt;Originating Organization&lt;br&gt;&lt;/font&gt;" style="text;html=1;strokeColor=none;fillColor=none;align=left;verticalAlign=middle;whiteSpace=wrap;rounded=0;shadow=0;sketch=0;fontSize=11;fontColor=#0645AD;" vertex="1" parent="P565BMBygYdm6OfglMrN-1">
          <mxGeometry x="37.5" y="2290" width="179" height="20" as="geometry" />
        </mxCell>
        <mxCell id="g7P-NBzQ6pZ7r6BSA7Zd-270" value="Level 4" style="rounded=1;fillColor=#F1F2F4;strokeColor=none;html=1;fontColor=#596780;align=left;fontSize=12;spacingLeft=10;shadow=0;sketch=0;" vertex="1" parent="P565BMBygYdm6OfglMrN-1">
          <mxGeometry x="50.0000000000001" y="2427" width="80" height="30" as="geometry" />
        </mxCell>
        <mxCell id="g7P-NBzQ6pZ7r6BSA7Zd-271" value="" style="shape=triangle;direction=south;fillColor=#596780;strokeColor=none;html=1" vertex="1" parent="g7P-NBzQ6pZ7r6BSA7Zd-270">
          <mxGeometry x="1" y="0.5" width="12" height="6" relative="1" as="geometry">
            <mxPoint x="-20" y="-3" as="offset" />
          </mxGeometry>
        </mxCell>
        <mxCell id="g7P-NBzQ6pZ7r6BSA7Zd-272" value="Level 5" style="rounded=1;fillColor=#F1F2F4;strokeColor=none;html=1;fontColor=#596780;align=left;fontSize=12;spacingLeft=10;shadow=0;sketch=0;" vertex="1" parent="P565BMBygYdm6OfglMrN-1">
          <mxGeometry x="50.00000000000004" y="2469" width="80" height="30" as="geometry" />
        </mxCell>
        <mxCell id="g7P-NBzQ6pZ7r6BSA7Zd-273" value="" style="shape=triangle;direction=south;fillColor=#596780;strokeColor=none;html=1" vertex="1" parent="g7P-NBzQ6pZ7r6BSA7Zd-272">
          <mxGeometry x="1" y="0.5" width="12" height="6" relative="1" as="geometry">
            <mxPoint x="-20" y="-3" as="offset" />
          </mxGeometry>
        </mxCell>
        <mxCell id="g7P-NBzQ6pZ7r6BSA7Zd-274" value="Level 1" style="rounded=1;fillColor=#F1F2F4;strokeColor=none;html=1;fontColor=#596780;align=left;fontSize=12;spacingLeft=10;shadow=0;sketch=0;" vertex="1" parent="P565BMBygYdm6OfglMrN-1">
          <mxGeometry x="50.000000000000114" y="2313.5" width="80" height="30" as="geometry" />
        </mxCell>
        <mxCell id="g7P-NBzQ6pZ7r6BSA7Zd-275" value="" style="shape=triangle;direction=south;fillColor=#596780;strokeColor=none;html=1" vertex="1" parent="g7P-NBzQ6pZ7r6BSA7Zd-274">
          <mxGeometry x="1" y="0.5" width="12" height="6" relative="1" as="geometry">
            <mxPoint x="-20" y="-3" as="offset" />
          </mxGeometry>
        </mxCell>
        <mxCell id="g7P-NBzQ6pZ7r6BSA7Zd-276" value="Level 2" style="rounded=1;fillColor=#F1F2F4;strokeColor=none;html=1;fontColor=#596780;align=left;fontSize=12;spacingLeft=10;shadow=0;sketch=0;" vertex="1" parent="P565BMBygYdm6OfglMrN-1">
          <mxGeometry x="50.000000000000114" y="2349" width="80" height="30" as="geometry" />
        </mxCell>
        <mxCell id="g7P-NBzQ6pZ7r6BSA7Zd-277" value="" style="shape=triangle;direction=south;fillColor=#596780;strokeColor=none;html=1" vertex="1" parent="g7P-NBzQ6pZ7r6BSA7Zd-276">
          <mxGeometry x="1" y="0.5" width="12" height="6" relative="1" as="geometry">
            <mxPoint x="-20" y="-3" as="offset" />
          </mxGeometry>
        </mxCell>
        <mxCell id="g7P-NBzQ6pZ7r6BSA7Zd-278" value="Filter" style="html=1;shadow=0;dashed=0;shape=mxgraph.bootstrap.rrect;rSize=5;fillColor=#0085FC;strokeColor=none;fontColor=#FFFFFF;fontSize=14;" vertex="1" parent="P565BMBygYdm6OfglMrN-1">
          <mxGeometry x="120.5" y="2620" width="91" height="40" as="geometry" />
        </mxCell>
        <mxCell id="g7P-NBzQ6pZ7r6BSA7Zd-279" value="Cancel" style="html=1;shadow=0;dashed=0;shape=mxgraph.bootstrap.rrect;rSize=5;fillColor=#6C757D;strokeColor=none;fontColor=#FFFFFF;fontSize=14;" vertex="1" parent="P565BMBygYdm6OfglMrN-1">
          <mxGeometry x="216" y="2620" width="70" height="40" as="geometry" />
        </mxCell>
        <mxCell id="g7P-NBzQ6pZ7r6BSA7Zd-280" value="&lt;font color=&quot;#666666&quot; style=&quot;font-size: 16px;&quot;&gt;Filter&lt;/font&gt;" style="text;strokeColor=none;fillColor=none;html=1;fontSize=16;fontStyle=1;verticalAlign=middle;align=center;labelBackgroundColor=none;sketch=0;" vertex="1" parent="P565BMBygYdm6OfglMrN-1">
          <mxGeometry x="30" y="1997" width="77" height="32" as="geometry" />
        </mxCell>
        <mxCell id="g7P-NBzQ6pZ7r6BSA7Zd-281" value="Level 3" style="rounded=1;fillColor=#F1F2F4;strokeColor=none;html=1;fontColor=#596780;align=left;fontSize=12;spacingLeft=10;shadow=0;sketch=0;" vertex="1" parent="P565BMBygYdm6OfglMrN-1">
          <mxGeometry x="50.000000000000114" y="2388" width="80" height="30" as="geometry" />
        </mxCell>
        <mxCell id="g7P-NBzQ6pZ7r6BSA7Zd-282" value="" style="shape=triangle;direction=south;fillColor=#596780;strokeColor=none;html=1" vertex="1" parent="g7P-NBzQ6pZ7r6BSA7Zd-281">
          <mxGeometry x="1" y="0.5" width="12" height="6" relative="1" as="geometry">
            <mxPoint x="-20" y="-3" as="offset" />
          </mxGeometry>
        </mxCell>
        <mxCell id="g7P-NBzQ6pZ7r6BSA7Zd-283" value="" style="line;strokeWidth=1;fillColor=none;align=left;verticalAlign=middle;spacingTop=-1;spacingLeft=3;spacingRight=3;rotatable=0;labelPosition=right;points=[];portConstraint=eastwest;strokeColor=#E6E6E6;" vertex="1" parent="P565BMBygYdm6OfglMrN-1">
          <mxGeometry x="31" y="2608" width="259" height="8" as="geometry" />
        </mxCell>
        <mxCell id="g7P-NBzQ6pZ7r6BSA7Zd-284" value="" style="shape=ellipse;dashed=0;strokeColor=none;shadow=1;fontSize=13;align=center;verticalAlign=top;labelPosition=center;verticalLabelPosition=bottom;html=1;aspect=fixed;" vertex="1" parent="P565BMBygYdm6OfglMrN-1">
          <mxGeometry x="943" y="2029" width="23.95" height="23.95" as="geometry" />
        </mxCell>
        <mxCell id="g7P-NBzQ6pZ7r6BSA7Zd-285" value="" style="dashed=0;html=1;shape=mxgraph.gmdl.plus;strokeColor=#737373;strokeWidth=2;shadow=0;" vertex="1" parent="g7P-NBzQ6pZ7r6BSA7Zd-284">
          <mxGeometry x="7.1850000000000005" y="7.1850000000000005" width="9.579999999999998" height="9.579999999999998" as="geometry" />
        </mxCell>
        <mxCell id="g7P-NBzQ6pZ7r6BSA7Zd-286" value="Add System to Hold" style="html=1;shadow=0;dashed=0;shape=mxgraph.bootstrap.rrect;rSize=5;html=1;strokeColor=#C8C8C8;fillColor=#ffffff;whiteSpace=wrap;verticalAlign=top;align=left;fontSize=18;spacing=15;spacingTop=-5;" vertex="1" parent="P565BMBygYdm6OfglMrN-1">
          <mxGeometry x="1130" y="2047" width="500" height="560" as="geometry" />
        </mxCell>
        <mxCell id="g7P-NBzQ6pZ7r6BSA7Zd-287" value="" style="shape=line;strokeColor=#dddddd;resizeWidth=1;" vertex="1" parent="g7P-NBzQ6pZ7r6BSA7Zd-286">
          <mxGeometry width="490.00000000000006" height="10" relative="1" as="geometry">
            <mxPoint y="50" as="offset" />
          </mxGeometry>
        </mxCell>
        <mxCell id="g7P-NBzQ6pZ7r6BSA7Zd-288" value="" style="html=1;shadow=0;dashed=0;shape=mxgraph.bootstrap.x;strokeColor=#868686;strokeWidth=2;" vertex="1" parent="g7P-NBzQ6pZ7r6BSA7Zd-286">
          <mxGeometry x="1" width="8" height="8" relative="1" as="geometry">
            <mxPoint x="-24" y="20" as="offset" />
          </mxGeometry>
        </mxCell>
        <mxCell id="g7P-NBzQ6pZ7r6BSA7Zd-289" value="" style="shape=line;strokeColor=#dddddd;resizeWidth=1;" vertex="1" parent="g7P-NBzQ6pZ7r6BSA7Zd-286">
          <mxGeometry width="490.00000000000006" height="10" relative="1" as="geometry">
            <mxPoint y="480" as="offset" />
          </mxGeometry>
        </mxCell>
        <mxCell id="g7P-NBzQ6pZ7r6BSA7Zd-290" value="Proceed" style="html=1;shadow=0;dashed=0;shape=mxgraph.bootstrap.rrect;rSize=5;fillColor=#0085FC;strokeColor=none;fontColor=#FFFFFF;fontSize=14;" vertex="1" parent="g7P-NBzQ6pZ7r6BSA7Zd-286">
          <mxGeometry x="1" y="1" width="110" height="40" relative="1" as="geometry">
            <mxPoint x="-130" y="-60" as="offset" />
          </mxGeometry>
        </mxCell>
        <mxCell id="g7P-NBzQ6pZ7r6BSA7Zd-291" value="Cancel" style="html=1;shadow=0;dashed=0;shape=mxgraph.bootstrap.rrect;rSize=5;fillColor=#6C757D;strokeColor=none;fontColor=#FFFFFF;fontSize=14;" vertex="1" parent="g7P-NBzQ6pZ7r6BSA7Zd-286">
          <mxGeometry x="1" y="1" width="70" height="40" relative="1" as="geometry">
            <mxPoint x="-220" y="-60" as="offset" />
          </mxGeometry>
        </mxCell>
        <mxCell id="g7P-NBzQ6pZ7r6BSA7Zd-292" value="1" style="shape=ellipse;strokeColor=none;fontColor=#ffffff;fillColor=#9E9E9E;" vertex="1" parent="g7P-NBzQ6pZ7r6BSA7Zd-286">
          <mxGeometry x="10" y="100" width="24" height="24" as="geometry" />
        </mxCell>
        <mxCell id="g7P-NBzQ6pZ7r6BSA7Zd-293" value="System Selection" style="shape=rect;strokeColor=none;fillColor=none;align=left;fontStyle=0;fontColor=#9E9E9E;" vertex="1" parent="g7P-NBzQ6pZ7r6BSA7Zd-286">
          <mxGeometry x="46" y="100" width="200" height="24" as="geometry" />
        </mxCell>
        <mxCell id="g7P-NBzQ6pZ7r6BSA7Zd-294" value="" style="shape=line;direction=north;strokeColor=#b3b3b3;" vertex="1" parent="g7P-NBzQ6pZ7r6BSA7Zd-286">
          <mxGeometry x="17" y="130" width="10" height="30" as="geometry" />
        </mxCell>
        <mxCell id="g7P-NBzQ6pZ7r6BSA7Zd-295" value="2" style="shape=ellipse;strokeColor=none;fontColor=#ffffff;fillColor=#9E9E9E;" vertex="1" parent="g7P-NBzQ6pZ7r6BSA7Zd-286">
          <mxGeometry x="10" y="170" width="24" height="24" as="geometry" />
        </mxCell>
        <mxCell id="g7P-NBzQ6pZ7r6BSA7Zd-296" value="Queries Against Data" style="shape=rect;strokeColor=none;fillColor=none;align=left;fontStyle=0;fontColor=#9E9E9E;" vertex="1" parent="g7P-NBzQ6pZ7r6BSA7Zd-286">
          <mxGeometry x="46" y="170" width="200" height="24" as="geometry" />
        </mxCell>
        <mxCell id="g7P-NBzQ6pZ7r6BSA7Zd-297" value="3" style="shape=ellipse;strokeColor=none;fillColor=#9e9e9e;fontColor=#ffffff;" vertex="1" parent="g7P-NBzQ6pZ7r6BSA7Zd-286">
          <mxGeometry x="10" y="253" width="24" height="24" as="geometry" />
        </mxCell>
        <mxCell id="g7P-NBzQ6pZ7r6BSA7Zd-298" value="Certification and Authorization" style="shape=rect;strokeColor=none;fillColor=none;align=left;fontColor=#aaaaaa;" vertex="1" parent="g7P-NBzQ6pZ7r6BSA7Zd-286">
          <mxGeometry x="46" y="253" width="200" height="24" as="geometry" />
        </mxCell>
        <mxCell id="g7P-NBzQ6pZ7r6BSA7Zd-299" value="" style="shape=line;direction=north;strokeColor=#b3b3b3;" vertex="1" parent="g7P-NBzQ6pZ7r6BSA7Zd-286">
          <mxGeometry x="17" y="200" width="10" height="40" as="geometry" />
        </mxCell>
        <mxCell id="g7P-NBzQ6pZ7r6BSA7Zd-300" value="Define the system that should have records held and specify the query or queries used to define those records." style="text;html=1;strokeColor=none;fillColor=none;align=left;verticalAlign=top;whiteSpace=wrap;rounded=0;shadow=1;dashed=1;labelBackgroundColor=none;sketch=0;fontSize=9;opacity=30;" vertex="1" parent="g7P-NBzQ6pZ7r6BSA7Zd-286">
          <mxGeometry x="10" y="60" width="470" height="40" as="geometry" />
        </mxCell>
        <mxCell id="g7P-NBzQ6pZ7r6BSA7Zd-424" value="You have determined that the &lt;b&gt;&lt;font style=&quot;font-size: 11px&quot;&gt;XX&lt;/font&gt;&lt;/b&gt; queries should be run against &lt;b&gt;&lt;font style=&quot;font-size: 11px&quot;&gt;Secret Squirrel System&lt;/font&gt;&lt;/b&gt;.&amp;nbsp;&amp;nbsp;" style="text;html=1;strokeColor=none;fillColor=none;align=left;verticalAlign=top;whiteSpace=wrap;rounded=0;shadow=1;dashed=1;labelBackgroundColor=none;sketch=0;fontSize=9;opacity=30;" vertex="1" parent="g7P-NBzQ6pZ7r6BSA7Zd-286">
          <mxGeometry x="46" y="283" width="424" height="100.5" as="geometry" />
        </mxCell>
        <mxCell id="g7P-NBzQ6pZ7r6BSA7Zd-422" value="I John McClane, certify that I am authorized to upload this data.&amp;nbsp;&amp;nbsp;" style="text;html=1;strokeColor=none;fillColor=none;align=left;verticalAlign=top;whiteSpace=wrap;rounded=0;shadow=1;dashed=1;labelBackgroundColor=none;sketch=0;fontSize=9;opacity=30;" vertex="1" parent="g7P-NBzQ6pZ7r6BSA7Zd-286">
          <mxGeometry x="70" y="453" width="400" height="20" as="geometry" />
        </mxCell>
        <mxCell id="g7P-NBzQ6pZ7r6BSA7Zd-423" value="" style="html=1;shadow=0;dashed=0;shape=mxgraph.atlassian.checkbox_2;fillColor=#0057D8;strokeColor=none;align=left;verticalAlign=middle;fontStyle=0;fontSize=12;labelPosition=right;verticalLabelPosition=middle;spacingLeft=10;rounded=1;sketch=0;" vertex="1" parent="g7P-NBzQ6pZ7r6BSA7Zd-286">
          <mxGeometry x="46" y="457" width="12.000000000000002" height="12" as="geometry" />
        </mxCell>
      </root>
    </mxGraphModel>
  </diagram>
</mxfile>
